<svg viewBox="0 0 16 36" fill="none" xmlns="http://www.w3.org/2000/svg">
<path d="M3.55194 7.48587C3.55194 10.2452 5.5553 12.4833 8.02739 12.4833C10.4989 12.4833 12.5023 10.2452 12.5023 7.48587C12.5023 6.13845 11.7225 4.38216 10.7845 2.93772L9.84135 7.44105C9.81019 7.58781 9.66561 7.68265 9.5183 7.65122C9.37044 7.62061 9.27642 7.4763 9.30757 7.32899L10.3574 2.31485C9.48413 1.11393 8.55706 0.249993 8.02739 0.249993C6.82045 0.249993 3.55194 4.72571 3.55194 7.48587Z" fill="url(#paint0_linear_2_2021)"/>
<path d="M5.86003 12.1999L4.2218 25.9908H11.8324L10.1939 12.1999H5.86003Z" fill="url(#paint1_linear_2_2021)"/>
<path d="M3.87171 24.5543C3.56916 24.5543 3.32236 24.8003 3.32236 25.1009V25.9733C3.32236 26.2761 3.56916 26.5202 3.87171 26.5202H12.1814C12.4853 26.5202 12.7313 26.2761 12.7313 25.9733V25.1009C12.7313 24.8003 12.4853 24.5543 12.1814 24.5543H3.87171Z" fill="url(#paint2_linear_2_2021)"/>
<g opacity="0.600006">
<g opacity="0.600006">
<g opacity="0.600006">
<g opacity="0.600006">
<g opacity="0.600006">
<path opacity="0.600006" d="M3.32236 25.9908V25.1009C3.32236 24.8006 3.56889 24.5543 3.87171 24.5543H9.301C9.301 24.5543 6.22163 24.6697 4.93543 25.1091C3.64596 25.5478 3.32236 25.9908 3.32236 25.9908Z" fill="url(#paint3_linear_2_2021)"/>
</g>
</g>
</g>
</g>
</g>
<path d="M4.41561 11.1839C4.13383 11.1839 3.90698 11.4113 3.90698 11.6926C3.90698 11.9724 4.13383 12.1998 4.41561 12.1998H11.64C11.9221 12.1998 12.1489 11.9724 12.1489 11.6926C12.1489 11.4113 11.9221 11.1839 11.64 11.1839H4.41561Z" fill="url(#paint4_linear_2_2021)"/>
<path d="M3.23437 26.2215C2.88426 26.2215 2.6011 26.5044 2.6011 26.8515V27.8578C2.6011 28.2068 2.88426 28.4886 3.23437 28.4886H12.818C13.17 28.4886 13.4529 28.2068 13.4529 27.8578V26.8515C13.4529 26.5044 13.17 26.2215 12.818 26.2215H3.23437Z" fill="url(#paint5_linear_2_2021)"/>
<g opacity="0.600006">
<g opacity="0.600006">
<g opacity="0.600006">
<g opacity="0.600006">
<g opacity="0.600006">
<path opacity="0.600006" d="M2.6011 27.8788V26.8515C2.6011 26.5044 2.88426 26.2215 3.23437 26.2215H9.30101C9.30101 26.2215 5.94505 26.3543 4.45988 26.861C2.97444 27.3669 2.6011 27.8788 2.6011 27.8788Z" fill="url(#paint6_linear_2_2021)"/>
</g>
</g>
</g>
</g>
</g>
<path d="M2.5404 28.258C2.14 28.258 1.81531 28.5832 1.81531 28.9809V30.1329C1.81531 30.5314 2.14 30.855 2.5404 30.855H13.5121C13.9136 30.855 14.2381 30.5314 14.2381 30.1329V28.9809C14.2381 28.5832 13.9136 28.258 13.5121 28.258H2.5404Z" fill="url(#paint7_linear_2_2021)"/>
<g opacity="0.600006">
<g opacity="0.600006">
<g opacity="0.600006">
<g opacity="0.600006">
<g opacity="0.600006">
<path opacity="0.600006" d="M1.81531 30.155V28.9809C1.81531 28.583 2.14 28.258 2.5404 28.258H10.0693C10.0693 28.258 5.64438 28.4119 3.9433 28.9905C2.24304 29.5696 1.81531 30.155 1.81531 30.155Z" fill="url(#paint8_linear_2_2021)"/>
</g>
</g>
</g>
</g>
</g>
<path d="M1.59968 30.155C1.12904 30.155 0.749969 30.5362 0.749969 31.0033V34.9387C0.749969 35.4063 1.12904 35.7852 1.59968 35.7852H14.4548C14.9233 35.7852 15.3043 35.4063 15.3043 34.9387V31.0033C15.3043 30.5362 14.9233 30.155 14.4548 30.155H1.59968Z" fill="url(#paint9_linear_2_2021)"/>
<g opacity="0.600006">
<g opacity="0.600006">
<g opacity="0.600006">
<g opacity="0.600006">
<g opacity="0.600006">
<path opacity="0.600006" d="M0.749969 32.3795V31.0034C0.749969 30.5363 1.12904 30.155 1.59968 30.155H10.0693C10.0693 30.155 5.23443 30.3363 3.24228 31.0146C1.25067 31.6924 0.749969 32.3795 0.749969 32.3795Z" fill="url(#paint10_linear_2_2021)"/>
</g>
</g>
</g>
</g>
</g>
<defs>
<linearGradient id="paint0_linear_2_2021" x1="2.85161" y1="6.3668" x2="11.2505" y2="6.3668" gradientUnits="userSpaceOnUse">
<stop stop-color="#707070"/>
<stop offset="0.219512" stop-color="#4D4D4D"/>
<stop offset="0.255382" stop-color="#4D4D4D"/>
<stop offset="0.882927" stop-color="#212121"/>
<stop offset="0.883136" stop-color="#212121"/>
<stop offset="1" stop-color="#0F0F0F"/>
</linearGradient>
<linearGradient id="paint1_linear_2_2021" x1="3.6263" y1="19.0955" x2="10.768" y2="19.0955" gradientUnits="userSpaceOnUse">
<stop stop-color="#707070"/>
<stop offset="0.219512" stop-color="#4D4D4D"/>
<stop offset="0.255382" stop-color="#4D4D4D"/>
<stop offset="0.882927" stop-color="#212121"/>
<stop offset="0.883136" stop-color="#212121"/>
<stop offset="1" stop-color="#0F0F0F"/>
</linearGradient>
<linearGradient id="paint2_linear_2_2021" x1="2.58614" y1="25.5373" x2="11.4154" y2="25.5373" gradientUnits="userSpaceOnUse">
<stop stop-color="#707070"/>
<stop offset="0.219512" stop-color="#4D4D4D"/>
<stop offset="0.255382" stop-color="#4D4D4D"/>
<stop offset="0.882927" stop-color="#212121"/>
<stop offset="0.883136" stop-color="#212121"/>
<stop offset="1" stop-color="#0F0F0F"/>
</linearGradient>
<linearGradient id="paint3_linear_2_2021" x1="2.85455" y1="25.2726" x2="8.46481" y2="25.2726" gradientUnits="userSpaceOnUse">
<stop stop-color="#707070"/>
<stop offset="0.219512" stop-color="#4D4D4D"/>
<stop offset="0.255382" stop-color="#4D4D4D"/>
<stop offset="0.882927" stop-color="#212121"/>
<stop offset="0.883136" stop-color="#212121"/>
<stop offset="1" stop-color="#0F0F0F"/>
</linearGradient>
<linearGradient id="paint4_linear_2_2021" x1="3.26208" y1="11.6919" x2="10.9962" y2="11.6919" gradientUnits="userSpaceOnUse">
<stop stop-color="#707070"/>
<stop offset="0.219512" stop-color="#4D4D4D"/>
<stop offset="0.255382" stop-color="#4D4D4D"/>
<stop offset="0.882927" stop-color="#212121"/>
<stop offset="0.883136" stop-color="#212121"/>
<stop offset="1" stop-color="#0F0F0F"/>
</linearGradient>
<linearGradient id="paint5_linear_2_2021" x1="1.752" y1="27.3551" x2="11.9351" y2="27.3551" gradientUnits="userSpaceOnUse">
<stop stop-color="#707070"/>
<stop offset="0.219512" stop-color="#4D4D4D"/>
<stop offset="0.255382" stop-color="#4D4D4D"/>
<stop offset="0.882927" stop-color="#212121"/>
<stop offset="0.883136" stop-color="#212121"/>
<stop offset="1" stop-color="#0F0F0F"/>
</linearGradient>
<linearGradient id="paint6_linear_2_2021" x1="2.07686" y1="27.0502" x2="8.36395" y2="27.0502" gradientUnits="userSpaceOnUse">
<stop stop-color="#707070"/>
<stop offset="0.219512" stop-color="#4D4D4D"/>
<stop offset="0.255382" stop-color="#4D4D4D"/>
<stop offset="0.882927" stop-color="#212121"/>
<stop offset="0.883136" stop-color="#212121"/>
<stop offset="1" stop-color="#0F0F0F"/>
</linearGradient>
<linearGradient id="paint7_linear_2_2021" x1="0.843277" y1="29.5565" x2="12.5006" y2="29.5565" gradientUnits="userSpaceOnUse">
<stop stop-color="#707070"/>
<stop offset="0.219512" stop-color="#4D4D4D"/>
<stop offset="0.255382" stop-color="#4D4D4D"/>
<stop offset="0.882927" stop-color="#212121"/>
<stop offset="0.883136" stop-color="#212121"/>
<stop offset="1" stop-color="#0F0F0F"/>
</linearGradient>
<linearGradient id="paint8_linear_2_2021" x1="1.16947" y1="29.2065" x2="8.91485" y2="29.2065" gradientUnits="userSpaceOnUse">
<stop stop-color="#707070"/>
<stop offset="0.219512" stop-color="#4D4D4D"/>
<stop offset="0.255382" stop-color="#4D4D4D"/>
<stop offset="0.882927" stop-color="#212121"/>
<stop offset="0.883136" stop-color="#212121"/>
<stop offset="1" stop-color="#0F0F0F"/>
</linearGradient>
<linearGradient id="paint9_linear_2_2021" x1="-0.388845" y1="32.9701" x2="13.2687" y2="32.9701" gradientUnits="userSpaceOnUse">
<stop stop-color="#707070"/>
<stop offset="0.219512" stop-color="#4D4D4D"/>
<stop offset="0.255382" stop-color="#4D4D4D"/>
<stop offset="0.882927" stop-color="#212121"/>
<stop offset="0.883136" stop-color="#212121"/>
<stop offset="1" stop-color="#0F0F0F"/>
</linearGradient>
<linearGradient id="paint10_linear_2_2021" x1="0.0207706" y1="31.2673" x2="8.76586" y2="31.2673" gradientUnits="userSpaceOnUse">
<stop stop-color="#707070"/>
<stop offset="0.219512" stop-color="#4D4D4D"/>
<stop offset="0.255382" stop-color="#4D4D4D"/>
<stop offset="0.882927" stop-color="#212121"/>
<stop offset="0.883136" stop-color="#212121"/>
<stop offset="1" stop-color="#0F0F0F"/>
</linearGradient>
</defs>
</svg>
