<svg viewBox="0 0 15 30" fill="none" xmlns="http://www.w3.org/2000/svg">
<path d="M11.06 0.249937L10.5079 1.99721H9.17493L9.60102 0.249937H7.44187H7.1519H4.99219L5.41829 1.99721H4.08535L3.53381 0.249937H1.37276L4.03916 5.44556H7.1519H7.44187H10.5541L13.221 0.249937H11.06Z" fill="url(#paint0_linear_2_2023)"/>
<path d="M1.38532 24.4094C1.38405 24.4119 1.38152 24.4157 1.38152 24.4157H1.38532V24.4094Z" fill="url(#paint1_linear_2_2023)"/>
<path d="M5.12396 6.09914L3.48138 19.9272H11.1125L9.46986 6.09914H5.12396Z" fill="url(#paint2_linear_2_2023)"/>
<path d="M3.12959 18.4866C2.82704 18.4866 2.57997 18.734 2.57997 19.0354V19.9098C2.57997 20.2129 2.82704 20.4586 3.12959 20.4586H11.462C11.7667 20.4586 12.0143 20.2129 12.0143 19.9098V19.0354C12.0143 18.734 11.7667 18.4866 11.462 18.4866H3.12959Z" fill="url(#paint3_linear_2_2023)"/>
<g opacity="0.600006">
<g opacity="0.600006">
<g opacity="0.600006">
<g opacity="0.600006">
<g opacity="0.600006">
<path opacity="0.600006" d="M2.57997 19.9272V19.0354C2.57997 18.7337 2.82704 18.4866 3.12959 18.4866H8.57447C8.57447 18.4866 5.48635 18.6025 4.19688 19.0434C2.90385 19.4831 2.57997 19.9272 2.57997 19.9272Z" fill="url(#paint4_linear_2_2023)"/>
</g>
</g>
</g>
</g>
</g>
<path d="M3.67518 5.08044C3.39285 5.08044 3.16573 5.30865 3.16573 5.59098C3.16573 5.87167 3.39285 6.09906 3.67518 6.09906H10.9201C11.2019 6.09906 11.4301 5.87167 11.4301 5.59098C11.4301 5.30865 11.2019 5.08044 10.9201 5.08044H3.67518Z" fill="url(#paint5_linear_2_2023)"/>
<path d="M2.49151 20.1587C2.14003 20.1587 1.85661 20.4424 1.85661 20.7906V21.7994C1.85661 22.1489 2.14003 22.4318 2.49151 22.4318H12.1003C12.4534 22.4318 12.7371 22.1489 12.7371 21.7994V20.7906C12.7371 20.4424 12.4534 20.1587 12.1003 20.1587H2.49151Z" fill="url(#paint6_linear_2_2023)"/>
<g opacity="0.600006">
<g opacity="0.600006">
<g opacity="0.600006">
<g opacity="0.600006">
<g opacity="0.600006">
<path opacity="0.600006" d="M1.85661 21.8202V20.7906C1.85661 20.4424 2.14002 20.1585 2.49123 20.1585H8.57455C8.57455 20.1585 5.20957 20.2916 3.72004 20.8002C2.23023 21.3072 1.85661 21.8202 1.85661 21.8202Z" fill="url(#paint7_linear_2_2023)"/>
</g>
</g>
</g>
</g>
</g>
<path d="M1.79538 22.2004C1.39443 22.2004 1.06865 22.5264 1.06865 22.9252V24.081C1.06865 24.4803 1.39443 24.8042 1.79538 24.8042H12.7964C13.1995 24.8042 13.5253 24.4803 13.5253 24.081V22.9252C13.5253 22.5264 13.1995 22.2004 12.7964 22.2004H1.79538Z" fill="url(#paint8_linear_2_2023)"/>
<g opacity="0.600006">
<g opacity="0.600006">
<g opacity="0.600006">
<g opacity="0.600006">
<g opacity="0.600006">
<path opacity="0.600006" d="M1.06865 24.1028V22.9252C1.06865 22.5264 1.39443 22.2003 1.79538 22.2003H9.34446C9.34446 22.2003 4.90729 22.3545 3.20238 22.9353C1.49747 23.5155 1.06865 24.1028 1.06865 24.1028Z" fill="url(#paint9_linear_2_2023)"/>
</g>
</g>
</g>
</g>
</g>
<path d="M0.851892 24.1028C0.380706 24.1028 -1.52588e-05 24.4852 -1.52588e-05 24.9531V28.8997C-1.52588e-05 29.3681 0.380706 29.7477 0.851892 29.7477H13.742C14.2115 29.7477 14.5934 29.3681 14.5934 28.8997V24.9531C14.5934 24.4852 14.2115 24.1028 13.742 24.1028H0.851892Z" fill="url(#paint10_linear_2_2023)"/>
<g opacity="0.600006">
<g opacity="0.600006">
<g opacity="0.600006">
<g opacity="0.600006">
<g opacity="0.600006">
<path opacity="0.600006" d="M-1.52588e-05 26.3331V24.9531C-1.52588e-05 24.4849 0.380706 24.1029 0.851892 24.1029H9.34444C9.34444 24.1029 4.49676 24.2843 2.49996 24.9643C0.502337 25.6443 -1.52588e-05 26.3331 -1.52588e-05 26.3331Z" fill="url(#paint11_linear_2_2023)"/>
</g>
</g>
</g>
</g>
</g>
<defs>
<linearGradient id="paint0_linear_2_2023" x1="0.445679" y1="2.8478" x2="11.5639" y2="2.8478" gradientUnits="userSpaceOnUse">
<stop stop-color="#707070"/>
<stop offset="0.219512" stop-color="#4D4D4D"/>
<stop offset="0.255382" stop-color="#4D4D4D"/>
<stop offset="0.882927" stop-color="#212121"/>
<stop offset="0.883136" stop-color="#212121"/>
<stop offset="1" stop-color="#0F0F0F"/>
</linearGradient>
<linearGradient id="paint1_linear_2_2023" x1="1.38122" y1="24.4125" x2="1.38479" y2="24.4125" gradientUnits="userSpaceOnUse">
<stop stop-color="#707070"/>
<stop offset="0.219512" stop-color="#4D4D4D"/>
<stop offset="0.255382" stop-color="#4D4D4D"/>
<stop offset="0.882927" stop-color="#212121"/>
<stop offset="0.883136" stop-color="#212121"/>
<stop offset="1" stop-color="#0F0F0F"/>
</linearGradient>
<linearGradient id="paint2_linear_2_2023" x1="2.88428" y1="13.0133" x2="10.0452" y2="13.0133" gradientUnits="userSpaceOnUse">
<stop stop-color="#707070"/>
<stop offset="0.219512" stop-color="#4D4D4D"/>
<stop offset="0.255382" stop-color="#4D4D4D"/>
<stop offset="0.882927" stop-color="#212121"/>
<stop offset="0.883136" stop-color="#212121"/>
<stop offset="1" stop-color="#0F0F0F"/>
</linearGradient>
<linearGradient id="paint3_linear_2_2023" x1="1.84177" y1="19.4726" x2="10.6948" y2="19.4726" gradientUnits="userSpaceOnUse">
<stop stop-color="#707070"/>
<stop offset="0.219512" stop-color="#4D4D4D"/>
<stop offset="0.255382" stop-color="#4D4D4D"/>
<stop offset="0.882927" stop-color="#212121"/>
<stop offset="0.883136" stop-color="#212121"/>
<stop offset="1" stop-color="#0F0F0F"/>
</linearGradient>
<linearGradient id="paint4_linear_2_2023" x1="2.11093" y1="19.207" x2="7.73606" y2="19.207" gradientUnits="userSpaceOnUse">
<stop stop-color="#707070"/>
<stop offset="0.219512" stop-color="#4D4D4D"/>
<stop offset="0.255382" stop-color="#4D4D4D"/>
<stop offset="0.882927" stop-color="#212121"/>
<stop offset="0.883136" stop-color="#212121"/>
<stop offset="1" stop-color="#0F0F0F"/>
</linearGradient>
<linearGradient id="paint5_linear_2_2023" x1="2.51907" y1="5.58976" x2="10.2742" y2="5.58976" gradientUnits="userSpaceOnUse">
<stop stop-color="#707070"/>
<stop offset="0.219512" stop-color="#4D4D4D"/>
<stop offset="0.255382" stop-color="#4D4D4D"/>
<stop offset="0.882927" stop-color="#212121"/>
<stop offset="0.883136" stop-color="#212121"/>
<stop offset="1" stop-color="#0F0F0F"/>
</linearGradient>
<linearGradient id="paint6_linear_2_2023" x1="1.00526" y1="21.2953" x2="11.2153" y2="21.2953" gradientUnits="userSpaceOnUse">
<stop stop-color="#707070"/>
<stop offset="0.219512" stop-color="#4D4D4D"/>
<stop offset="0.255382" stop-color="#4D4D4D"/>
<stop offset="0.882927" stop-color="#212121"/>
<stop offset="0.883136" stop-color="#212121"/>
<stop offset="1" stop-color="#0F0F0F"/>
</linearGradient>
<linearGradient id="paint7_linear_2_2023" x1="1.33096" y1="20.9893" x2="7.63497" y2="20.9893" gradientUnits="userSpaceOnUse">
<stop stop-color="#707070"/>
<stop offset="0.219512" stop-color="#4D4D4D"/>
<stop offset="0.255382" stop-color="#4D4D4D"/>
<stop offset="0.882927" stop-color="#212121"/>
<stop offset="0.883136" stop-color="#212121"/>
<stop offset="1" stop-color="#0F0F0F"/>
</linearGradient>
<linearGradient id="paint8_linear_2_2023" x1="0.093968" y1="23.5023" x2="11.7831" y2="23.5023" gradientUnits="userSpaceOnUse">
<stop stop-color="#707070"/>
<stop offset="0.219512" stop-color="#4D4D4D"/>
<stop offset="0.255382" stop-color="#4D4D4D"/>
<stop offset="0.882927" stop-color="#212121"/>
<stop offset="0.883136" stop-color="#212121"/>
<stop offset="1" stop-color="#0F0F0F"/>
</linearGradient>
<linearGradient id="paint9_linear_2_2023" x1="0.4211" y1="23.1516" x2="8.18699" y2="23.1516" gradientUnits="userSpaceOnUse">
<stop stop-color="#707070"/>
<stop offset="0.219512" stop-color="#4D4D4D"/>
<stop offset="0.255382" stop-color="#4D4D4D"/>
<stop offset="0.882927" stop-color="#212121"/>
<stop offset="0.883136" stop-color="#212121"/>
<stop offset="1" stop-color="#0F0F0F"/>
</linearGradient>
<linearGradient id="paint10_linear_2_2023" x1="-1.14189" y1="26.9253" x2="12.5523" y2="26.9253" gradientUnits="userSpaceOnUse">
<stop stop-color="#707070"/>
<stop offset="0.219512" stop-color="#4D4D4D"/>
<stop offset="0.255382" stop-color="#4D4D4D"/>
<stop offset="0.882927" stop-color="#212121"/>
<stop offset="0.883136" stop-color="#212121"/>
<stop offset="1" stop-color="#0F0F0F"/>
</linearGradient>
<linearGradient id="paint11_linear_2_2023" x1="-0.731182" y1="25.218" x2="8.03751" y2="25.218" gradientUnits="userSpaceOnUse">
<stop stop-color="#707070"/>
<stop offset="0.219512" stop-color="#4D4D4D"/>
<stop offset="0.255382" stop-color="#4D4D4D"/>
<stop offset="0.882927" stop-color="#212121"/>
<stop offset="0.883136" stop-color="#212121"/>
<stop offset="1" stop-color="#0F0F0F"/>
</linearGradient>
</defs>
</svg>
