<svg viewBox="0 0 18 32" fill="none" xmlns="http://www.w3.org/2000/svg">
<path d="M2.95328 1.2361C3.03636 1.29787 2.76798 1.59523 2.45996 2.12381C2.3837 2.09703 2.30197 2.08199 2.21697 2.08199C1.80974 2.08199 1.47932 2.41188 1.47932 2.81965C1.47932 2.96751 1.52359 3.10608 1.59847 3.22115C1.33364 3.3332 1.14724 3.59558 1.14724 3.90114C1.14724 4.093 1.21994 4.26628 1.33938 4.39774C1.14369 4.53003 1.01442 4.75469 1.01442 5.00887C1.01442 5.2614 1.14151 5.48415 1.33419 5.61752C1.06471 5.7263 0.875031 5.99114 0.875031 6.30025C0.875031 6.55853 1.00868 6.78593 1.21038 6.91793C1.08903 7.04967 1.01442 7.22459 1.01442 7.41809C1.01442 7.62827 1.10241 7.81712 1.24344 7.95132C1.18249 8.05845 1.14724 8.18254 1.14724 8.31536C1.14724 8.61163 1.32299 8.86772 1.57607 8.98416C1.51512 9.09184 1.47932 9.21592 1.47932 9.34875C1.47932 9.62698 1.63346 9.86859 1.86031 9.99376C1.79143 10.1058 1.75208 10.2381 1.75208 10.3791C1.75208 10.6902 1.9453 10.9572 2.21861 11.0649C2.21752 11.0821 2.21697 11.0985 2.21697 11.1162C2.21697 11.4644 2.4583 11.7555 2.78218 11.8331C2.78218 11.84 2.78191 11.8471 2.78191 11.8539C2.78191 12.2349 3.07106 12.5484 3.44195 12.5875C3.58789 12.7933 3.74587 12.9974 3.91668 13.198C5.93234 15.5682 4.41957 18.8949 4.54092 19.4158C4.66309 19.9362 5.54424 19.8766 7.93734 19.9428C10.3293 20.0095 13.9513 19.9764 14.848 19.3117C15.7453 18.6473 16.144 17.6505 15.9781 16.7863C15.812 15.9221 15.1475 15.291 15.0811 14.8595C15.0147 14.4274 15.4799 12.5667 14.051 11.7692C12.6219 10.9717 9.43208 8.94097 9.36566 8.37823C9.29898 7.81521 10.595 7.19725 11.5923 7.3063C12.5885 7.41618 13.6523 8.44191 14.1838 8.37823C14.7149 8.31318 14.7482 7.75426 15.1145 7.70151C15.4799 7.64931 15.6791 7.13931 15.4465 6.86272C15.2142 6.58586 13.0542 5.48935 13.3863 5.3229C13.5437 5.24419 14.0065 5.5011 14.4752 5.75801C14.9958 6.04334 15.5236 6.32868 15.646 6.15348C15.8781 5.82141 16.4507 5.45573 16.015 4.65821C15.5794 3.86124 15.6124 2.89727 14.7482 2.5816C13.8846 2.2662 10.3591 1.66765 9.72999 1.36893C9.35637 1.19182 8.71382 1.20139 8.10024 1.21068C7.67879 1.21751 7.27075 1.2238 6.97339 1.16969C6.24256 1.03686 4.21569 0.416443 3.14268 0.272409C3.03035 0.257103 2.93195 0.249997 2.8464 0.249997C2.11475 0.249997 2.33013 0.770106 2.95328 1.2361Z" fill="url(#paint0_linear_2_2022)"/>
<path d="M3.14872 25.7154C3.14745 25.7154 3.14365 25.7217 3.14365 25.7217H3.14999C3.14999 25.7192 3.14872 25.7167 3.14872 25.7154Z" fill="url(#paint1_linear_2_2022)"/>
<path d="M5.07604 19.1715C4.74069 19.1715 4.46875 19.4443 4.46875 19.7772V20.7433C4.46875 21.0787 4.74069 21.3492 5.07604 21.3492H14.2819C14.6186 21.3492 14.8917 21.0787 14.8917 20.7433V19.7772C14.8917 19.4443 14.6186 19.1715 14.2819 19.1715H5.07604Z" fill="url(#paint2_linear_2_2022)"/>
<g opacity="0.600006">
<g opacity="0.600006">
<g opacity="0.600006">
<g opacity="0.600006">
<g opacity="0.600006">
<path opacity="0.600006" d="M4.46875 20.7628V19.7772C4.46875 19.4443 4.74096 19.1715 5.07604 19.1715H11.0916C11.0916 19.1715 7.67958 19.2984 6.25482 19.786C4.82569 20.2722 4.46875 20.7628 4.46875 20.7628Z" fill="url(#paint3_linear_2_2022)"/>
</g>
</g>
</g>
</g>
</g>
<path d="M4.37033 21.0185C3.9825 21.0185 3.66901 21.3317 3.66901 21.7166V22.8314C3.66901 23.2178 3.9825 23.5294 4.37033 23.5294H14.9873C15.3776 23.5294 15.6908 23.2178 15.6908 22.8314V21.7166C15.6908 21.3317 15.3776 21.0185 14.9873 21.0185H4.37033Z" fill="url(#paint4_linear_2_2022)"/>
<g opacity="0.600006">
<g opacity="0.600006">
<g opacity="0.600006">
<g opacity="0.600006">
<g opacity="0.600006">
<path opacity="0.600006" d="M3.66901 22.8541V21.7165C3.66901 21.3317 3.98223 21.0182 4.37033 21.0182H11.0916C11.0916 21.0182 7.37318 21.165 5.7284 21.7267C4.08171 22.2867 3.66901 22.8541 3.66901 22.8541Z" fill="url(#paint5_linear_2_2022)"/>
</g>
</g>
</g>
</g>
</g>
<path d="M3.60123 23.2744C3.15765 23.2744 2.79825 23.6338 2.79825 24.0755V25.3513C2.79825 25.7927 3.15765 26.151 3.60123 26.151H15.7564C16.2016 26.151 16.561 25.7927 16.561 25.3513V24.0755C16.561 23.6338 16.2016 23.2744 15.7564 23.2744H3.60123Z" fill="url(#paint6_linear_2_2022)"/>
<g opacity="0.600006">
<g opacity="0.600006">
<g opacity="0.600006">
<g opacity="0.600006">
<g opacity="0.600006">
<path opacity="0.600006" d="M2.79825 25.3765V24.0755C2.79825 23.6341 3.15765 23.2742 3.60123 23.2742H11.9424C11.9424 23.2742 7.03947 23.4444 5.15554 24.0856C3.27189 24.7279 2.79825 25.3765 2.79825 25.3765Z" fill="url(#paint7_linear_2_2022)"/>
</g>
</g>
</g>
</g>
</g>
<path d="M2.5592 25.3765C2.03827 25.3765 1.61819 25.7982 1.61819 26.3158V30.676C1.61819 31.1933 2.03827 31.6134 2.5592 31.6134H16.8005C17.3196 31.6134 17.7418 31.1933 17.7418 30.676V26.3158C17.7418 25.7982 17.3196 25.3765 16.8005 25.3765H2.5592Z" fill="url(#paint8_linear_2_2022)"/>
<g opacity="0.600006">
<g opacity="0.600006">
<g opacity="0.600006">
<g opacity="0.600006">
<g opacity="0.600006">
<path opacity="0.600006" d="M1.61819 27.8397V26.3158C1.61819 25.7981 2.03827 25.3764 2.5592 25.3764H11.9425C11.9425 25.3764 6.58641 25.577 4.37943 26.328C2.17218 27.0797 1.61819 27.8397 1.61819 27.8397Z" fill="url(#paint9_linear_2_2022)"/>
</g>
</g>
</g>
</g>
</g>
<defs>
<linearGradient id="paint0_linear_2_2022" x1="-0.322058" y1="10.1086" x2="14.0343" y2="10.1086" gradientUnits="userSpaceOnUse">
<stop stop-color="#707070"/>
<stop offset="0.219512" stop-color="#4D4D4D"/>
<stop offset="0.255382" stop-color="#4D4D4D"/>
<stop offset="0.882927" stop-color="#212121"/>
<stop offset="0.883136" stop-color="#212121"/>
<stop offset="1" stop-color="#0F0F0F"/>
</linearGradient>
<linearGradient id="paint1_linear_2_2022" x1="3.14315" y1="25.7186" x2="3.14911" y2="25.7186" gradientUnits="userSpaceOnUse">
<stop stop-color="#707070"/>
<stop offset="0.219512" stop-color="#4D4D4D"/>
<stop offset="0.255382" stop-color="#4D4D4D"/>
<stop offset="0.882927" stop-color="#212121"/>
<stop offset="0.883136" stop-color="#212121"/>
<stop offset="1" stop-color="#0F0F0F"/>
</linearGradient>
<linearGradient id="paint2_linear_2_2022" x1="3.6532" y1="20.2604" x2="13.4339" y2="20.2604" gradientUnits="userSpaceOnUse">
<stop stop-color="#707070"/>
<stop offset="0.219512" stop-color="#4D4D4D"/>
<stop offset="0.255382" stop-color="#4D4D4D"/>
<stop offset="0.882927" stop-color="#212121"/>
<stop offset="0.883136" stop-color="#212121"/>
<stop offset="1" stop-color="#0F0F0F"/>
</linearGradient>
<linearGradient id="paint3_linear_2_2022" x1="3.95054" y1="19.9672" x2="10.1653" y2="19.9672" gradientUnits="userSpaceOnUse">
<stop stop-color="#707070"/>
<stop offset="0.219512" stop-color="#4D4D4D"/>
<stop offset="0.255382" stop-color="#4D4D4D"/>
<stop offset="0.882927" stop-color="#212121"/>
<stop offset="0.883136" stop-color="#212121"/>
<stop offset="1" stop-color="#0F0F0F"/>
</linearGradient>
<linearGradient id="paint4_linear_2_2022" x1="2.72835" y1="22.274" x2="14.0094" y2="22.274" gradientUnits="userSpaceOnUse">
<stop stop-color="#707070"/>
<stop offset="0.219512" stop-color="#4D4D4D"/>
<stop offset="0.255382" stop-color="#4D4D4D"/>
<stop offset="0.882927" stop-color="#212121"/>
<stop offset="0.883136" stop-color="#212121"/>
<stop offset="1" stop-color="#0F0F0F"/>
</linearGradient>
<linearGradient id="paint5_linear_2_2022" x1="3.08822" y1="21.9362" x2="10.0534" y2="21.9362" gradientUnits="userSpaceOnUse">
<stop stop-color="#707070"/>
<stop offset="0.219512" stop-color="#4D4D4D"/>
<stop offset="0.255382" stop-color="#4D4D4D"/>
<stop offset="0.882927" stop-color="#212121"/>
<stop offset="0.883136" stop-color="#212121"/>
<stop offset="1" stop-color="#0F0F0F"/>
</linearGradient>
<linearGradient id="paint6_linear_2_2022" x1="1.72137" y1="24.7127" x2="14.6361" y2="24.7127" gradientUnits="userSpaceOnUse">
<stop stop-color="#707070"/>
<stop offset="0.219512" stop-color="#4D4D4D"/>
<stop offset="0.255382" stop-color="#4D4D4D"/>
<stop offset="0.882927" stop-color="#212121"/>
<stop offset="0.883136" stop-color="#212121"/>
<stop offset="1" stop-color="#0F0F0F"/>
</linearGradient>
<linearGradient id="paint7_linear_2_2022" x1="2.08276" y1="24.3253" x2="10.6634" y2="24.3253" gradientUnits="userSpaceOnUse">
<stop stop-color="#707070"/>
<stop offset="0.219512" stop-color="#4D4D4D"/>
<stop offset="0.255382" stop-color="#4D4D4D"/>
<stop offset="0.882927" stop-color="#212121"/>
<stop offset="0.883136" stop-color="#212121"/>
<stop offset="1" stop-color="#0F0F0F"/>
</linearGradient>
<linearGradient id="paint8_linear_2_2022" x1="0.356586" y1="28.495" x2="15.4867" y2="28.495" gradientUnits="userSpaceOnUse">
<stop stop-color="#707070"/>
<stop offset="0.219512" stop-color="#4D4D4D"/>
<stop offset="0.255382" stop-color="#4D4D4D"/>
<stop offset="0.882927" stop-color="#212121"/>
<stop offset="0.883136" stop-color="#212121"/>
<stop offset="1" stop-color="#0F0F0F"/>
</linearGradient>
<linearGradient id="paint9_linear_2_2022" x1="0.810362" y1="26.6081" x2="10.4985" y2="26.6081" gradientUnits="userSpaceOnUse">
<stop stop-color="#707070"/>
<stop offset="0.219512" stop-color="#4D4D4D"/>
<stop offset="0.255382" stop-color="#4D4D4D"/>
<stop offset="0.882927" stop-color="#212121"/>
<stop offset="0.883136" stop-color="#212121"/>
<stop offset="1" stop-color="#0F0F0F"/>
</linearGradient>
</defs>
</svg>
