<svg viewBox="0 0 17 38" fill="none" xmlns="http://www.w3.org/2000/svg">
<path d="M7.20051 1.65917C7.20051 1.88246 7.25326 2.09318 7.34509 2.28176C6.97257 2.42225 6.38058 2.66112 5.87332 2.93169C5.06049 3.36516 4.92494 3.93447 4.27528 3.96098C3.96835 3.9741 3.61359 3.78797 3.25911 3.60212C2.86144 3.39359 2.46405 3.18532 2.13444 3.25693C1.51184 3.39195 3.02871 5.36962 3.7333 6.88731C4.43735 8.4039 4.62702 10.436 4.62702 10.436L8.60915 10.7609L12.5918 10.436C12.5918 10.436 12.7809 8.4039 13.4855 6.88731C14.1899 5.36962 15.7067 3.39195 15.0839 3.25693C14.7545 3.18532 14.3571 3.39359 13.9595 3.60212C13.605 3.78797 13.2502 3.9741 12.943 3.96098C12.2936 3.93447 12.1581 3.36516 11.3455 2.93169C10.8383 2.66112 10.246 2.42225 9.87321 2.28176C9.96558 2.09318 10.0183 1.88246 10.0183 1.65917C10.0183 0.880779 9.38699 0.249983 8.60915 0.249983C7.83131 0.249983 7.20051 0.880779 7.20051 1.65917Z" fill="url(#paint0_linear_2_2020)"/>
<path d="M6.19415 11.327L4.36844 26.6957H12.8495L11.0241 11.327H6.19415Z" fill="url(#paint1_linear_2_2020)"/>
<path d="M3.97843 25.0941C3.64089 25.0941 3.36703 25.3696 3.36703 25.7041V26.6755C3.36703 27.0127 3.64089 27.2858 3.97843 27.2858H13.2382C13.5773 27.2858 13.8517 27.0127 13.8517 26.6755V25.7041C13.8517 25.3696 13.5773 25.0941 13.2382 25.0941H3.97843Z" fill="url(#paint2_linear_2_2020)"/>
<g opacity="0.600006">
<g opacity="0.600006">
<g opacity="0.600006">
<g opacity="0.600006">
<g opacity="0.600006">
<path opacity="0.600006" d="M3.36731 26.696V25.7041C3.36731 25.3693 3.6409 25.0938 3.97844 25.0938H10.0292C10.0292 25.0938 6.59783 25.2226 5.16405 25.7132C3.72699 26.2016 3.36731 26.696 3.36731 26.696Z" fill="url(#paint3_linear_2_2020)"/>
</g>
</g>
</g>
</g>
</g>
<path d="M4.58439 10.1949C4.27035 10.1949 4.01727 10.4483 4.01727 10.7618C4.01727 11.0739 4.27035 11.327 4.58439 11.327H12.6355C12.9501 11.327 13.2032 11.0739 13.2032 10.7618C13.2032 10.4483 12.9501 10.1949 12.6355 10.1949H4.58439Z" fill="url(#paint4_linear_2_2020)"/>
<path d="M3.26858 26.952C2.87802 26.952 2.56262 27.2683 2.56262 27.655V28.7761C2.56262 29.165 2.87802 29.4785 3.26858 29.4785H13.9476C14.3401 29.4785 14.6555 29.165 14.6555 28.7761V27.655C14.6555 27.2683 14.3401 26.952 13.9476 26.952H3.26858Z" fill="url(#paint5_linear_2_2020)"/>
<g opacity="0.600006">
<g opacity="0.600006">
<g opacity="0.600006">
<g opacity="0.600006">
<g opacity="0.600006">
<path opacity="0.600006" d="M2.56262 28.7991V27.6551C2.56262 27.2681 2.87802 26.9521 3.26831 26.9521H10.0292C10.0292 26.9521 6.28866 27.1 4.63431 27.6652C2.97806 28.2285 2.56262 28.7991 2.56262 28.7991Z" fill="url(#paint6_linear_2_2020)"/>
</g>
</g>
</g>
</g>
</g>
<path d="M2.49486 29.2216C2.04855 29.2216 1.68723 29.5837 1.68723 30.0278V31.311C1.68723 31.7552 2.04855 32.1157 2.49486 32.1157H14.7216C15.1696 32.1157 15.5315 31.7552 15.5315 31.311V30.0278C15.5315 29.5837 15.1696 29.2216 14.7216 29.2216H2.49486Z" fill="url(#paint7_linear_2_2020)"/>
<g opacity="0.600006">
<g opacity="0.600006">
<g opacity="0.600006">
<g opacity="0.600006">
<g opacity="0.600006">
<path opacity="0.600006" d="M1.68723 31.3362V30.0279C1.68723 29.5838 2.04855 29.2219 2.49486 29.2219H10.8846C10.8846 29.2219 5.95387 29.3927 4.05847 30.0386C2.16334 30.6839 1.68723 31.3362 1.68723 31.3362Z" fill="url(#paint8_linear_2_2020)"/>
</g>
</g>
</g>
</g>
</g>
<path d="M1.44647 31.3362C0.922267 31.3362 0.5 31.7606 0.5 32.281V36.6668C0.5 37.1877 0.922267 37.61 1.44647 37.61H15.7717C16.2943 37.61 16.7187 37.1877 16.7187 36.6668V32.281C16.7187 31.7606 16.2943 31.3362 15.7717 31.3362H1.44647Z" fill="url(#paint9_linear_2_2020)"/>
<g opacity="0.600006">
<g opacity="0.600006">
<g opacity="0.600006">
<g opacity="0.600006">
<g opacity="0.600006">
<path opacity="0.600006" d="M0.5 33.8146V32.2811C0.5 31.7607 0.922267 31.3363 1.44647 31.3363H10.8847C10.8847 31.3363 5.49693 31.538 3.27738 32.2939C1.05783 33.0499 0.5 33.8146 0.5 33.8146Z" fill="url(#paint10_linear_2_2020)"/>
</g>
</g>
</g>
</g>
</g>
<defs>
<linearGradient id="paint0_linear_2_2020" x1="0.951524" y1="5.50557" x2="13.3785" y2="5.50557" gradientUnits="userSpaceOnUse">
<stop stop-color="#707070"/>
<stop offset="0.219512" stop-color="#4D4D4D"/>
<stop offset="0.255382" stop-color="#4D4D4D"/>
<stop offset="0.882927" stop-color="#212121"/>
<stop offset="0.883136" stop-color="#212121"/>
<stop offset="1" stop-color="#0F0F0F"/>
</linearGradient>
<linearGradient id="paint1_linear_2_2020" x1="3.70483" y1="19.0115" x2="11.6633" y2="19.0115" gradientUnits="userSpaceOnUse">
<stop stop-color="#707070"/>
<stop offset="0.219512" stop-color="#4D4D4D"/>
<stop offset="0.255382" stop-color="#4D4D4D"/>
<stop offset="0.882927" stop-color="#212121"/>
<stop offset="0.883136" stop-color="#212121"/>
<stop offset="1" stop-color="#0F0F0F"/>
</linearGradient>
<linearGradient id="paint2_linear_2_2020" x1="2.54665" y1="26.19" x2="12.3853" y2="26.19" gradientUnits="userSpaceOnUse">
<stop stop-color="#707070"/>
<stop offset="0.219512" stop-color="#4D4D4D"/>
<stop offset="0.255382" stop-color="#4D4D4D"/>
<stop offset="0.882927" stop-color="#212121"/>
<stop offset="0.883136" stop-color="#212121"/>
<stop offset="1" stop-color="#0F0F0F"/>
</linearGradient>
<linearGradient id="paint3_linear_2_2020" x1="2.84604" y1="25.8949" x2="9.09748" y2="25.8949" gradientUnits="userSpaceOnUse">
<stop stop-color="#707070"/>
<stop offset="0.219512" stop-color="#4D4D4D"/>
<stop offset="0.255382" stop-color="#4D4D4D"/>
<stop offset="0.882927" stop-color="#212121"/>
<stop offset="0.883136" stop-color="#212121"/>
<stop offset="1" stop-color="#0F0F0F"/>
</linearGradient>
<linearGradient id="paint4_linear_2_2020" x1="3.29851" y1="10.761" x2="11.9184" y2="10.761" gradientUnits="userSpaceOnUse">
<stop stop-color="#707070"/>
<stop offset="0.219512" stop-color="#4D4D4D"/>
<stop offset="0.255382" stop-color="#4D4D4D"/>
<stop offset="0.882927" stop-color="#212121"/>
<stop offset="0.883136" stop-color="#212121"/>
<stop offset="1" stop-color="#0F0F0F"/>
</linearGradient>
<linearGradient id="paint5_linear_2_2020" x1="1.6164" y1="28.2153" x2="12.9641" y2="28.2153" gradientUnits="userSpaceOnUse">
<stop stop-color="#707070"/>
<stop offset="0.219512" stop-color="#4D4D4D"/>
<stop offset="0.255382" stop-color="#4D4D4D"/>
<stop offset="0.882927" stop-color="#212121"/>
<stop offset="0.883136" stop-color="#212121"/>
<stop offset="1" stop-color="#0F0F0F"/>
</linearGradient>
<linearGradient id="paint6_linear_2_2020" x1="1.97839" y1="27.8756" x2="8.98488" y2="27.8756" gradientUnits="userSpaceOnUse">
<stop stop-color="#707070"/>
<stop offset="0.219512" stop-color="#4D4D4D"/>
<stop offset="0.255382" stop-color="#4D4D4D"/>
<stop offset="0.882927" stop-color="#212121"/>
<stop offset="0.883136" stop-color="#212121"/>
<stop offset="1" stop-color="#0F0F0F"/>
</linearGradient>
<linearGradient id="paint7_linear_2_2020" x1="0.603969" y1="30.6687" x2="13.5952" y2="30.6687" gradientUnits="userSpaceOnUse">
<stop stop-color="#707070"/>
<stop offset="0.219512" stop-color="#4D4D4D"/>
<stop offset="0.255382" stop-color="#4D4D4D"/>
<stop offset="0.882927" stop-color="#212121"/>
<stop offset="0.883136" stop-color="#212121"/>
<stop offset="1" stop-color="#0F0F0F"/>
</linearGradient>
<linearGradient id="paint8_linear_2_2020" x1="0.967564" y1="30.2791" x2="9.59827" y2="30.2791" gradientUnits="userSpaceOnUse">
<stop stop-color="#707070"/>
<stop offset="0.219512" stop-color="#4D4D4D"/>
<stop offset="0.255382" stop-color="#4D4D4D"/>
<stop offset="0.882927" stop-color="#212121"/>
<stop offset="0.883136" stop-color="#212121"/>
<stop offset="1" stop-color="#0F0F0F"/>
</linearGradient>
<linearGradient id="paint9_linear_2_2020" x1="-0.769052" y1="34.4731" x2="14.4504" y2="34.4731" gradientUnits="userSpaceOnUse">
<stop stop-color="#707070"/>
<stop offset="0.219512" stop-color="#4D4D4D"/>
<stop offset="0.255382" stop-color="#4D4D4D"/>
<stop offset="0.882927" stop-color="#212121"/>
<stop offset="0.883136" stop-color="#212121"/>
<stop offset="1" stop-color="#0F0F0F"/>
</linearGradient>
<linearGradient id="paint10_linear_2_2020" x1="-0.312559" y1="32.5755" x2="9.43225" y2="32.5755" gradientUnits="userSpaceOnUse">
<stop stop-color="#707070"/>
<stop offset="0.219512" stop-color="#4D4D4D"/>
<stop offset="0.255382" stop-color="#4D4D4D"/>
<stop offset="0.882927" stop-color="#212121"/>
<stop offset="0.883136" stop-color="#212121"/>
<stop offset="1" stop-color="#0F0F0F"/>
</linearGradient>
</defs>
</svg>
