<svg viewBox="0 0 14 29" fill="none" xmlns="http://www.w3.org/2000/svg">
<path d="M1.25653 23.3375C1.25576 23.339 1.25189 23.3437 1.25189 23.3437H1.25731C1.25731 23.3437 1.25653 23.3406 1.25653 23.3375Z" fill="url(#paint0_linear_2_2057)"/>
<path d="M3.19449 3.79471C3.19449 5.68383 4.72584 7.21463 6.61441 7.21463C8.5049 7.21463 10.0343 5.68383 10.0343 3.79471C10.0343 1.90614 8.5049 0.375056 6.61441 0.375056C4.72584 0.375056 3.19449 1.90614 3.19449 3.79471Z" fill="url(#paint1_linear_2_2057)"/>
<path d="M4.64407 6.74202L3.15535 19.276H10.0723L8.58355 6.74202H4.64407Z" fill="url(#paint2_linear_2_2057)"/>
<path d="M2.83693 17.9704C2.56225 17.9704 2.33813 18.194 2.33813 18.4678V19.2599C2.33813 19.5351 2.56225 19.757 2.83693 19.757H10.3893C10.6656 19.757 10.8892 19.5351 10.8892 19.2599V18.4678C10.8892 18.194 10.6656 17.9704 10.3893 17.9704H2.83693Z" fill="url(#paint3_linear_2_2057)"/>
<g opacity="0.600006">
<g opacity="0.600006">
<g opacity="0.600006">
<g opacity="0.600006">
<g opacity="0.600006">
<path opacity="0.600006" d="M2.33813 19.276V18.4678C2.33813 18.194 2.56198 17.9704 2.83693 17.9704H7.7718C7.7718 17.9704 4.97284 18.0751 3.80389 18.4749C2.63194 18.8731 2.33813 19.276 2.33813 19.276Z" fill="url(#paint4_linear_2_2057)"/>
</g>
</g>
</g>
</g>
</g>
<path d="M3.33167 5.81876C3.07558 5.81876 2.86923 6.02539 2.86923 6.28093C2.86923 6.53566 3.07558 6.742 3.33167 6.742H9.89766C10.1538 6.742 10.3601 6.53566 10.3601 6.28093C10.3601 6.02539 10.1538 5.81876 9.89766 5.81876H3.33167Z" fill="url(#paint5_linear_2_2057)"/>
<path d="M2.25809 19.4854C1.93968 19.4854 1.6825 19.7425 1.6825 20.0582V20.9724C1.6825 21.2895 1.93968 21.5458 2.25809 21.5458H10.9679C11.2874 21.5458 11.5451 21.2895 11.5451 20.9724V20.0582C11.5451 19.7425 11.2874 19.4854 10.9679 19.4854H2.25809Z" fill="url(#paint6_linear_2_2057)"/>
<g opacity="0.600006">
<g opacity="0.600006">
<g opacity="0.600006">
<g opacity="0.600006">
<g opacity="0.600006">
<path opacity="0.600006" d="M1.6825 20.9918V20.0582C1.6825 19.7425 1.93968 19.4853 2.25809 19.4853H7.77183C7.77183 19.4853 4.72143 19.6059 3.3721 20.0672C2.0214 20.5266 1.6825 20.9918 1.6825 20.9918Z" fill="url(#paint7_linear_2_2057)"/>
</g>
</g>
</g>
</g>
</g>
<path d="M1.62698 21.3365C1.26348 21.3365 0.968582 21.6317 0.968582 21.9938V23.0406C0.968582 23.4022 1.26348 23.6965 1.62698 23.6965H11.5992C11.9638 23.6965 12.2587 23.4022 12.2587 23.0406V21.9938C12.2587 21.6317 11.9638 21.3365 11.5992 21.3365H1.62698Z" fill="url(#paint8_linear_2_2057)"/>
<g opacity="0.600006">
<g opacity="0.600006">
<g opacity="0.600006">
<g opacity="0.600006">
<g opacity="0.600006">
<path opacity="0.600006" d="M0.968582 23.0608V21.9938C0.968582 21.6316 1.26348 21.3365 1.62698 21.3365H8.46984C8.46984 21.3365 4.44809 21.4758 2.90225 22.0022C1.35668 22.5286 0.968582 23.0608 0.968582 23.0608Z" fill="url(#paint9_linear_2_2057)"/>
</g>
</g>
</g>
</g>
</g>
<path d="M0.7721 23.0608C0.344644 23.0608 0 23.4071 0 23.8316V27.4086C0 27.8331 0.344644 28.1772 0.7721 28.1772H12.4555C12.8814 28.1772 13.2276 27.8331 13.2276 27.4086V23.8316C13.2276 23.4071 12.8814 23.0608 12.4555 23.0608H0.7721Z" fill="url(#paint10_linear_2_2057)"/>
<g opacity="0.600006">
<g opacity="0.600006">
<g opacity="0.600006">
<g opacity="0.600006">
<g opacity="0.600006">
<path opacity="0.600006" d="M0 25.0822V23.8316C0 23.4071 0.344644 23.0608 0.7721 23.0608H8.46987C8.46987 23.0608 4.07559 23.2256 2.26546 23.8417C0.455061 24.4583 0 25.0822 0 25.0822Z" fill="url(#paint11_linear_2_2057)"/>
</g>
</g>
</g>
</g>
</g>
<defs>
<linearGradient id="paint0_linear_2_2057" x1="1.25147" y1="23.3406" x2="1.25655" y2="23.3406" gradientUnits="userSpaceOnUse">
<stop stop-color="#707070"/>
<stop offset="0.219512" stop-color="#4D4D4D"/>
<stop offset="0.255382" stop-color="#4D4D4D"/>
<stop offset="0.882927" stop-color="#212121"/>
<stop offset="0.883136" stop-color="#212121"/>
<stop offset="1" stop-color="#0F0F0F"/>
</linearGradient>
<linearGradient id="paint1_linear_2_2057" x1="2.6593" y1="3.79492" x2="9.0777" y2="3.79492" gradientUnits="userSpaceOnUse">
<stop stop-color="#707070"/>
<stop offset="0.219512" stop-color="#4D4D4D"/>
<stop offset="0.255382" stop-color="#4D4D4D"/>
<stop offset="0.882927" stop-color="#212121"/>
<stop offset="0.883136" stop-color="#212121"/>
<stop offset="1" stop-color="#0F0F0F"/>
</linearGradient>
<linearGradient id="paint2_linear_2_2057" x1="2.61413" y1="13.0091" x2="9.10486" y2="13.0091" gradientUnits="userSpaceOnUse">
<stop stop-color="#707070"/>
<stop offset="0.219512" stop-color="#4D4D4D"/>
<stop offset="0.255382" stop-color="#4D4D4D"/>
<stop offset="0.882927" stop-color="#212121"/>
<stop offset="0.883136" stop-color="#212121"/>
<stop offset="1" stop-color="#0F0F0F"/>
</linearGradient>
<linearGradient id="paint3_linear_2_2057" x1="1.66905" y1="18.8637" x2="9.69321" y2="18.8637" gradientUnits="userSpaceOnUse">
<stop stop-color="#707070"/>
<stop offset="0.219512" stop-color="#4D4D4D"/>
<stop offset="0.255382" stop-color="#4D4D4D"/>
<stop offset="0.882927" stop-color="#212121"/>
<stop offset="0.883136" stop-color="#212121"/>
<stop offset="1" stop-color="#0F0F0F"/>
</linearGradient>
<linearGradient id="paint4_linear_2_2057" x1="1.91297" y1="18.6232" x2="7.01184" y2="18.6232" gradientUnits="userSpaceOnUse">
<stop stop-color="#707070"/>
<stop offset="0.219512" stop-color="#4D4D4D"/>
<stop offset="0.255382" stop-color="#4D4D4D"/>
<stop offset="0.882927" stop-color="#212121"/>
<stop offset="0.883136" stop-color="#212121"/>
<stop offset="1" stop-color="#0F0F0F"/>
</linearGradient>
<linearGradient id="paint5_linear_2_2057" x1="2.2831" y1="6.28039" x2="9.31241" y2="6.28039" gradientUnits="userSpaceOnUse">
<stop stop-color="#707070"/>
<stop offset="0.219512" stop-color="#4D4D4D"/>
<stop offset="0.255382" stop-color="#4D4D4D"/>
<stop offset="0.882927" stop-color="#212121"/>
<stop offset="0.883136" stop-color="#212121"/>
<stop offset="1" stop-color="#0F0F0F"/>
</linearGradient>
<linearGradient id="paint6_linear_2_2057" x1="0.910782" y1="20.5156" x2="10.1657" y2="20.5156" gradientUnits="userSpaceOnUse">
<stop stop-color="#707070"/>
<stop offset="0.219512" stop-color="#4D4D4D"/>
<stop offset="0.255382" stop-color="#4D4D4D"/>
<stop offset="0.882927" stop-color="#212121"/>
<stop offset="0.883136" stop-color="#212121"/>
<stop offset="1" stop-color="#0F0F0F"/>
</linearGradient>
<linearGradient id="paint7_linear_2_2057" x1="1.20603" y1="20.2386" x2="6.92017" y2="20.2386" gradientUnits="userSpaceOnUse">
<stop stop-color="#707070"/>
<stop offset="0.219512" stop-color="#4D4D4D"/>
<stop offset="0.255382" stop-color="#4D4D4D"/>
<stop offset="0.882927" stop-color="#212121"/>
<stop offset="0.883136" stop-color="#212121"/>
<stop offset="1" stop-color="#0F0F0F"/>
</linearGradient>
<linearGradient id="paint8_linear_2_2057" x1="0.085173" y1="22.5165" x2="10.6797" y2="22.5165" gradientUnits="userSpaceOnUse">
<stop stop-color="#707070"/>
<stop offset="0.219512" stop-color="#4D4D4D"/>
<stop offset="0.255382" stop-color="#4D4D4D"/>
<stop offset="0.882927" stop-color="#212121"/>
<stop offset="0.883136" stop-color="#212121"/>
<stop offset="1" stop-color="#0F0F0F"/>
</linearGradient>
<linearGradient id="paint9_linear_2_2057" x1="0.381639" y1="22.1986" x2="7.4207" y2="22.1986" gradientUnits="userSpaceOnUse">
<stop stop-color="#707070"/>
<stop offset="0.219512" stop-color="#4D4D4D"/>
<stop offset="0.255382" stop-color="#4D4D4D"/>
<stop offset="0.882927" stop-color="#212121"/>
<stop offset="0.883136" stop-color="#212121"/>
<stop offset="1" stop-color="#0F0F0F"/>
</linearGradient>
<linearGradient id="paint10_linear_2_2057" x1="-1.03501" y1="25.6191" x2="11.3776" y2="25.6191" gradientUnits="userSpaceOnUse">
<stop stop-color="#707070"/>
<stop offset="0.219512" stop-color="#4D4D4D"/>
<stop offset="0.255382" stop-color="#4D4D4D"/>
<stop offset="0.882927" stop-color="#212121"/>
<stop offset="0.883136" stop-color="#212121"/>
<stop offset="1" stop-color="#0F0F0F"/>
</linearGradient>
<linearGradient id="paint11_linear_2_2057" x1="-0.662733" y1="24.0715" x2="7.28525" y2="24.0715" gradientUnits="userSpaceOnUse">
<stop stop-color="#707070"/>
<stop offset="0.219512" stop-color="#4D4D4D"/>
<stop offset="0.255382" stop-color="#4D4D4D"/>
<stop offset="0.882927" stop-color="#212121"/>
<stop offset="0.883136" stop-color="#212121"/>
<stop offset="1" stop-color="#0F0F0F"/>
</linearGradient>
</defs>
</svg>
