<svg viewBox="0 0 17 44" fill="none" xmlns="http://www.w3.org/2000/svg">
<path d="M6.72056 0.733754C6.57571 1.12021 7.61511 2.7404 7.61511 2.7404C7.61511 2.7404 6.35843 1.67585 5.99575 1.86963C5.63307 2.06313 5.75387 5.22943 6.09223 5.35078C6.43086 5.47131 7.61511 4.45595 7.61511 4.45595C7.61511 4.45595 6.55166 5.90641 6.64841 6.24477C6.74489 6.58313 7.37377 6.55935 7.37377 6.55935C7.37377 6.55935 7.15567 6.87311 7.15567 7.11499V7.47795C7.15567 7.47795 2.56325 8.50504 2.30962 9.41134C2.05544 10.3179 3.39712 12.3483 4.34004 13.5809C5.28241 14.8141 4.99242 16.627 4.99242 16.627L8.63017 16.844L12.2679 16.627C12.2679 16.627 11.9782 14.8141 12.9209 13.5809C13.8638 12.3483 15.2049 10.3179 14.9513 9.41134C14.6974 8.50504 10.1047 7.47795 10.1047 7.47795V7.11499C10.1047 6.87311 9.88713 6.55935 9.88713 6.55935C9.88713 6.55935 10.5155 6.58313 10.6125 6.24477C10.7092 5.90641 9.64579 4.45595 9.64579 4.45595C9.64579 4.45595 10.8303 5.47131 11.1681 5.35078C11.5068 5.22943 11.6278 2.06313 11.2649 1.86963C10.9025 1.67585 9.64579 2.7404 9.64579 2.7404C9.64579 2.7404 10.6852 1.12021 10.5403 0.733754C10.3949 0.346748 8.63017 0.25 8.63017 0.25C8.63017 0.25 6.86541 0.346748 6.72056 0.733754Z" fill="url(#paint0_linear_2_2019)"/>
<path d="M6.24669 17.4024L4.44449 32.5738H12.8168L11.0146 17.4024H6.24669Z" fill="url(#paint1_linear_2_2019)"/>
<path d="M4.05858 30.9938C3.72623 30.9938 3.45538 31.2643 3.45538 31.5953V32.5541C3.45538 32.887 3.72623 33.1567 4.05858 33.1567H13.2C13.5345 33.1567 13.8059 32.887 13.8059 32.5541V31.5953C13.8059 31.2643 13.5345 30.9938 13.2 30.9938H4.05858Z" fill="url(#paint2_linear_2_2019)"/>
<g opacity="0.600006">
<g opacity="0.600006">
<g opacity="0.600006">
<g opacity="0.600006">
<g opacity="0.600006">
<path opacity="0.600006" d="M3.45538 32.5738V31.5953C3.45538 31.2644 3.72624 30.9938 4.05885 30.9938H10.0323C10.0323 30.9938 6.64409 31.1203 5.22944 31.6044C3.81069 32.0865 3.45538 32.5738 3.45538 32.5738Z" fill="url(#paint3_linear_2_2019)"/>
</g>
</g>
</g>
</g>
</g>
<path d="M4.65737 16.2857C4.34743 16.2857 4.09763 16.5355 4.09763 16.8451C4.09763 17.1531 4.34743 17.4024 4.65737 17.4024H12.6055C12.9151 17.4024 13.1649 17.1531 13.1649 16.8451C13.1649 16.5355 12.9151 16.2857 12.6055 16.2857H4.65737Z" fill="url(#paint4_linear_2_2019)"/>
<path d="M3.35832 32.8275C2.97295 32.8275 2.66138 33.139 2.66138 33.5214V34.628C2.66138 35.0118 2.97295 35.3214 3.35832 35.3214H13.9007C14.2877 35.3214 14.5993 35.0118 14.5993 34.628V33.5214C14.5993 33.139 14.2877 32.8275 13.9007 32.8275H3.35832Z" fill="url(#paint5_linear_2_2019)"/>
<g opacity="0.600006">
<g opacity="0.600006">
<g opacity="0.600006">
<g opacity="0.600006">
<g opacity="0.600006">
<path opacity="0.600006" d="M2.66138 34.6509V33.5213C2.66138 33.1389 2.97295 32.8274 3.35832 32.8274H10.0323C10.0323 32.8274 6.33958 32.9736 4.70655 33.5314C3.07134 34.0876 2.66138 34.6509 2.66138 34.6509Z" fill="url(#paint6_linear_2_2019)"/>
</g>
</g>
</g>
</g>
</g>
<path d="M2.59467 35.0683C2.15465 35.0683 1.79742 35.4252 1.79742 35.8631V37.131C1.79742 37.5691 2.15465 37.9244 2.59467 37.9244H14.6643C15.1065 37.9244 15.4635 37.5691 15.4635 37.131V35.8631C15.4635 35.4252 15.1065 35.0683 14.6643 35.0683H2.59467Z" fill="url(#paint7_linear_2_2019)"/>
<g opacity="0.600006">
<g opacity="0.600006">
<g opacity="0.600006">
<g opacity="0.600006">
<g opacity="0.600006">
<path opacity="0.600006" d="M1.79742 37.1555V35.863C1.79742 35.4255 2.15464 35.0682 2.5944 35.0682H10.877C10.877 35.0682 6.00913 35.2369 4.13806 35.8737C2.26725 36.5111 1.79742 37.1555 1.79742 37.1555Z" fill="url(#paint8_linear_2_2019)"/>
</g>
</g>
</g>
</g>
</g>
<path d="M1.55968 37.1556C1.04231 37.1556 0.624969 37.5741 0.624969 38.0881V42.4179C0.624969 42.932 1.04231 43.3488 1.55968 43.3488H15.7013C16.217 43.3488 16.6357 42.932 16.6357 42.4179V38.0881C16.6357 37.5741 16.217 37.1556 15.7013 37.1556H1.55968Z" fill="url(#paint9_linear_2_2019)"/>
<g opacity="0.600006">
<g opacity="0.600006">
<g opacity="0.600006">
<g opacity="0.600006">
<g opacity="0.600006">
<path opacity="0.600006" d="M0.624969 39.6019V38.0881C0.624969 37.574 1.04231 37.1555 1.55968 37.1555H10.8771C10.8771 37.1555 5.55848 37.3545 3.36736 38.1004C1.17623 38.8465 0.624969 39.6019 0.624969 39.6019Z" fill="url(#paint10_linear_2_2019)"/>
</g>
</g>
</g>
</g>
</g>
<defs>
<linearGradient id="paint0_linear_2_2019" x1="1.28409" y1="8.54718" x2="13.2058" y2="8.54718" gradientUnits="userSpaceOnUse">
<stop stop-color="#707070"/>
<stop offset="0.219512" stop-color="#4D4D4D"/>
<stop offset="0.255382" stop-color="#4D4D4D"/>
<stop offset="0.882927" stop-color="#212121"/>
<stop offset="0.883136" stop-color="#212121"/>
<stop offset="1" stop-color="#0F0F0F"/>
</linearGradient>
<linearGradient id="paint1_linear_2_2019" x1="3.78939" y1="24.9882" x2="11.6458" y2="24.9882" gradientUnits="userSpaceOnUse">
<stop stop-color="#707070"/>
<stop offset="0.219512" stop-color="#4D4D4D"/>
<stop offset="0.255382" stop-color="#4D4D4D"/>
<stop offset="0.882927" stop-color="#212121"/>
<stop offset="0.883136" stop-color="#212121"/>
<stop offset="1" stop-color="#0F0F0F"/>
</linearGradient>
<linearGradient id="paint2_linear_2_2019" x1="2.6455" y1="32.0753" x2="12.3583" y2="32.0753" gradientUnits="userSpaceOnUse">
<stop stop-color="#707070"/>
<stop offset="0.219512" stop-color="#4D4D4D"/>
<stop offset="0.255382" stop-color="#4D4D4D"/>
<stop offset="0.882927" stop-color="#212121"/>
<stop offset="0.883136" stop-color="#212121"/>
<stop offset="1" stop-color="#0F0F0F"/>
</linearGradient>
<linearGradient id="paint3_linear_2_2019" x1="2.94077" y1="31.7838" x2="9.11244" y2="31.7838" gradientUnits="userSpaceOnUse">
<stop stop-color="#707070"/>
<stop offset="0.219512" stop-color="#4D4D4D"/>
<stop offset="0.255382" stop-color="#4D4D4D"/>
<stop offset="0.882927" stop-color="#212121"/>
<stop offset="0.883136" stop-color="#212121"/>
<stop offset="1" stop-color="#0F0F0F"/>
</linearGradient>
<linearGradient id="paint4_linear_2_2019" x1="3.38814" y1="16.844" x2="11.8968" y2="16.844" gradientUnits="userSpaceOnUse">
<stop stop-color="#707070"/>
<stop offset="0.219512" stop-color="#4D4D4D"/>
<stop offset="0.255382" stop-color="#4D4D4D"/>
<stop offset="0.882927" stop-color="#212121"/>
<stop offset="0.883136" stop-color="#212121"/>
<stop offset="1" stop-color="#0F0F0F"/>
</linearGradient>
<linearGradient id="paint5_linear_2_2019" x1="1.72728" y1="34.0745" x2="12.9296" y2="34.0745" gradientUnits="userSpaceOnUse">
<stop stop-color="#707070"/>
<stop offset="0.219512" stop-color="#4D4D4D"/>
<stop offset="0.255382" stop-color="#4D4D4D"/>
<stop offset="0.882927" stop-color="#212121"/>
<stop offset="0.883136" stop-color="#212121"/>
<stop offset="1" stop-color="#0F0F0F"/>
</linearGradient>
<linearGradient id="paint6_linear_2_2019" x1="2.08463" y1="33.7391" x2="9.00136" y2="33.7391" gradientUnits="userSpaceOnUse">
<stop stop-color="#707070"/>
<stop offset="0.219512" stop-color="#4D4D4D"/>
<stop offset="0.255382" stop-color="#4D4D4D"/>
<stop offset="0.882927" stop-color="#212121"/>
<stop offset="0.883136" stop-color="#212121"/>
<stop offset="1" stop-color="#0F0F0F"/>
</linearGradient>
<linearGradient id="paint7_linear_2_2019" x1="0.728112" y1="36.4964" x2="13.5521" y2="36.4964" gradientUnits="userSpaceOnUse">
<stop stop-color="#707070"/>
<stop offset="0.219512" stop-color="#4D4D4D"/>
<stop offset="0.255382" stop-color="#4D4D4D"/>
<stop offset="0.882927" stop-color="#212121"/>
<stop offset="0.883136" stop-color="#212121"/>
<stop offset="1" stop-color="#0F0F0F"/>
</linearGradient>
<linearGradient id="paint8_linear_2_2019" x1="1.08698" y1="36.1119" x2="9.60715" y2="36.1119" gradientUnits="userSpaceOnUse">
<stop stop-color="#707070"/>
<stop offset="0.219512" stop-color="#4D4D4D"/>
<stop offset="0.255382" stop-color="#4D4D4D"/>
<stop offset="0.882927" stop-color="#212121"/>
<stop offset="0.883136" stop-color="#212121"/>
<stop offset="1" stop-color="#0F0F0F"/>
</linearGradient>
<linearGradient id="paint9_linear_2_2019" x1="-0.627808" y1="40.2523" x2="14.3964" y2="40.2523" gradientUnits="userSpaceOnUse">
<stop stop-color="#707070"/>
<stop offset="0.219512" stop-color="#4D4D4D"/>
<stop offset="0.255382" stop-color="#4D4D4D"/>
<stop offset="0.882927" stop-color="#212121"/>
<stop offset="0.883136" stop-color="#212121"/>
<stop offset="1" stop-color="#0F0F0F"/>
</linearGradient>
<linearGradient id="paint10_linear_2_2019" x1="-0.177218" y1="38.3788" x2="9.4432" y2="38.3788" gradientUnits="userSpaceOnUse">
<stop stop-color="#707070"/>
<stop offset="0.219512" stop-color="#4D4D4D"/>
<stop offset="0.255382" stop-color="#4D4D4D"/>
<stop offset="0.882927" stop-color="#212121"/>
<stop offset="0.883136" stop-color="#212121"/>
<stop offset="1" stop-color="#0F0F0F"/>
</linearGradient>
</defs>
</svg>
