<svg viewBox="0 0 16 31" fill="none" xmlns="http://www.w3.org/2000/svg">
<path d="M11.9194 1.10497L11.9341 1.05838H11.983H14.1293H14.2384L14.1886 1.15549L11.5401 6.31513L11.5215 6.35135H11.4808H8.38969H8.10121H5.01061H4.96989L4.9513 6.31512L2.30312 1.15549L2.25328 1.05838H2.36243H4.5087H4.55757L4.57228 1.10498L5.10533 2.79336H6.29501L5.89234 1.14083L5.87225 1.05838H5.95711H8.10121H8.38969H10.5346H10.6194L10.5994 1.14083L10.1967 2.79336H11.3861L11.9194 1.10497Z" fill="url(#paint0_linear_3_242)" stroke="black" stroke-width="0.1"/>
<path d="M6.02245 7.10761L6.02944 7.04881H6.08865H10.4047H10.4639L10.4709 7.10761L12.1024 20.8414L12.1113 20.9159H12.0362H4.45712H4.38207L4.39092 20.8414L6.02245 7.10761Z" fill="url(#paint1_linear_3_242)" stroke="black" stroke-width="0.1"/>
<path d="M3.49506 19.963C3.49506 19.6265 3.7708 19.3513 4.11028 19.3513H12.3851C12.7232 19.3513 12.9976 19.6268 12.9976 19.963V20.8315C12.9976 21.1695 12.723 21.4429 12.3851 21.4429H4.11028C3.77097 21.4429 3.49506 21.1698 3.49506 20.8315V19.963Z" fill="url(#paint2_linear_3_242)" stroke="black" stroke-width="0.1"/>
<g opacity="0.600006">
<g opacity="0.600006">
<g opacity="0.600006">
<g opacity="0.600006">
<g opacity="0.600006">
<path opacity="0.600006" d="M12.9975 20.8489V21.0539L12.8771 20.8884L12.8771 20.8883L12.877 20.8883L12.877 20.8882L12.8769 20.8881L12.8769 20.888L12.8748 20.8854C12.8728 20.8829 12.8693 20.8787 12.8643 20.8729C12.8543 20.8615 12.8381 20.8439 12.8144 20.8212C12.767 20.7756 12.6896 20.7091 12.5721 20.6286C12.337 20.4675 11.9413 20.2506 11.3041 20.034L11.304 20.034C10.6722 19.8181 9.59299 19.6803 8.66525 19.5967C8.20271 19.555 7.78005 19.527 7.473 19.5093C7.31949 19.5005 7.19493 19.4943 7.10877 19.4904L7.00955 19.486L6.98377 19.4849L6.97723 19.4847L6.97559 19.4846L6.97519 19.4846L6.97509 19.4846L6.97757 19.418L6.97507 19.4846L6.97757 19.3513H12.385C12.7232 19.3513 12.9975 19.6268 12.9975 19.963V20.8489Z" fill="url(#paint3_linear_3_242)" stroke="black" stroke-width="0.1"/>
</g>
</g>
</g>
</g>
</g>
<path d="M4.07529 6.61038C4.07529 6.29304 4.33133 6.03689 4.64822 6.03689H11.8433C12.1607 6.03689 12.4171 6.29295 12.4171 6.61038C12.4171 6.92606 12.1605 7.18196 11.8433 7.18196H4.64822C4.3315 7.18196 4.07529 6.92596 4.07529 6.61038Z" fill="url(#paint4_linear_3_242)" stroke="black" stroke-width="0.1"/>
<path d="M2.7767 21.7061C2.7767 21.3229 3.08884 21.0118 3.476 21.0118H13.0191C13.4044 21.0118 13.717 21.323 13.717 21.7061V22.7083C13.717 23.0927 13.4043 23.4024 13.0191 23.4024H3.476C3.08895 23.4024 2.7767 23.0928 2.7767 22.7083V21.7061Z" fill="url(#paint5_linear_3_242)" stroke="black" stroke-width="0.1"/>
<g opacity="0.600006">
<g opacity="0.600006">
<g opacity="0.600006">
<g opacity="0.600006">
<g opacity="0.600006">
<g opacity="0.600006">
<mask id="path-7-outside-1_3_242" maskUnits="userSpaceOnUse" x="5.64424" y="20.0621" width="9.33333" height="4" fill="black">
<rect fill="white" x="5.64424" y="20.0621" width="9.33333" height="4"/>
<path d="M13.6503 22.7288V21.7062C13.6503 21.3601 13.3681 21.0784 13.019 21.0784H6.97757C6.97757 21.0784 10.3201 21.2105 11.7985 21.7157C13.2786 22.2192 13.6503 22.7288 13.6503 22.7288Z"/>
</mask>
<path d="M13.6503 22.7288V21.7062C13.6503 21.3601 13.3681 21.0784 13.019 21.0784H6.97757C6.97757 21.0784 10.3201 21.2105 11.7985 21.7157C13.2786 22.2192 13.6503 22.7288 13.6503 22.7288Z" fill="url(#paint6_linear_3_242)"/>
<path d="M6.97757 21.0784L6.9723 21.2117L6.97757 20.9451V21.0784ZM11.7985 21.7157L11.7556 21.8419L11.7554 21.8419L11.7985 21.7157ZM13.5169 22.7288V21.7062H13.7836V22.7288H13.5169ZM13.5169 21.7062C13.5169 21.4343 13.295 21.2118 13.019 21.2118V20.9451C13.4412 20.9451 13.7836 21.2859 13.7836 21.7062H13.5169ZM13.019 21.2118H6.97757V20.9451H13.019V21.2118ZM6.97757 21.0784C6.98283 20.9452 6.98286 20.9452 6.98289 20.9452C6.98292 20.9452 6.98297 20.9452 6.98302 20.9452C6.98314 20.9452 6.9833 20.9452 6.98351 20.9452C6.98394 20.9453 6.98457 20.9453 6.9854 20.9453C6.98706 20.9454 6.98952 20.9455 6.99275 20.9456C6.99922 20.9459 7.00879 20.9463 7.02132 20.9468C7.04636 20.9479 7.08321 20.9496 7.13058 20.9519C7.22531 20.9565 7.36216 20.9637 7.53096 20.9739C7.86848 20.9942 8.33405 21.0266 8.84613 21.0749C9.86545 21.1709 11.0855 21.3312 11.8416 21.5895L11.7554 21.8419C11.033 21.595 9.84266 21.4366 8.82111 21.3404C8.31277 21.2925 7.85031 21.2603 7.51491 21.2401C7.34725 21.23 7.21142 21.2228 7.11759 21.2183C7.07067 21.216 7.03426 21.2143 7.00962 21.2132C6.9973 21.2127 6.98793 21.2123 6.98165 21.212C6.97852 21.2119 6.97616 21.2118 6.97459 21.2118C6.97381 21.2117 6.97323 21.2117 6.97284 21.2117C6.97265 21.2117 6.97251 21.2117 6.97242 21.2117C6.97238 21.2117 6.97235 21.2117 6.97233 21.2117C6.97231 21.2117 6.9723 21.2117 6.97757 21.0784ZM11.8414 21.5895C12.5912 21.8445 13.0654 22.1029 13.3547 22.3011C13.4995 22.4002 13.5979 22.4842 13.6614 22.5451C13.6931 22.5756 13.7161 22.6002 13.7318 22.6181C13.7396 22.627 13.7455 22.6343 13.7499 22.6397C13.752 22.6424 13.7538 22.6446 13.7551 22.6464C13.7558 22.6473 13.7564 22.648 13.7568 22.6487C13.7571 22.649 13.7573 22.6493 13.7575 22.6495C13.7576 22.6497 13.7577 22.6498 13.7578 22.6499C13.7578 22.65 13.7579 22.65 13.7579 22.6501C13.7579 22.6502 13.758 22.6502 13.6503 22.7288C13.5426 22.8074 13.5426 22.8075 13.5427 22.8075C13.5427 22.8075 13.5427 22.8076 13.5428 22.8077C13.5428 22.8077 13.5429 22.8078 13.5429 22.8079C13.543 22.808 13.5431 22.8081 13.5432 22.8082C13.5433 22.8084 13.5433 22.8084 13.5432 22.8083C13.5431 22.8081 13.5426 22.8074 13.5416 22.8062C13.5398 22.8039 13.5363 22.7997 13.5311 22.7937C13.5206 22.7818 13.503 22.7627 13.4767 22.7375C13.4243 22.6872 13.3373 22.6123 13.2041 22.5211C12.9376 22.3386 12.4859 22.0904 11.7556 21.8419L11.8414 21.5895Z" fill="black" mask="url(#path-7-outside-1_3_242)"/>
</g>
</g>
</g>
</g>
</g>
</g>
<path d="M1.99414 23.8266C1.99414 23.3927 2.34792 23.04 2.78433 23.04H13.7108C14.1457 23.04 14.4991 23.3928 14.4991 23.8266V24.9737C14.4991 25.4076 14.1456 25.759 13.7108 25.759H2.78433C2.34809 25.759 1.99414 25.4078 1.99414 24.9737V23.8266Z" fill="url(#paint7_linear_3_242)" stroke="black" stroke-width="0.1"/>
<g opacity="0.600006">
<g opacity="0.600006">
<g opacity="0.600006">
<g opacity="0.600006">
<g opacity="0.600006">
<path opacity="0.600006" d="M14.4992 24.9961V25.2004L14.3788 25.0356L14.3788 25.0356L14.3788 25.0355L14.3787 25.0355L14.3787 25.0354L14.3783 25.0349L14.3753 25.0311C14.3724 25.0274 14.3676 25.0216 14.3608 25.0138C14.3471 24.9982 14.3252 24.9746 14.2934 24.9441C14.2298 24.8831 14.1265 24.7945 13.9703 24.6875C13.6579 24.4736 13.1337 24.1862 12.2918 23.8995L12.2918 23.8995C11.454 23.6141 9.93714 23.432 8.62242 23.3216C7.96657 23.2665 7.3635 23.2294 6.92436 23.2061C6.70481 23.1944 6.52628 23.1862 6.40267 23.1809L6.2602 23.1751L6.22312 23.1737L6.21369 23.1734L6.21132 23.1733L6.21074 23.1733L6.21059 23.1733L6.21286 23.1066L6.21055 23.1733L6.21286 23.04H13.7109C14.1458 23.04 14.4992 23.3928 14.4992 23.8266V24.9961Z" fill="url(#paint8_linear_3_242)" stroke="black" stroke-width="0.1"/>
</g>
</g>
</g>
</g>
</g>
<path d="M0.933303 25.8407C0.933303 25.3385 1.34226 24.929 1.84576 24.929H14.6473C15.1527 24.929 15.56 25.3386 15.56 25.8407V29.7599C15.56 30.2619 15.1525 30.6693 14.6473 30.6693H1.84576C1.34247 30.6693 0.933303 30.262 0.933303 29.7599V25.8407Z" fill="url(#paint9_linear_3_242)" stroke="black" stroke-width="0.1"/>
<g opacity="0.600006">
<g opacity="0.600006">
<g opacity="0.600006">
<g opacity="0.600006">
<g opacity="0.600006">
<path opacity="0.600006" d="M15.56 27.2106V27.4151L15.4396 27.2501L15.4396 27.25L15.4396 27.25L15.4395 27.2499L15.4395 27.2499L15.4389 27.2491L15.4352 27.2444C15.4317 27.24 15.426 27.2331 15.4179 27.2238C15.4017 27.2053 15.3758 27.1773 15.3383 27.1413C15.2633 27.0694 15.1418 26.9651 14.9584 26.8394C14.5915 26.5881 13.9766 26.2509 12.9896 25.9148C12.0065 25.58 10.3148 25.3665 8.86221 25.237C8.1373 25.1723 7.47423 25.1288 6.99236 25.1014C6.75144 25.0876 6.55586 25.078 6.42055 25.0717C6.35289 25.0686 6.3003 25.0664 6.26465 25.0649L6.22411 25.0632L6.2138 25.0628L6.21121 25.0627L6.21057 25.0627L6.21041 25.0627L6.21286 24.9961L6.21037 25.0627L6.21286 24.9294H14.6473C15.1527 24.9294 15.56 25.3387 15.56 25.8405V27.2106Z" fill="url(#paint10_linear_3_242)" stroke="black" stroke-width="0.1"/>
</g>
</g>
</g>
</g>
</g>
<defs>
<linearGradient id="paint0_linear_3_242" x1="14.1295" y1="3.70481" x2="2.36229" y2="3.70481" gradientUnits="userSpaceOnUse">
<stop stop-color="white"/>
<stop offset="0.0498493" stop-color="white"/>
<stop offset="0.921951" stop-color="#B9B9B9"/>
<stop offset="0.92209" stop-color="#B9B9B9"/>
<stop offset="1" stop-color="#999999"/>
</linearGradient>
<linearGradient id="paint1_linear_3_242" x1="12.6297" y1="13.9823" x2="5.51752" y2="13.9823" gradientUnits="userSpaceOnUse">
<stop stop-color="white"/>
<stop offset="0.160976" stop-color="white"/>
<stop offset="0.200539" stop-color="white"/>
<stop offset="0.892683" stop-color="#B9B9B9"/>
<stop offset="0.892875" stop-color="#B9B9B9"/>
<stop offset="1" stop-color="#A3A3A3"/>
</linearGradient>
<linearGradient id="paint2_linear_3_242" x1="13.3254" y1="20.3971" x2="3.57589" y2="20.3971" gradientUnits="userSpaceOnUse">
<stop stop-color="white"/>
<stop offset="0.0498493" stop-color="white"/>
<stop offset="0.921951" stop-color="#B9B9B9"/>
<stop offset="0.92209" stop-color="#B9B9B9"/>
<stop offset="1" stop-color="#999999"/>
</linearGradient>
<linearGradient id="paint3_linear_3_242" x1="13.4623" y1="20.1335" x2="8.95128" y2="20.1335" gradientUnits="userSpaceOnUse">
<stop stop-color="white"/>
<stop offset="0.0540694" stop-color="white"/>
<stop offset="1" stop-color="white"/>
</linearGradient>
<linearGradient id="paint4_linear_3_242" x1="12.9928" y1="6.60939" x2="5.29034" y2="6.60939" gradientUnits="userSpaceOnUse">
<stop stop-color="white"/>
<stop offset="0.160976" stop-color="white"/>
<stop offset="0.200539" stop-color="white"/>
<stop offset="0.892683" stop-color="#B9B9B9"/>
<stop offset="0.892875" stop-color="#B9B9B9"/>
<stop offset="1" stop-color="#A3A3A3"/>
</linearGradient>
<linearGradient id="paint5_linear_3_242" x1="14.1053" y1="22.2072" x2="2.85973" y2="22.2072" gradientUnits="userSpaceOnUse">
<stop stop-color="white"/>
<stop offset="0.0498493" stop-color="white"/>
<stop offset="0.921951" stop-color="#B9B9B9"/>
<stop offset="0.92209" stop-color="#B9B9B9"/>
<stop offset="1" stop-color="#999999"/>
</linearGradient>
<linearGradient id="paint6_linear_3_242" x1="14.2134" y1="21.9036" x2="9.50576" y2="21.9036" gradientUnits="userSpaceOnUse">
<stop stop-color="white"/>
<stop offset="0.0540694" stop-color="white"/>
<stop offset="1" stop-color="white"/>
</linearGradient>
<linearGradient id="paint7_linear_3_242" x1="14.9533" y1="24.3995" x2="2.07944" y2="24.3995" gradientUnits="userSpaceOnUse">
<stop stop-color="white"/>
<stop offset="0.0498493" stop-color="white"/>
<stop offset="0.921951" stop-color="#B9B9B9"/>
<stop offset="0.92209" stop-color="#B9B9B9"/>
<stop offset="1" stop-color="#999999"/>
</linearGradient>
<linearGradient id="paint8_linear_3_242" x1="15.1444" y1="24.0513" x2="8.92086" y2="24.0513" gradientUnits="userSpaceOnUse">
<stop stop-color="white"/>
<stop offset="0.0540694" stop-color="white"/>
<stop offset="1" stop-color="white"/>
</linearGradient>
<linearGradient id="paint9_linear_3_242" x1="16.1036" y1="27.7992" x2="1.02211" y2="27.7992" gradientUnits="userSpaceOnUse">
<stop stop-color="white"/>
<stop offset="0.0498493" stop-color="white"/>
<stop offset="0.921951" stop-color="#B9B9B9"/>
<stop offset="0.92209" stop-color="#B9B9B9"/>
<stop offset="1" stop-color="#999999"/>
</linearGradient>
<linearGradient id="paint10_linear_3_242" x1="16.2561" y1="26.1033" x2="9.21392" y2="26.1033" gradientUnits="userSpaceOnUse">
<stop stop-color="white"/>
<stop offset="0.0540694" stop-color="white"/>
<stop offset="1" stop-color="white"/>
</linearGradient>
</defs>
</svg>
