<svg viewBox="0 0 17 39" fill="none" xmlns="http://www.w3.org/2000/svg">
<path d="M5.83944 3.78982L5.80809 3.73098C5.80808 3.73099 5.80807 3.731 5.80806 3.731C5.45236 3.92052 5.22298 4.13676 5.03034 4.31837C4.99918 4.34775 4.96897 4.37622 4.93935 4.40353C4.72702 4.59928 4.54681 4.73364 4.24824 4.74613L4.24822 4.74613C4.1096 4.75197 3.95558 4.7128 3.78893 4.64653C3.62257 4.58037 3.44959 4.48974 3.27271 4.39698L3.2727 4.39698L3.26963 4.39537C3.07398 4.29281 2.87342 4.18768 2.68043 4.11742C2.48679 4.04692 2.29211 4.00813 2.11053 4.04754L2.11052 4.04754C2.06202 4.05807 2.01964 4.07859 1.98628 4.11097C1.95288 4.14339 1.93226 4.18409 1.9215 4.2289C1.90067 4.31563 1.91547 4.42303 1.94893 4.53944C2.01644 4.77433 2.1723 5.08574 2.36559 5.43364C2.49213 5.66141 2.63526 5.90587 2.78279 6.15785C3.09008 6.68268 3.4165 7.24019 3.65207 7.74772C3.99865 8.4944 4.21957 9.36996 4.35384 10.061C4.42089 10.406 4.46616 10.7042 4.49467 10.916C4.50892 11.0219 4.51897 11.1061 4.52545 11.1639L4.53257 11.2299L4.53427 11.2468L4.53468 11.251L4.53478 11.252L4.5348 11.2523L4.5348 11.2523L4.60118 11.2461L4.5348 11.2523L4.54001 11.308L4.59576 11.3126L8.55234 11.6354L8.56325 11.6363L8.56318 11.6354L12.5203 11.3126L12.5761 11.308L12.5813 11.2523L12.5813 11.2522L12.5813 11.252L12.5814 11.251L12.5818 11.2467L12.5835 11.2298L12.5906 11.1638C12.597 11.1061 12.6071 11.0219 12.6213 10.916C12.6497 10.7042 12.6949 10.406 12.7619 10.0609C12.896 9.36995 13.1169 8.49441 13.4637 7.74774L13.4637 7.74771C13.6993 7.23997 14.0258 6.6822 14.3331 6.15718C14.4804 5.90543 14.6234 5.6612 14.7498 5.43364C14.943 5.08574 15.0989 4.77433 15.1665 4.53946C15.2 4.42305 15.2148 4.31567 15.1941 4.22896C15.1833 4.18415 15.1628 4.14345 15.1294 4.11101C15.0961 4.07861 15.0538 4.05808 15.0053 4.04754L15.0052 4.04753C14.8235 4.00813 14.6287 4.04692 14.435 4.11742C14.2415 4.18784 14.0405 4.29329 13.8446 4.39607L13.8428 4.39699C13.6659 4.48974 13.4929 4.58037 13.3266 4.64653C13.1599 4.7128 13.0059 4.75197 12.8673 4.74613C12.5687 4.73364 12.3886 4.59929 12.1763 4.40354C12.1467 4.37625 12.1165 4.34779 12.0854 4.31843C11.8928 4.13681 11.6635 3.92053 11.3077 3.731C10.8293 3.47587 10.2769 3.24932 9.90415 3.10637C9.98112 2.92796 10.0243 2.73134 10.0243 2.52482C10.0243 1.71451 9.36748 1.05833 8.55776 1.05833C7.74776 1.05833 7.09127 1.71452 7.09127 2.52482C7.09127 2.73132 7.13438 2.92795 7.21156 3.10638C7.22042 3.12686 7.22973 3.1471 7.23947 3.16708C6.86747 3.30955 6.31577 3.53566 5.83944 3.78982ZM5.83944 3.78982C5.49213 3.97486 5.26926 4.18487 5.0767 4.36632C4.82136 4.60693 4.6193 4.79733 4.25102 4.81274M5.83944 3.78982L4.25102 4.81274M4.25102 4.81274C3.94644 4.82556 3.5941 4.6408 3.24176 4.45603L3.24175 4.45602L4.25102 4.81274Z" fill="url(#paint0_linear_2_2063)" stroke="black" stroke-width="0.1"/>
<path d="M6.09174 12.3289L6.09872 12.2701H6.15794H10.9573H11.0165L11.0235 12.3289L12.8376 27.5995L12.8465 27.6741H12.7714H4.34409H4.26903L4.27788 27.5995L6.09174 12.3289Z" fill="url(#paint1_linear_2_2063)" stroke="black" stroke-width="0.1"/>
<path d="M3.28203 26.6224C3.28203 26.2525 3.58491 25.9499 3.95622 25.9499H13.1573C13.5306 25.9499 13.834 26.2523 13.834 26.6224V27.5877C13.834 27.9601 13.5305 28.2606 13.1573 28.2606H3.95622C3.58503 28.2606 3.28203 27.9599 3.28203 27.5877V26.6224Z" fill="url(#paint2_linear_2_2063)" stroke="black" stroke-width="0.1"/>
<g opacity="0.600006">
<g opacity="0.600006">
<g opacity="0.600006">
<g opacity="0.600006">
<g opacity="0.600006">
<g opacity="0.600006">
<mask id="path-4-outside-1_2_2063" maskUnits="userSpaceOnUse" x="2.01536" y="24.9407" width="8" height="4" fill="black">
<rect fill="white" x="2.01536" y="24.9407" width="8" height="4"/>
<path d="M3.34869 27.6074V26.6224C3.34869 26.2895 3.62161 26.0165 3.95622 26.0165H9.96901C9.96901 26.0165 6.55882 26.1443 5.13443 26.6312C3.7065 27.1164 3.34869 27.6074 3.34869 27.6074Z"/>
</mask>
<path d="M3.34869 27.6074V26.6224C3.34869 26.2895 3.62161 26.0165 3.95622 26.0165H9.96901C9.96901 26.0165 6.55882 26.1443 5.13443 26.6312C3.7065 27.1164 3.34869 27.6074 3.34869 27.6074Z" fill="url(#paint3_linear_2_2063)"/>
<path d="M9.96901 26.0165V25.8832L9.974 26.1498L9.96901 26.0165ZM5.13443 26.6312L5.17756 26.7573L5.17734 26.7574L5.13443 26.6312ZM3.21536 27.6074V26.6224H3.48203V27.6074H3.21536ZM3.21536 26.6224C3.21536 26.2156 3.54821 25.8832 3.95622 25.8832V26.1499C3.69502 26.1499 3.48203 26.3633 3.48203 26.6224H3.21536ZM3.95622 25.8832H9.96901V26.1499H3.95622V25.8832ZM9.96901 26.0165C9.974 26.1498 9.97399 26.1498 9.97397 26.1498C9.97395 26.1498 9.97392 26.1498 9.97387 26.1498C9.97378 26.1498 9.97364 26.1498 9.97344 26.1498C9.97305 26.1498 9.97245 26.1498 9.97165 26.1499C9.97005 26.1499 9.96764 26.15 9.96444 26.1501C9.95804 26.1504 9.94847 26.1508 9.93591 26.1513C9.91078 26.1524 9.87365 26.154 9.82586 26.1562C9.73026 26.1606 9.59197 26.1675 9.42153 26.1772C9.08059 26.1967 8.6113 26.2278 8.09782 26.2741C7.06551 26.367 5.87238 26.5198 5.17756 26.7573L5.09131 26.505C5.82088 26.2556 7.04503 26.1011 8.07391 26.0085C8.59102 25.9619 9.06331 25.9306 9.40629 25.911C9.57781 25.9012 9.71707 25.8942 9.81353 25.8898C9.86176 25.8876 9.8993 25.8859 9.92481 25.8849C9.93757 25.8843 9.94733 25.884 9.95392 25.8837C9.95721 25.8836 9.95972 25.8835 9.96141 25.8834C9.96225 25.8834 9.96289 25.8833 9.96333 25.8833C9.96355 25.8833 9.96371 25.8833 9.96383 25.8833C9.96388 25.8833 9.96393 25.8833 9.96396 25.8833C9.96399 25.8833 9.96402 25.8833 9.96901 26.0165ZM5.17734 26.7574C4.47306 26.9967 4.03787 27.2357 3.7814 27.4113C3.65318 27.499 3.56957 27.571 3.51924 27.6193C3.49407 27.6435 3.4772 27.6617 3.46722 27.6731C3.46222 27.6789 3.45894 27.6829 3.45721 27.685C3.45634 27.6861 3.45586 27.6867 3.45574 27.6869C3.45568 27.687 3.45571 27.6869 3.45583 27.6868C3.45589 27.6867 3.45597 27.6866 3.45608 27.6864C3.45613 27.6864 3.45619 27.6863 3.45625 27.6862C3.45628 27.6862 3.45633 27.6861 3.45635 27.6861C3.4564 27.686 3.45645 27.6859 3.34869 27.6074C3.24094 27.5289 3.24099 27.5288 3.24105 27.5287C3.24107 27.5287 3.24113 27.5286 3.24117 27.5286C3.24126 27.5284 3.24135 27.5283 3.24144 27.5282C3.24163 27.5279 3.24185 27.5276 3.24208 27.5273C3.24256 27.5267 3.24313 27.5259 3.24379 27.5251C3.24511 27.5233 3.24681 27.5212 3.24891 27.5185C3.25312 27.5133 3.25892 27.5062 3.2665 27.4976C3.28166 27.4802 3.3039 27.4564 3.33458 27.4269C3.39597 27.368 3.49105 27.2869 3.63077 27.1912C3.91019 27 4.36788 26.7508 5.09153 26.5049L5.17734 26.7574Z" fill="black" mask="url(#path-4-outside-1_2_2063)"/>
</g>
</g>
</g>
</g>
</g>
</g>
<path d="M3.92869 11.7757C3.92869 11.4269 4.21018 11.1454 4.55895 11.1454H12.5589C12.9077 11.1454 13.1892 11.4269 13.1892 11.7757C13.1892 12.1225 12.9075 12.4035 12.5589 12.4035H4.55895C4.21039 12.4035 3.92869 12.1225 3.92869 11.7757Z" fill="url(#paint4_linear_2_2063)" stroke="black" stroke-width="0.1"/>
<path d="M2.48323 28.5604C2.48323 28.1394 2.82684 27.7956 3.25131 27.7956H13.8623C14.2888 27.7956 14.6326 28.1393 14.6326 28.5604V29.675C14.6326 30.098 14.2887 30.4393 13.8623 30.4393H3.25131C2.82701 30.4393 2.48323 30.0978 2.48323 29.675V28.5604Z" fill="url(#paint5_linear_2_2063)" stroke="black" stroke-width="0.1"/>
<g opacity="0.600006">
<g opacity="0.600006">
<g opacity="0.600006">
<g opacity="0.600006">
<g opacity="0.600006">
<path opacity="0.600006" d="M2.60338 29.737L2.48295 29.9025V29.6976V28.5603C2.48295 28.139 2.82692 27.7958 3.25131 27.7958H9.96906L9.97169 27.9291L9.96906 27.8625L9.97166 27.9291L9.97154 27.9291L9.97105 27.9291L9.96906 27.9292L9.96113 27.9295L9.92985 27.9309L9.80941 27.9365C9.7048 27.9416 9.55346 27.9495 9.36669 27.9608C8.99311 27.9833 8.47795 28.0192 7.91157 28.0726C6.77636 28.1796 5.44359 28.3563 4.62983 28.6341L4.62975 28.6341C3.8116 28.9123 3.30256 29.1915 2.99939 29.3992C2.84781 29.5031 2.74765 29.5891 2.68601 29.6484C2.65519 29.678 2.63398 29.7009 2.62077 29.716C2.61417 29.7236 2.60956 29.7292 2.60675 29.7327L2.60386 29.7364L2.60339 29.737L2.60338 29.737C2.60336 29.7371 2.60335 29.7371 2.60338 29.737Z" fill="url(#paint6_linear_2_2063)" stroke="black" stroke-width="0.1"/>
</g>
</g>
</g>
</g>
</g>
<path d="M1.61345 30.9182C1.61345 30.4406 2.00278 30.0508 2.48224 30.0508H14.6314C15.1132 30.0508 15.5027 30.4405 15.5027 30.9182V32.1939C15.5027 32.6721 15.113 33.0597 14.6314 33.0597H2.48224C2.00297 33.0597 1.61345 32.672 1.61345 32.1939V30.9182Z" fill="url(#paint7_linear_2_2063)" stroke="black" stroke-width="0.1"/>
<g opacity="0.600006">
<g opacity="0.600006">
<g opacity="0.600006">
<g opacity="0.600006">
<g opacity="0.600006">
<g opacity="0.600006">
<mask id="path-10-outside-2_2_2063" maskUnits="userSpaceOnUse" x="0.346781" y="29.5521" width="10.6667" height="4" fill="black">
<rect fill="white" x="0.346781" y="29.5521" width="10.6667" height="4"/>
<path d="M1.68011 32.2187V30.9182C1.68011 30.4775 2.03928 30.1178 2.48224 30.1178H10.8193C10.8193 30.1178 5.91917 30.2881 4.036 30.9292C2.15282 31.5703 1.68011 32.2187 1.68011 32.2187Z"/>
</mask>
<path d="M1.68011 32.2187V30.9182C1.68011 30.4775 2.03928 30.1178 2.48224 30.1178H10.8193C10.8193 30.1178 5.91917 30.2881 4.036 30.9292C2.15282 31.5703 1.68011 32.2187 1.68011 32.2187Z" fill="url(#paint8_linear_2_2063)"/>
<path d="M10.8193 30.1178V29.9844L10.8239 30.251L10.8193 30.1178ZM1.54678 32.2187V30.9182H1.81345V32.2187H1.54678ZM1.54678 30.9182C1.54678 30.4037 1.96576 29.9844 2.48224 29.9844V30.2511C2.1128 30.2511 1.81345 30.5512 1.81345 30.9182H1.54678ZM2.48224 29.9844H10.8193V30.2511H2.48224V29.9844ZM10.8193 30.1178C10.8239 30.251 10.8239 30.251 10.8238 30.251C10.8238 30.251 10.8238 30.251 10.8237 30.251C10.8236 30.251 10.8233 30.251 10.8231 30.251C10.8225 30.2511 10.8216 30.2511 10.8204 30.2511C10.8181 30.2512 10.8146 30.2513 10.81 30.2515C10.8008 30.2518 10.787 30.2524 10.7689 30.2531C10.7327 30.2545 10.6794 30.2566 10.6107 30.2595C10.4735 30.2654 10.2752 30.2746 10.0313 30.2875C9.5434 30.3135 8.87346 30.3547 8.14498 30.4159C6.68195 30.5388 5.00254 30.741 4.07897 31.0554L3.99303 30.8029C4.95263 30.4763 6.66485 30.2727 8.12265 30.1502C8.85458 30.0887 9.52736 30.0473 10.0171 30.0212C10.262 30.0082 10.4612 29.999 10.5993 29.9931C10.6683 29.9901 10.7221 29.988 10.7586 29.9866C10.7769 29.9859 10.7908 29.9854 10.8003 29.985C10.805 29.9848 10.8085 29.9847 10.8109 29.9846C10.8121 29.9846 10.813 29.9846 10.8137 29.9845C10.814 29.9845 10.8142 29.9845 10.8144 29.9845C10.8144 29.9845 10.8145 29.9845 10.8145 29.9845C10.8146 29.9845 10.8146 29.9845 10.8193 30.1178ZM4.07897 31.0554C3.14707 31.3726 2.56934 31.6899 2.22723 31.9243C2.05619 32.0415 1.94397 32.138 1.87575 32.2036C1.84163 32.2363 1.81849 32.2614 1.80447 32.2774C1.79745 32.2854 1.79272 32.2912 1.79003 32.2945C1.78868 32.2962 1.78785 32.2973 1.7875 32.2978C1.78732 32.298 1.78727 32.2981 1.78733 32.298C1.78736 32.2979 1.78742 32.2979 1.78751 32.2977C1.78755 32.2977 1.7876 32.2976 1.78766 32.2975C1.78769 32.2975 1.78774 32.2974 1.78776 32.2974C1.78781 32.2973 1.78786 32.2973 1.68011 32.2187C1.57237 32.1402 1.57243 32.1401 1.57249 32.14C1.57251 32.14 1.57257 32.1399 1.57261 32.1398C1.5727 32.1397 1.57279 32.1396 1.5729 32.1395C1.5731 32.1392 1.57334 32.1389 1.5736 32.1385C1.57413 32.1378 1.57478 32.1369 1.57556 32.1359C1.57711 32.1339 1.57916 32.1312 1.58174 32.128C1.58689 32.1216 1.59415 32.1128 1.60374 32.1018C1.62293 32.0799 1.65143 32.0493 1.69105 32.0112C1.77031 31.9351 1.89397 31.8294 2.0765 31.7044C2.44154 31.4543 3.04175 31.1268 3.99303 30.8029L4.07897 31.0554Z" fill="black" mask="url(#path-10-outside-2_2_2063)"/>
</g>
</g>
</g>
</g>
</g>
</g>
<path d="M0.433303 33.1572C0.433303 32.6032 0.882938 32.152 1.44074 32.152H15.6748C16.2309 32.152 16.6822 32.6031 16.6822 33.1572V37.5153C16.6822 38.0698 16.2308 38.5192 15.6748 38.5192H1.44074C0.883078 38.5192 0.433303 38.0697 0.433303 37.5153V33.1572Z" fill="url(#paint9_linear_2_2063)" stroke="black" stroke-width="0.1"/>
<g opacity="0.600006">
<g opacity="0.600006">
<g opacity="0.600006">
<g opacity="0.600006">
<g opacity="0.600006">
<path opacity="0.600006" d="M0.554022 34.7205L0.433608 34.8856V34.681V33.1573C0.433608 32.6036 0.883216 32.1521 1.44077 32.1521H10.8193L10.8217 32.2853L10.8193 32.2187L10.8217 32.2853L10.8215 32.2853L10.8208 32.2854L10.8179 32.2855L10.8065 32.2859L10.7614 32.2878C10.7217 32.2894 10.6632 32.2919 10.588 32.2954C10.4375 32.3023 10.22 32.313 9.95207 32.3283C9.4162 32.3587 8.67881 32.4072 7.87265 32.4791C6.25762 32.6231 4.37562 32.8605 3.28158 33.2332L3.28157 33.2332C2.18367 33.607 1.49934 33.9822 1.0908 34.2621C0.886539 34.4021 0.75119 34.5183 0.66752 34.5986C0.625682 34.6388 0.596752 34.67 0.578577 34.6908C0.569488 34.7012 0.563087 34.709 0.559105 34.7139L0.55491 34.7193L0.554109 34.7204C0.554075 34.7204 0.554051 34.7204 0.554036 34.7205C0.554024 34.7205 0.554019 34.7205 0.554022 34.7205Z" fill="url(#paint10_linear_2_2063)" stroke="black" stroke-width="0.1"/>
</g>
</g>
</g>
</g>
</g>
<defs>
<linearGradient id="paint0_linear_2_2063" x1="1.97857" y1="6.34694" x2="15.1368" y2="6.34694" gradientUnits="userSpaceOnUse">
<stop stop-color="white"/>
<stop offset="0.0498493" stop-color="white"/>
<stop offset="0.921951" stop-color="#B9B9B9"/>
<stop offset="0.92209" stop-color="#B9B9B9"/>
<stop offset="1" stop-color="#999999"/>
</linearGradient>
<linearGradient id="paint1_linear_2_2063" x1="3.68461" y1="19.9721" x2="11.5926" y2="19.9721" gradientUnits="userSpaceOnUse">
<stop stop-color="white"/>
<stop offset="0.160976" stop-color="white"/>
<stop offset="0.200539" stop-color="white"/>
<stop offset="0.892683" stop-color="#B9B9B9"/>
<stop offset="0.892875" stop-color="#B9B9B9"/>
<stop offset="1" stop-color="#A3A3A3"/>
</linearGradient>
<linearGradient id="paint2_linear_2_2063" x1="2.91004" y1="27.1052" x2="13.7515" y2="27.1052" gradientUnits="userSpaceOnUse">
<stop stop-color="white"/>
<stop offset="0.0498493" stop-color="white"/>
<stop offset="0.921951" stop-color="#B9B9B9"/>
<stop offset="0.92209" stop-color="#B9B9B9"/>
<stop offset="1" stop-color="#999999"/>
</linearGradient>
<linearGradient id="paint3_linear_2_2063" x1="2.75785" y1="26.812" x2="7.77421" y2="26.812" gradientUnits="userSpaceOnUse">
<stop stop-color="white"/>
<stop offset="0.0540694" stop-color="white"/>
<stop offset="1" stop-color="white"/>
</linearGradient>
<linearGradient id="paint4_linear_2_2063" x1="3.28116" y1="11.7744" x2="11.8457" y2="11.7744" gradientUnits="userSpaceOnUse">
<stop stop-color="white"/>
<stop offset="0.160976" stop-color="white"/>
<stop offset="0.200539" stop-color="white"/>
<stop offset="0.892683" stop-color="#B9B9B9"/>
<stop offset="0.892875" stop-color="#B9B9B9"/>
<stop offset="1" stop-color="#A3A3A3"/>
</linearGradient>
<linearGradient id="paint5_linear_2_2063" x1="2.04388" y1="29.1176" x2="14.5477" y2="29.1176" gradientUnits="userSpaceOnUse">
<stop stop-color="white"/>
<stop offset="0.0498493" stop-color="white"/>
<stop offset="0.921951" stop-color="#B9B9B9"/>
<stop offset="0.92209" stop-color="#B9B9B9"/>
<stop offset="1" stop-color="#999999"/>
</linearGradient>
<linearGradient id="paint6_linear_2_2063" x1="1.92367" y1="28.7801" x2="7.15802" y2="28.7801" gradientUnits="userSpaceOnUse">
<stop stop-color="white"/>
<stop offset="0.0540694" stop-color="white"/>
<stop offset="1" stop-color="white"/>
</linearGradient>
<linearGradient id="paint7_linear_2_2063" x1="1.10093" y1="31.5553" x2="15.415" y2="31.5553" gradientUnits="userSpaceOnUse">
<stop stop-color="white"/>
<stop offset="0.0498493" stop-color="white"/>
<stop offset="0.921951" stop-color="#B9B9B9"/>
<stop offset="0.92209" stop-color="#B9B9B9"/>
<stop offset="1" stop-color="#999999"/>
</linearGradient>
<linearGradient id="paint8_linear_2_2063" x1="0.888509" y1="31.1681" x2="7.80829" y2="31.1681" gradientUnits="userSpaceOnUse">
<stop stop-color="white"/>
<stop offset="0.0540694" stop-color="white"/>
<stop offset="1" stop-color="white"/>
</linearGradient>
<linearGradient id="paint9_linear_2_2063" x1="-0.178421" y1="35.3355" x2="16.591" y2="35.3355" gradientUnits="userSpaceOnUse">
<stop stop-color="white"/>
<stop offset="0.0498493" stop-color="white"/>
<stop offset="0.921951" stop-color="#B9B9B9"/>
<stop offset="0.92209" stop-color="#B9B9B9"/>
<stop offset="1" stop-color="#999999"/>
</linearGradient>
<linearGradient id="paint10_linear_2_2063" x1="-0.348167" y1="33.4499" x2="7.48217" y2="33.4499" gradientUnits="userSpaceOnUse">
<stop stop-color="white"/>
<stop offset="0.0540694" stop-color="white"/>
<stop offset="1" stop-color="white"/>
</linearGradient>
</defs>
</svg>
