<svg viewBox="0 0 17 45" fill="none" xmlns="http://www.w3.org/2000/svg">
<mask id="path-1-outside-1_2_2062" maskUnits="userSpaceOnUse" x="0.955851" y="0.494106" width="14.6667" height="18.6667" fill="black">
<rect fill="white" x="0.955851" y="0.494106" width="14.6667" height="18.6667"/>
<path d="M6.76054 1.61139C6.61453 2.00058 7.66064 3.63075 7.66064 3.63075C7.66064 3.63075 6.39592 2.56035 6.03075 2.75494C5.66585 2.94953 5.78757 6.13673 6.12818 6.25846C6.46852 6.37991 7.66064 5.35808 7.66064 5.35808C7.66064 5.35808 6.59024 6.81823 6.68794 7.15884C6.78483 7.49917 7.41775 7.47515 7.41775 7.47515C7.41775 7.47515 7.19886 7.7912 7.19886 8.03464V8.39955C7.19886 8.39955 2.57607 9.43365 2.32089 10.346C2.06488 11.2581 3.41504 13.3021 4.36454 14.5428C5.31323 15.7835 5.0212 17.6086 5.0212 17.6086L8.68248 17.8274L12.3446 17.6086C12.3446 17.6086 12.0525 15.7835 13.0012 14.5428C13.9504 13.3021 15.3006 11.2581 15.0451 10.346C14.7897 9.43365 10.1672 8.39955 10.1672 8.39955V8.03464C10.1672 7.7912 9.94775 7.47515 9.94775 7.47515C9.94775 7.47515 10.5807 7.49917 10.6778 7.15884C10.7752 6.81823 9.70485 5.35808 9.70485 5.35808C9.70485 5.35808 10.897 6.37991 11.2373 6.25846C11.5785 6.13673 11.6996 2.94953 11.3347 2.75494C10.9696 2.56035 9.70485 3.63075 9.70485 3.63075C9.70485 3.63075 10.751 2.00058 10.6052 1.61139C10.4587 1.2222 8.68248 1.12504 8.68248 1.12504C8.68248 1.12504 6.90655 1.2222 6.76054 1.61139Z"/>
</mask>
<path d="M6.76054 1.61139C6.61453 2.00058 7.66064 3.63075 7.66064 3.63075C7.66064 3.63075 6.39592 2.56035 6.03075 2.75494C5.66585 2.94953 5.78757 6.13673 6.12818 6.25846C6.46852 6.37991 7.66064 5.35808 7.66064 5.35808C7.66064 5.35808 6.59024 6.81823 6.68794 7.15884C6.78483 7.49917 7.41775 7.47515 7.41775 7.47515C7.41775 7.47515 7.19886 7.7912 7.19886 8.03464V8.39955C7.19886 8.39955 2.57607 9.43365 2.32089 10.346C2.06488 11.2581 3.41504 13.3021 4.36454 14.5428C5.31323 15.7835 5.0212 17.6086 5.0212 17.6086L8.68248 17.8274L12.3446 17.6086C12.3446 17.6086 12.0525 15.7835 13.0012 14.5428C13.9504 13.3021 15.3006 11.2581 15.0451 10.346C14.7897 9.43365 10.1672 8.39955 10.1672 8.39955V8.03464C10.1672 7.7912 9.94775 7.47515 9.94775 7.47515C9.94775 7.47515 10.5807 7.49917 10.6778 7.15884C10.7752 6.81823 9.70485 5.35808 9.70485 5.35808C9.70485 5.35808 10.897 6.37991 11.2373 6.25846C11.5785 6.13673 11.6996 2.94953 11.3347 2.75494C10.9696 2.56035 9.70485 3.63075 9.70485 3.63075C9.70485 3.63075 10.751 2.00058 10.6052 1.61139C10.4587 1.2222 8.68248 1.12504 8.68248 1.12504C8.68248 1.12504 6.90655 1.2222 6.76054 1.61139Z" fill="url(#paint0_linear_2_2062)"/>
<path d="M7.66064 3.63075L7.77286 3.55874L7.57451 3.73252L7.66064 3.63075ZM6.03075 2.75494L5.96801 2.63729L5.96804 2.63727L6.03075 2.75494ZM6.12818 6.25846L6.08337 6.38403L6.08331 6.38401L6.12818 6.25846ZM7.66064 5.35808L7.57387 5.25684L7.76818 5.43691L7.66064 5.35808ZM6.68794 7.15884L6.81611 7.12207L6.81618 7.12233L6.68794 7.15884ZM7.41775 7.47515L7.41269 7.34192L7.67922 7.3318L7.52736 7.55107L7.41775 7.47515ZM7.19886 8.39955H7.33219V8.50636L7.22797 8.52967L7.19886 8.39955ZM2.32089 10.346L2.44929 10.3819L2.44926 10.3821L2.32089 10.346ZM4.36454 14.5428L4.47043 14.4618L4.47046 14.4618L4.36454 14.5428ZM5.0212 17.6086L5.01324 17.7416L4.86628 17.7329L4.88954 17.5875L5.0212 17.6086ZM8.68248 17.8274L8.69049 17.9615L8.67452 17.9605L8.68248 17.8274ZM12.3446 17.6086L12.4762 17.5875L12.4995 17.7329L12.3525 17.7416L12.3446 17.6086ZM13.0012 14.5428L12.8953 14.4618L12.8953 14.4618L13.0012 14.5428ZM15.0451 10.346L14.9168 10.382L14.9168 10.382L15.0451 10.346ZM10.1672 8.39955L10.1381 8.52967L10.0338 8.50635V8.39955H10.1672ZM9.94775 7.47515L9.83823 7.5512L9.68588 7.33179L9.9528 7.34192L9.94775 7.47515ZM10.6778 7.15884L10.5496 7.12223L10.5496 7.12217L10.6778 7.15884ZM9.70485 5.35808L9.59732 5.43691L9.79162 5.25684L9.70485 5.35808ZM11.2373 6.25846L11.1925 6.13288L11.1925 6.13288L11.2373 6.25846ZM11.3347 2.75494L11.3975 2.63727L11.3975 2.63729L11.3347 2.75494ZM9.70485 3.63075L9.79099 3.73252L9.59264 3.55874L9.70485 3.63075ZM10.6052 1.61139L10.73 1.5644L10.7301 1.56463L10.6052 1.61139ZM8.68248 1.12504L8.67515 0.991109L8.68976 0.991909L8.68248 1.12504ZM6.88538 1.65822C6.87997 1.67263 6.87515 1.71152 6.88855 1.78643C6.90121 1.85726 6.92716 1.94454 6.96448 2.04444C7.03899 2.24388 7.1529 2.47814 7.27349 2.70427C7.39367 2.92964 7.5186 3.14343 7.61366 3.30112C7.66114 3.37989 7.70106 3.44448 7.72906 3.4893C7.74306 3.51171 7.75407 3.52917 7.76156 3.54098C7.7653 3.54688 7.76816 3.55137 7.77006 3.55436C7.77101 3.55585 7.77173 3.55697 7.7722 3.55771C7.77243 3.55807 7.77261 3.55834 7.77272 3.55852C7.77277 3.5586 7.77281 3.55866 7.77284 3.5587C7.77285 3.55872 7.77285 3.55873 7.77286 3.55874C7.77286 3.55874 7.77286 3.55874 7.66064 3.63075C7.54843 3.70276 7.54842 3.70274 7.54841 3.70272C7.5484 3.70271 7.54838 3.70268 7.54836 3.70265C7.54832 3.70259 7.54826 3.7025 7.54819 3.70239C7.54805 3.70216 7.54784 3.70184 7.54757 3.70142C7.54704 3.70059 7.54626 3.69936 7.54523 3.69776C7.54319 3.69456 7.54019 3.68985 7.53631 3.68372C7.52854 3.67145 7.51722 3.65351 7.5029 3.63058C7.47426 3.58474 7.43359 3.51893 7.38528 3.43879C7.28875 3.27866 7.16128 3.06058 7.03819 2.82975C6.9155 2.59969 6.79525 2.35344 6.71468 2.13776C6.67446 2.03011 6.64264 1.92618 6.62604 1.83337C6.61018 1.74463 6.6046 1.64744 6.6357 1.56455L6.88538 1.65822ZM7.66064 3.63075C7.57451 3.73252 7.57451 3.73253 7.57452 3.73253C7.57451 3.73253 7.57451 3.73252 7.5745 3.73251C7.57447 3.73249 7.57443 3.73246 7.57437 3.73241C7.57425 3.7323 7.57405 3.73214 7.57378 3.73191C7.57323 3.73145 7.57239 3.73073 7.57125 3.72978C7.56898 3.72787 7.56554 3.72499 7.561 3.72121C7.55193 3.71365 7.53846 3.7025 7.52114 3.68831C7.48647 3.65994 7.4364 3.6195 7.37512 3.57152C7.25237 3.4754 7.0856 3.34977 6.90824 3.23052C6.72983 3.11056 6.5455 3.00034 6.38685 2.9322C6.30738 2.89807 6.23956 2.87678 6.18545 2.8685C6.12959 2.85995 6.10312 2.86746 6.09345 2.87261L5.96804 2.63727C6.04967 2.59377 6.1426 2.59217 6.2258 2.60491C6.31076 2.61791 6.40165 2.64833 6.4921 2.68718C6.67329 2.76501 6.87361 2.8859 7.05703 3.00922C7.2415 3.13325 7.41373 3.26306 7.53953 3.36156C7.60253 3.41089 7.65411 3.45255 7.69004 3.48196C7.70801 3.49666 7.72207 3.50831 7.7317 3.51634C7.73652 3.52035 7.74023 3.52346 7.74276 3.52559C7.74403 3.52665 7.745 3.52747 7.74568 3.52804C7.74601 3.52832 7.74627 3.52854 7.74646 3.5287C7.74655 3.52878 7.74662 3.52884 7.74668 3.52889C7.7467 3.52891 7.74673 3.52893 7.74674 3.52894C7.74677 3.52896 7.74678 3.52897 7.66064 3.63075ZM6.09349 2.87259C6.103 2.86751 6.09775 2.86614 6.08431 2.89015C6.07195 2.91223 6.05809 2.94608 6.04419 2.9937C6.01647 3.08872 5.99366 3.22073 5.97673 3.38132C5.943 3.70128 5.93458 4.11519 5.94816 4.52966C5.96173 4.94409 5.99712 5.35368 6.04944 5.66495C6.07571 5.82127 6.10545 5.94779 6.13688 6.03634C6.15269 6.08087 6.16718 6.11071 6.1788 6.12862C6.19226 6.14937 6.19251 6.13986 6.17305 6.1329L6.08331 6.38401C6.02127 6.36184 5.98066 6.31317 5.95509 6.27375C5.92769 6.23152 5.90499 6.18021 5.88558 6.12556C5.8466 6.01574 5.81379 5.87178 5.78646 5.70915C5.73156 5.38249 5.69546 4.9603 5.68164 4.53839C5.66782 4.11652 5.6761 3.68953 5.71153 3.35337C5.72918 3.18589 5.75406 3.03602 5.7882 2.91902C5.80523 2.86063 5.82584 2.80593 5.85162 2.75988C5.87632 2.71577 5.91288 2.66669 5.96801 2.63729L6.09349 2.87259ZM6.17299 6.13288C6.17882 6.13496 6.2038 6.13921 6.25936 6.1253C6.3118 6.11217 6.37685 6.0866 6.45223 6.04943C6.60266 5.97524 6.77701 5.86351 6.94517 5.74486C7.11249 5.62682 7.26985 5.50469 7.38564 5.41183C7.44345 5.36546 7.4907 5.32655 7.52342 5.2993C7.53978 5.28567 7.5525 5.27497 7.56107 5.26772C7.56536 5.26409 7.56861 5.26133 7.57077 5.25949C7.57184 5.25858 7.57265 5.25789 7.57317 5.25745C7.57343 5.25722 7.57362 5.25706 7.57373 5.25696C7.57379 5.25691 7.57383 5.25688 7.57386 5.25686C7.57387 5.25685 7.57387 5.25684 7.57388 5.25684C7.57388 5.25684 7.57387 5.25684 7.66064 5.35808C7.74742 5.45931 7.7474 5.45932 7.74738 5.45934C7.74737 5.45935 7.74735 5.45937 7.74732 5.45939C7.74727 5.45944 7.74721 5.45949 7.74712 5.45957C7.74695 5.45971 7.74671 5.45992 7.74639 5.46019C7.74576 5.46073 7.74485 5.46151 7.74366 5.46252C7.74128 5.46454 7.7378 5.4675 7.73327 5.47133C7.72422 5.47899 7.71099 5.49012 7.69409 5.5042C7.66029 5.53235 7.61175 5.57232 7.55248 5.61986C7.4341 5.71479 7.27216 5.84053 7.0989 5.96276C6.9265 6.08439 6.739 6.20534 6.57018 6.28859C6.48594 6.33014 6.40202 6.36447 6.32413 6.38398C6.24934 6.4027 6.16262 6.41232 6.08337 6.38403L6.17299 6.13288ZM7.66064 5.35808C7.76818 5.43691 7.76818 5.43691 7.76818 5.43691C7.76817 5.43692 7.76817 5.43693 7.76815 5.43694C7.76813 5.43698 7.76809 5.43703 7.76803 5.43711C7.76792 5.43726 7.76774 5.43751 7.7675 5.43784C7.76702 5.4385 7.76628 5.4395 7.76531 5.44084C7.76335 5.44352 7.76042 5.44755 7.75658 5.45284C7.74891 5.46342 7.73761 5.47906 7.72323 5.49913C7.69447 5.53928 7.65341 5.59712 7.60441 5.66764C7.50632 5.80879 7.37684 6.00009 7.25064 6.20152C7.124 6.40365 7.00266 6.6128 6.91944 6.79036C6.87772 6.87936 6.84737 6.9567 6.83026 7.01898C6.82174 7.04999 6.81722 7.07475 6.81563 7.09366C6.81485 7.10295 6.81485 7.10995 6.81518 7.11494C6.81551 7.11995 6.81612 7.1221 6.81611 7.12207L6.55978 7.1956C6.53699 7.11615 6.55179 7.02602 6.57312 6.94836C6.59585 6.86559 6.63308 6.77297 6.67798 6.67719C6.76798 6.48517 6.89592 6.26542 7.02467 6.05994C7.15385 5.85375 7.28587 5.65873 7.38543 5.51546C7.43525 5.44376 7.47706 5.38487 7.50645 5.34384C7.52115 5.32332 7.53275 5.30726 7.54071 5.29628C7.54469 5.2908 7.54776 5.28658 7.54985 5.28372C7.55089 5.28228 7.55169 5.28119 7.55224 5.28044C7.55251 5.28007 7.55272 5.27978 7.55287 5.27958C7.55294 5.27948 7.553 5.2794 7.55304 5.27935C7.55306 5.27932 7.55308 5.27929 7.55309 5.27928C7.5531 5.27926 7.55311 5.27925 7.66064 5.35808ZM6.81618 7.12233C6.82894 7.16713 6.86003 7.20534 6.91353 7.23878C6.96841 7.27308 7.04008 7.29772 7.11714 7.31425C7.19317 7.33056 7.26776 7.33759 7.32405 7.34042C7.35196 7.34183 7.37483 7.34218 7.39042 7.34219C7.39821 7.34219 7.40415 7.34211 7.40796 7.34203C7.40986 7.342 7.41123 7.34196 7.41204 7.34194C7.41244 7.34192 7.41269 7.34192 7.4128 7.34191C7.41286 7.34191 7.41288 7.34191 7.41286 7.34191C7.41285 7.34191 7.41283 7.34191 7.4128 7.34191C7.41279 7.34191 7.41276 7.34191 7.41275 7.34191C7.41272 7.34192 7.41269 7.34192 7.41775 7.47515C7.4228 7.60839 7.42276 7.60839 7.42272 7.60839C7.42271 7.6084 7.42267 7.6084 7.42263 7.6084C7.42257 7.6084 7.42249 7.6084 7.4224 7.60841C7.42223 7.60841 7.42202 7.60842 7.42177 7.60843C7.42127 7.60844 7.42062 7.60847 7.41982 7.60849C7.41822 7.60854 7.41602 7.60859 7.41327 7.60865C7.40776 7.60876 7.40001 7.60886 7.3903 7.60885C7.37091 7.60885 7.34357 7.60841 7.31063 7.60675C7.24522 7.60346 7.15553 7.59522 7.06122 7.57499C6.96794 7.55498 6.86322 7.52181 6.77218 7.4649C6.67975 7.40713 6.5954 7.32071 6.55971 7.19534L6.81618 7.12233ZM7.41775 7.47515C7.52736 7.55107 7.52737 7.55105 7.52738 7.55103C7.52739 7.55103 7.5274 7.55101 7.5274 7.55101C7.52741 7.55099 7.52742 7.55098 7.52743 7.55097C7.52743 7.55096 7.52743 7.55096 7.52742 7.55099C7.52738 7.55103 7.5273 7.55116 7.52717 7.55135C7.5269 7.55174 7.52644 7.55242 7.52579 7.55338C7.52449 7.5553 7.52246 7.55833 7.5198 7.56238C7.51448 7.57049 7.50666 7.58264 7.49718 7.59809C7.47815 7.6291 7.45279 7.67277 7.42756 7.72324C7.37456 7.82923 7.33219 7.94563 7.33219 8.03464H7.06553C7.06553 7.88021 7.1326 7.71687 7.18905 7.60398C7.21854 7.545 7.2479 7.49445 7.26991 7.45859C7.28095 7.4406 7.29023 7.42616 7.29688 7.41604C7.3002 7.41097 7.30288 7.40698 7.30479 7.40415C7.30574 7.40273 7.30651 7.40161 7.30707 7.40079C7.30735 7.40038 7.30758 7.40004 7.30776 7.39978C7.30785 7.39965 7.30793 7.39954 7.30799 7.39945C7.30802 7.39941 7.30805 7.39937 7.30807 7.39933C7.30808 7.39931 7.3081 7.39929 7.30811 7.39928C7.30812 7.39926 7.30814 7.39924 7.41775 7.47515ZM7.33219 8.03464V8.39955H7.06553V8.03464H7.33219ZM7.19886 8.39955C7.22797 8.52967 7.22796 8.52967 7.22794 8.52968C7.22791 8.52969 7.22786 8.52969 7.2278 8.52971C7.22768 8.52974 7.22748 8.52978 7.22722 8.52984C7.22669 8.52996 7.22588 8.53014 7.2248 8.53038C7.22264 8.53087 7.21938 8.5316 7.21507 8.53258C7.20644 8.53454 7.19358 8.53747 7.17675 8.54133C7.1431 8.54907 7.0936 8.56056 7.03046 8.57551C6.90416 8.60543 6.7233 8.64921 6.50542 8.70461C6.06946 8.81545 5.48616 8.97256 4.89548 9.15787C4.30381 9.34349 3.70913 9.55605 3.24842 9.77719C3.01778 9.8879 2.82541 9.99855 2.68486 10.1063C2.54029 10.2171 2.4692 10.3108 2.44929 10.3819L2.19248 10.3101C2.23637 10.1532 2.36557 10.015 2.52265 9.89462C2.68375 9.77114 2.8944 9.65133 3.13303 9.53678C3.61087 9.30742 4.21973 9.09038 4.81566 8.90343C5.41257 8.71617 6.00092 8.55773 6.43971 8.44617C6.6592 8.39036 6.84149 8.34623 6.969 8.31603C7.03275 8.30092 7.08283 8.2893 7.11701 8.28145C7.13411 8.27752 7.14723 8.27453 7.15612 8.27251C7.16056 8.27151 7.16394 8.27074 7.16622 8.27023C7.16736 8.26997 7.16823 8.26978 7.16882 8.26964C7.16912 8.26958 7.16934 8.26953 7.1695 8.26949C7.16958 8.26948 7.16964 8.26946 7.16968 8.26945C7.16973 8.26944 7.16975 8.26944 7.19886 8.39955ZM2.44926 10.3821C2.39581 10.5725 2.42297 10.8409 2.52601 11.1725C2.62783 11.5002 2.79785 11.8715 3.00778 12.2575C3.42743 13.0291 3.99783 13.8442 4.47043 14.4618L4.25866 14.6238C3.78175 14.0007 3.20233 13.1734 2.77352 12.3849C2.55922 11.9908 2.38037 11.6025 2.27136 11.2517C2.16357 10.9048 2.11796 10.5756 2.19251 10.31L2.44926 10.3821ZM4.47046 14.4618C4.96712 15.1113 5.1351 15.9074 5.18159 16.531C5.20494 16.8442 5.19792 17.1175 5.18505 17.3128C5.17861 17.4105 5.17069 17.4889 5.16432 17.5432C5.16114 17.5704 5.15834 17.5916 5.1563 17.6062C5.15528 17.6135 5.15446 17.6191 5.15387 17.6231C5.15357 17.625 5.15334 17.6266 5.15317 17.6277C5.15308 17.6282 5.15301 17.6286 5.15296 17.629C5.15294 17.6291 5.15291 17.6293 5.1529 17.6294C5.15289 17.6294 5.15288 17.6295 5.15287 17.6295C5.15287 17.6296 5.15286 17.6296 5.0212 17.6086C4.88954 17.5875 4.88954 17.5875 4.88953 17.5875C4.88953 17.5875 4.88953 17.5876 4.88953 17.5876C4.88953 17.5876 4.88953 17.5875 4.88954 17.5875C4.88956 17.5874 4.8896 17.5871 4.88965 17.5868C4.88975 17.5861 4.88992 17.585 4.89015 17.5835C4.89061 17.5805 4.8913 17.5757 4.89219 17.5693C4.89397 17.5566 4.89652 17.5373 4.89947 17.5122C4.90536 17.4619 4.91285 17.388 4.91896 17.2952C4.9312 17.1095 4.93789 16.849 4.91566 16.5509C4.871 15.9518 4.71065 15.2149 4.25863 14.6238L4.47046 14.4618ZM5.02916 17.4755L8.69043 17.6943L8.67452 17.9605L5.01324 17.7416L5.02916 17.4755ZM8.67452 17.6943L12.3366 17.4755L12.3525 17.7416L8.69043 17.9605L8.67452 17.6943ZM12.3446 17.6086C12.2129 17.6296 12.2129 17.6296 12.2129 17.6295C12.2129 17.6295 12.2129 17.6294 12.2129 17.6294C12.2129 17.6293 12.2128 17.6291 12.2128 17.629C12.2128 17.6286 12.2127 17.6282 12.2126 17.6277C12.2124 17.6266 12.2122 17.625 12.2119 17.6231C12.2113 17.6191 12.2105 17.6135 12.2095 17.6062C12.2074 17.5916 12.2046 17.5704 12.2014 17.5432C12.1951 17.4889 12.1872 17.4105 12.1807 17.3128C12.1678 17.1175 12.1608 16.8442 12.1842 16.531C12.2307 15.9074 12.3986 15.1113 12.8953 14.4618L13.1071 14.6238C12.6551 15.2149 12.4948 15.9518 12.4501 16.5509C12.4279 16.849 12.4346 17.1095 12.4468 17.2952C12.4529 17.388 12.4604 17.4619 12.4663 17.5122C12.4692 17.5373 12.4718 17.5566 12.4736 17.5693C12.4745 17.5757 12.4752 17.5805 12.4756 17.5835C12.4758 17.585 12.476 17.5861 12.4761 17.5868C12.4762 17.5871 12.4762 17.5874 12.4762 17.5875C12.4762 17.5875 12.4762 17.5876 12.4762 17.5876C12.4762 17.5876 12.4762 17.5875 12.4762 17.5875C12.4762 17.5875 12.4762 17.5875 12.3446 17.6086ZM12.8953 14.4618C13.3678 13.8442 13.9381 13.0292 14.3578 12.2575C14.5678 11.8714 14.7378 11.5002 14.8397 11.1725C14.9428 10.8409 14.9701 10.5724 14.9168 10.382L15.1735 10.3101C15.2479 10.5757 15.2022 10.9048 15.0944 11.2517C14.9853 11.6025 14.8064 11.9908 14.5921 12.3849C14.1632 13.1734 13.5839 14.0006 13.1071 14.6238L12.8953 14.4618ZM14.9168 10.382C14.8968 10.3108 14.8257 10.2171 14.6811 10.1063C14.5405 9.99856 14.3481 9.8879 14.1175 9.77719C13.6568 9.55605 13.0621 9.34349 12.4705 9.15787C11.8798 8.97256 11.2965 8.81545 10.8606 8.70461C10.6427 8.64921 10.4619 8.60543 10.3356 8.57551C10.2724 8.56056 10.2229 8.54907 10.1893 8.54133C10.1725 8.53747 10.1596 8.53454 10.151 8.53258C10.1467 8.5316 10.1434 8.53087 10.1412 8.53038C10.1402 8.53014 10.1394 8.52996 10.1388 8.52984C10.1386 8.52978 10.1384 8.52974 10.1382 8.52971C10.1382 8.52969 10.1381 8.52968 10.1381 8.52968C10.1381 8.52967 10.1381 8.52967 10.1672 8.39955C10.1963 8.26944 10.1963 8.26944 10.1964 8.26945C10.1964 8.26946 10.1965 8.26948 10.1965 8.26949C10.1967 8.26953 10.1969 8.26958 10.1972 8.26965C10.1978 8.26978 10.1987 8.26997 10.1998 8.27023C10.2021 8.27074 10.2055 8.27151 10.2099 8.27251C10.2188 8.27453 10.2319 8.27752 10.249 8.28145C10.2832 8.2893 10.3333 8.30092 10.397 8.31603C10.5245 8.34623 10.7068 8.39036 10.9263 8.44617C11.3651 8.55773 11.9534 8.71617 12.5503 8.90343C13.1462 9.09038 13.755 9.30742 14.2329 9.53678C14.4715 9.65133 14.6822 9.77114 14.8433 9.89461C15.0004 10.015 15.1296 10.1532 15.1735 10.3101L14.9168 10.382ZM10.0338 8.39955V8.03464H10.3005V8.39955H10.0338ZM10.0338 8.03464C10.0338 7.94571 9.9914 7.82936 9.93827 7.72335C9.91297 7.67289 9.88756 7.62922 9.86848 7.59821C9.85897 7.58277 9.85114 7.57062 9.8458 7.56251C9.84313 7.55846 9.8411 7.55542 9.8398 7.55351C9.83915 7.55255 9.83868 7.55187 9.83842 7.55148C9.83828 7.55128 9.8382 7.55116 9.83817 7.55112C9.83815 7.55109 9.83815 7.55109 9.83816 7.5511C9.83816 7.55111 9.83817 7.55112 9.83818 7.55113C9.83819 7.55114 9.8382 7.55116 9.8382 7.55116C9.83821 7.55118 9.83823 7.5512 9.94775 7.47515C10.0573 7.39911 10.0573 7.39913 10.0573 7.39915C10.0573 7.39916 10.0573 7.39918 10.0573 7.3992C10.0574 7.39924 10.0574 7.39928 10.0574 7.39932C10.0575 7.39941 10.0576 7.39952 10.0576 7.39965C10.0578 7.39991 10.0581 7.40025 10.0583 7.40066C10.0589 7.40148 10.0597 7.4026 10.0606 7.40402C10.0625 7.40685 10.0652 7.41084 10.0686 7.41591C10.0752 7.42603 10.0845 7.44048 10.0956 7.45846C10.1177 7.49432 10.1471 7.54488 10.1767 7.60386C10.2332 7.71674 10.3005 7.88013 10.3005 8.03464H10.0338ZM9.94775 7.47515C9.9528 7.34192 9.95277 7.34192 9.95274 7.34191C9.95273 7.34191 9.95271 7.34191 9.95269 7.34191C9.95266 7.34191 9.95264 7.34191 9.95263 7.34191C9.95262 7.34191 9.95263 7.34191 9.95269 7.34191C9.9528 7.34192 9.95306 7.34192 9.95346 7.34194C9.95426 7.34196 9.95563 7.342 9.95753 7.34203C9.96135 7.34211 9.96729 7.34219 9.97507 7.34219C9.99067 7.34218 10.0135 7.34183 10.0414 7.34042C10.0977 7.33759 10.1723 7.33056 10.2484 7.31425C10.3255 7.29772 10.3972 7.27308 10.4521 7.23876C10.5057 7.20531 10.5368 7.16707 10.5496 7.12223L10.806 7.19544C10.7702 7.32077 10.6859 7.40716 10.5934 7.46492C10.5023 7.52182 10.3976 7.55498 10.3043 7.57499C10.21 7.59522 10.1203 7.60346 10.0549 7.60675C10.0219 7.60841 9.99459 7.60885 9.97519 7.60885C9.96548 7.60886 9.95773 7.60876 9.95222 7.60865C9.94947 7.60859 9.94727 7.60854 9.94567 7.60849C9.94487 7.60847 9.94422 7.60844 9.94372 7.60843C9.94347 7.60842 9.94326 7.60841 9.94309 7.60841C9.94301 7.6084 9.94293 7.6084 9.94286 7.6084C9.94283 7.6084 9.94279 7.6084 9.94277 7.60839C9.94273 7.60839 9.94269 7.60839 9.94775 7.47515ZM10.5496 7.12217C10.5496 7.12219 10.5502 7.12004 10.5505 7.11502C10.5509 7.11003 10.5509 7.10302 10.5501 7.09372C10.5485 7.07481 10.544 7.05004 10.5354 7.01902C10.5183 6.95673 10.4879 6.87938 10.4462 6.79038C10.3629 6.61282 10.2415 6.40366 10.1149 6.20153C9.98867 6.0001 9.85918 5.8088 9.76109 5.66764C9.71209 5.59713 9.67103 5.53928 9.64226 5.49913C9.62788 5.47906 9.61658 5.46342 9.60891 5.45284C9.60507 5.44755 9.60214 5.44352 9.60019 5.44084C9.59921 5.4395 9.59848 5.4385 9.59799 5.43784C9.59775 5.43751 9.59758 5.43726 9.59746 5.43711C9.59741 5.43703 9.59737 5.43698 9.59734 5.43694C9.59733 5.43693 9.59732 5.43692 9.59732 5.43691C9.59731 5.43691 9.59732 5.43691 9.70485 5.35808C9.81238 5.27925 9.81239 5.27926 9.81241 5.27928C9.81242 5.2793 9.81244 5.27932 9.81246 5.27935C9.8125 5.2794 9.81255 5.27948 9.81263 5.27958C9.81277 5.27978 9.81298 5.28007 9.81326 5.28044C9.8138 5.28119 9.8146 5.28228 9.81565 5.28372C9.81774 5.28658 9.82081 5.2908 9.82478 5.29628C9.83274 5.30726 9.84434 5.32332 9.85904 5.34384C9.88844 5.38487 9.93024 5.44376 9.98007 5.51546C10.0796 5.65872 10.2117 5.85375 10.3409 6.05993C10.4696 6.26541 10.5976 6.48516 10.6876 6.67717C10.7325 6.77295 10.7698 6.86556 10.7925 6.94831C10.8139 7.02597 10.8287 7.11607 10.806 7.19551L10.5496 7.12217ZM9.70485 5.35808C9.79162 5.25684 9.79162 5.25684 9.79162 5.25684C9.79162 5.25684 9.79163 5.25685 9.79164 5.25686C9.79166 5.25688 9.7917 5.25691 9.79176 5.25696C9.79188 5.25706 9.79207 5.25722 9.79233 5.25745C9.79285 5.25789 9.79365 5.25858 9.79473 5.25949C9.79688 5.26133 9.80013 5.26409 9.80442 5.26772C9.813 5.27497 9.82571 5.28567 9.84207 5.2993C9.87479 5.32655 9.92205 5.36546 9.97986 5.41183C10.0956 5.50469 10.253 5.62682 10.4203 5.74486C10.5885 5.86351 10.7628 5.97524 10.9133 6.04943C10.9886 6.0866 11.0537 6.11217 11.1061 6.1253C11.1617 6.13921 11.1867 6.13496 11.1925 6.13288L11.2821 6.38403C11.2029 6.41232 11.1162 6.4027 11.0414 6.38398C10.9635 6.36447 10.8796 6.33014 10.7953 6.28859C10.6265 6.20534 10.439 6.08439 10.2666 5.96276C10.0933 5.84053 9.93139 5.71479 9.81302 5.61986C9.75375 5.57232 9.70521 5.53235 9.67141 5.5042C9.6545 5.49012 9.64127 5.47899 9.63222 5.47133C9.6277 5.4675 9.62421 5.46454 9.62183 5.46252C9.62064 5.46151 9.61973 5.46073 9.6191 5.46019C9.61879 5.45992 9.61855 5.45971 9.61837 5.45957C9.61829 5.45949 9.61822 5.45944 9.61817 5.45939C9.61815 5.45937 9.61812 5.45935 9.61811 5.45934C9.61809 5.45932 9.61808 5.45931 9.70485 5.35808ZM11.1925 6.13288C11.1731 6.1398 11.1734 6.14927 11.1868 6.12856C11.1985 6.11065 11.213 6.08082 11.2288 6.0363C11.2602 5.94777 11.29 5.82125 11.3163 5.66494C11.3686 5.35369 11.404 4.9441 11.4175 4.52967C11.4311 4.11521 11.4226 3.7013 11.3888 3.38134C11.3719 3.22075 11.3491 3.08874 11.3213 2.99372C11.3074 2.94609 11.2936 2.91224 11.2812 2.89016C11.2678 2.86615 11.2625 2.86752 11.272 2.87259L11.3975 2.63729C11.4526 2.66669 11.4892 2.71576 11.5139 2.75987C11.5397 2.80592 11.5603 2.86062 11.5773 2.919C11.6115 3.036 11.6364 3.18587 11.654 3.35335C11.6895 3.68952 11.6978 4.1165 11.6841 4.53838C11.6703 4.96029 11.6342 5.38249 11.5793 5.70916C11.5519 5.8718 11.5191 6.01577 11.4801 6.1256C11.4606 6.18026 11.4379 6.23158 11.4105 6.27382C11.3848 6.31326 11.3442 6.3619 11.2821 6.38404L11.1925 6.13288ZM11.272 2.87261C11.2624 2.86746 11.2359 2.85995 11.18 2.8685C11.1259 2.87678 11.0581 2.89807 10.9786 2.9322C10.82 3.00034 10.6357 3.11056 10.4573 3.23052C10.2799 3.34977 10.1131 3.4754 9.99037 3.57152C9.9291 3.6195 9.87902 3.65994 9.84436 3.68831C9.82703 3.7025 9.81357 3.71365 9.80449 3.72121C9.79996 3.72499 9.79652 3.72787 9.79425 3.72978C9.79311 3.73073 9.79226 3.73145 9.79172 3.73191C9.79144 3.73214 9.79125 3.7323 9.79113 3.73241C9.79106 3.73246 9.79102 3.73249 9.791 3.73251C9.79099 3.73252 9.79098 3.73253 9.79098 3.73253C9.79098 3.73253 9.79099 3.73252 9.70485 3.63075C9.61871 3.52897 9.61873 3.52896 9.61875 3.52894C9.61876 3.52893 9.61879 3.52891 9.61882 3.52889C9.61887 3.52884 9.61894 3.52878 9.61904 3.5287C9.61922 3.52854 9.61948 3.52832 9.61982 3.52804C9.62049 3.52747 9.62147 3.52665 9.62273 3.52559C9.62527 3.52346 9.62898 3.52035 9.63379 3.51634C9.64342 3.50831 9.65749 3.49666 9.67546 3.48196C9.71138 3.45255 9.76297 3.41089 9.82597 3.36156C9.95176 3.26306 10.124 3.13325 10.3085 3.00922C10.4919 2.8859 10.6922 2.76501 10.8734 2.68718C10.9638 2.64833 11.0547 2.61791 11.1397 2.60491C11.2229 2.59217 11.3158 2.59377 11.3975 2.63727L11.272 2.87261ZM9.70485 3.63075C9.59264 3.55874 9.59263 3.55874 9.59263 3.55874C9.59264 3.55873 9.59265 3.55872 9.59266 3.5587C9.59268 3.55866 9.59272 3.5586 9.59278 3.55852C9.59289 3.55834 9.59306 3.55807 9.59329 3.55771C9.59376 3.55697 9.59448 3.55585 9.59543 3.55436C9.59734 3.55137 9.6002 3.54688 9.60394 3.54098C9.61142 3.52917 9.62243 3.51171 9.63643 3.4893C9.66443 3.44448 9.70435 3.37988 9.75184 3.30112C9.8469 3.14343 9.97184 2.92963 10.092 2.70427C10.2127 2.47814 10.3266 2.24387 10.4011 2.04442C10.4385 1.94452 10.4644 1.85723 10.4771 1.78639C10.4906 1.71147 10.4858 1.67256 10.4804 1.65815L10.7301 1.56463C10.7611 1.64751 10.7555 1.74468 10.7396 1.83341C10.723 1.92621 10.6912 2.03013 10.6509 2.13778C10.5703 2.35345 10.45 2.5997 10.3273 2.82976C10.2042 3.06059 10.0767 3.27866 9.98022 3.43879C9.93191 3.51893 9.89124 3.58474 9.8626 3.63058C9.84828 3.65351 9.83696 3.67145 9.82919 3.68372C9.8253 3.68985 9.8223 3.69456 9.82026 3.69776C9.81924 3.69936 9.81846 3.70059 9.81792 3.70142C9.81765 3.70184 9.81745 3.70216 9.8173 3.70239C9.81723 3.7025 9.81718 3.70258 9.81714 3.70265C9.81712 3.70268 9.8171 3.70271 9.81709 3.70272C9.81708 3.70274 9.81707 3.70276 9.70485 3.63075ZM10.4804 1.65838C10.4769 1.64902 10.4612 1.62458 10.4088 1.59118C10.3587 1.55922 10.2883 1.52755 10.1999 1.4974C10.0235 1.43723 9.79657 1.39001 9.56811 1.35397C9.34083 1.31812 9.11738 1.29413 8.95035 1.2791C8.86695 1.2716 8.79788 1.26635 8.74978 1.26299C8.72573 1.2613 8.70694 1.26009 8.69423 1.25931C8.68788 1.25891 8.68304 1.25863 8.67984 1.25844C8.67823 1.25835 8.67703 1.25828 8.67626 1.25824C8.67587 1.25821 8.67558 1.2582 8.67541 1.25819C8.67532 1.25818 8.67525 1.25818 8.67522 1.25818C8.6752 1.25818 8.6752 1.25818 8.67519 1.25818C8.67519 1.25818 8.67519 1.25818 8.68248 1.12504C8.68976 0.991909 8.68978 0.99191 8.68981 0.991911C8.68983 0.991913 8.68986 0.991914 8.6899 0.991916C8.68997 0.99192 8.69007 0.991925 8.69019 0.991933C8.69045 0.991947 8.69081 0.991966 8.69127 0.991993C8.6922 0.992045 8.69356 0.992122 8.69532 0.992225C8.69884 0.99243 8.704 0.992737 8.71069 0.99315C8.72407 0.993976 8.74358 0.995234 8.76839 0.99697C8.81799 1.00044 8.88884 1.00582 8.97424 1.01351C9.14482 1.02886 9.37458 1.05348 9.60966 1.09056C9.84357 1.12746 10.0881 1.17751 10.286 1.24502C10.3847 1.2787 10.4771 1.31847 10.5522 1.36632C10.625 1.41273 10.6969 1.47646 10.73 1.5644L10.4804 1.65838ZM8.68248 1.12504C8.68976 1.25818 8.68977 1.25818 8.68977 1.25818C8.68976 1.25818 8.68975 1.25818 8.68973 1.25818C8.6897 1.25818 8.68964 1.25818 8.68955 1.25819C8.68937 1.2582 8.68909 1.25821 8.6887 1.25824C8.68792 1.25828 8.68672 1.25835 8.68512 1.25844C8.68191 1.25863 8.67708 1.25891 8.67073 1.25931C8.65802 1.26009 8.63923 1.2613 8.61519 1.26299C8.56709 1.26635 8.49804 1.2716 8.41466 1.2791C8.24766 1.29413 8.02426 1.31812 7.79705 1.35397C7.56865 1.39001 7.34177 1.43723 7.16551 1.49739C7.07718 1.52755 7.00683 1.55921 6.95677 1.59115C6.90445 1.62453 6.88886 1.64893 6.88538 1.65822L6.6357 1.56455C6.66872 1.47655 6.74057 1.41277 6.81332 1.36635C6.88833 1.31849 6.98068 1.27871 7.07937 1.24502C7.27716 1.17751 7.52164 1.12746 7.75548 1.09057C7.9905 1.05348 8.22021 1.02886 8.39076 1.01351C8.47615 1.00582 8.54698 1.00044 8.59658 0.99697C8.62138 0.995234 8.64089 0.993978 8.65427 0.99315C8.66096 0.992737 8.66611 0.99243 8.66964 0.992225C8.6714 0.992122 8.67275 0.992045 8.67368 0.991993C8.67414 0.991966 8.6745 0.991947 8.67476 0.991933C8.67488 0.991925 8.67498 0.99192 8.67506 0.991916C8.67509 0.991914 8.67513 0.991913 8.67515 0.991911C8.67517 0.99191 8.67519 0.991909 8.68248 1.12504Z" fill="black" mask="url(#path-1-outside-1_2_2062)"/>
<path d="M6.21701 18.1085L6.22399 18.0497H6.28321H11.0823H11.1415L11.1485 18.1085L12.9626 33.3792L12.9715 33.4537H12.8964H4.46936H4.39431L4.40316 33.3792L6.21701 18.1085Z" fill="url(#paint1_linear_2_2062)" stroke="black" stroke-width="0.1"/>
<path d="M3.40703 32.402C3.40703 32.0321 3.70994 31.7295 4.0815 31.7295H13.2829C13.6559 31.7295 13.959 32.032 13.959 32.402V33.3674C13.959 33.7397 13.6558 34.0402 13.2829 34.0402H4.0815C3.71006 34.0402 3.40703 33.7396 3.40703 33.3674V32.402Z" fill="url(#paint2_linear_2_2062)" stroke="black" stroke-width="0.1"/>
<g opacity="0.600006">
<g opacity="0.600006">
<g opacity="0.600006">
<g opacity="0.600006">
<g opacity="0.600006">
<g opacity="0.600006">
<mask id="path-5-outside-2_2_2062" maskUnits="userSpaceOnUse" x="2.14067" y="30.7204" width="8" height="4" fill="black">
<rect fill="white" x="2.14067" y="30.7204" width="8" height="4"/>
<path d="M3.474 33.387V32.4021C3.474 32.0691 3.74665 31.7962 4.08153 31.7962H10.0938C10.0938 31.7962 6.68358 31.9239 5.25946 32.4108C3.83153 32.896 3.474 33.387 3.474 33.387Z"/>
</mask>
<path d="M3.474 33.387V32.4021C3.474 32.0691 3.74665 31.7962 4.08153 31.7962H10.0938C10.0938 31.7962 6.68358 31.9239 5.25946 32.4108C3.83153 32.896 3.474 33.387 3.474 33.387Z" fill="url(#paint3_linear_2_2062)"/>
<path d="M10.0938 31.7962V31.6628L10.0988 31.9294L10.0938 31.7962ZM5.25946 32.4108L5.3026 32.5369L5.30237 32.537L5.25946 32.4108ZM3.34067 33.387V32.4021H3.60733V33.387H3.34067ZM3.34067 32.4021C3.34067 31.9953 3.67321 31.6628 4.08153 31.6628V31.9295C3.82009 31.9295 3.60733 32.1429 3.60733 32.4021H3.34067ZM4.08153 31.6628H10.0938V31.9295H4.08153V31.6628ZM10.0938 31.7962C10.0988 31.9294 10.0988 31.9294 10.0987 31.9294C10.0987 31.9294 10.0987 31.9294 10.0986 31.9294C10.0985 31.9294 10.0984 31.9294 10.0982 31.9294C10.0978 31.9294 10.0972 31.9295 10.0964 31.9295C10.0948 31.9296 10.0924 31.9297 10.0892 31.9298C10.0828 31.93 10.0732 31.9304 10.0607 31.9309C10.0355 31.932 9.99842 31.9336 9.95062 31.9358C9.85502 31.9402 9.71674 31.9471 9.5463 31.9568C9.20536 31.9764 8.73608 32.0075 8.22262 32.0537C7.19034 32.1466 5.99728 32.2994 5.3026 32.5369L5.21633 32.2846C5.94577 32.0352 7.16986 31.8807 8.1987 31.7881C8.7158 31.7415 9.18808 31.7103 9.53105 31.6906C9.70257 31.6808 9.84184 31.6739 9.93829 31.6694C9.98652 31.6672 10.0241 31.6656 10.0496 31.6645C10.0623 31.664 10.0721 31.6636 10.0787 31.6633C10.082 31.6632 10.0845 31.6631 10.0862 31.663C10.087 31.663 10.0877 31.663 10.0881 31.663C10.0883 31.6629 10.0885 31.6629 10.0886 31.6629C10.0886 31.6629 10.0887 31.6629 10.0887 31.6629C10.0888 31.6629 10.0888 31.6629 10.0938 31.7962ZM5.30237 32.537C4.59809 32.7764 4.16298 33.0154 3.90658 33.1909C3.7784 33.2787 3.69482 33.3506 3.64453 33.3989C3.61937 33.4231 3.60251 33.4413 3.59253 33.4527C3.58754 33.4585 3.58427 33.4625 3.58254 33.4646C3.58167 33.4657 3.58119 33.4663 3.58107 33.4665C3.58101 33.4666 3.58105 33.4665 3.58117 33.4664C3.58123 33.4663 3.58131 33.4662 3.58141 33.466C3.58146 33.466 3.58152 33.4659 3.58158 33.4658C3.58161 33.4658 3.58166 33.4657 3.58168 33.4657C3.58173 33.4656 3.58178 33.4655 3.474 33.387C3.36621 33.3086 3.36627 33.3085 3.36633 33.3084C3.36635 33.3084 3.36641 33.3083 3.36645 33.3082C3.36653 33.3081 3.36662 33.308 3.36672 33.3079C3.36691 33.3076 3.36712 33.3073 3.36736 33.307C3.36784 33.3064 3.3684 33.3056 3.36906 33.3047C3.37038 33.303 3.37208 33.3008 3.37419 33.2982C3.37839 33.2929 3.38419 33.2859 3.39177 33.2772C3.40692 33.2599 3.42915 33.236 3.45982 33.2066C3.52119 33.1476 3.61624 33.0665 3.75593 32.9709C4.03528 32.7796 4.4929 32.5305 5.21656 32.2845L5.30237 32.537Z" fill="black" mask="url(#path-5-outside-2_2_2062)"/>
</g>
</g>
</g>
</g>
</g>
</g>
<path d="M4.05388 17.5553C4.05388 17.2066 4.33502 16.925 4.68358 16.925H12.6838C13.0326 16.925 13.3141 17.2065 13.3141 17.5553C13.3141 17.9021 13.0324 18.1831 12.6838 18.1831H4.68358C4.33523 18.1831 4.05388 17.902 4.05388 17.5553Z" fill="url(#paint4_linear_2_2062)" stroke="black" stroke-width="0.1"/>
<path d="M2.60792 34.34C2.60792 33.919 2.95183 33.5752 3.37627 33.5752H13.9878C14.4138 33.5752 14.7575 33.9189 14.7575 34.34V35.4547C14.7575 35.8775 14.4137 36.2189 13.9878 36.2189H3.37627C2.952 36.2189 2.60792 35.8775 2.60792 35.4547V34.34Z" fill="url(#paint5_linear_2_2062)" stroke="black" stroke-width="0.1"/>
<g opacity="0.600006">
<g opacity="0.600006">
<g opacity="0.600006">
<g opacity="0.600006">
<g opacity="0.600006">
<path opacity="0.600006" d="M2.72864 35.5169L2.60823 35.6822V35.4775V34.3402C2.60823 33.9189 2.95189 33.5757 3.37631 33.5757H10.0938L10.0964 33.7089L10.0938 33.6423L10.0964 33.7089L10.0963 33.7089L10.0958 33.709L10.0938 33.709L10.0859 33.7094L10.0546 33.7107L9.93414 33.7163C9.82954 33.7214 9.6782 33.7294 9.49143 33.7406C9.11786 33.7632 8.60272 33.799 8.03637 33.8524C6.90123 33.9594 5.56859 34.1361 4.75511 34.4139L4.75503 34.414C3.93701 34.6922 3.42798 34.9713 3.12476 35.1791C2.97316 35.2829 2.87298 35.369 2.81132 35.4282C2.78048 35.4578 2.75926 35.4808 2.74605 35.4959C2.73944 35.5034 2.73483 35.5091 2.73202 35.5126L2.72913 35.5163L2.72866 35.5169L2.72865 35.5169C2.72862 35.5169 2.72862 35.5169 2.72864 35.5169Z" fill="url(#paint6_linear_2_2062)" stroke="black" stroke-width="0.1"/>
</g>
</g>
</g>
</g>
</g>
<path d="M1.73842 36.6979C1.73842 36.2202 2.12775 35.8305 2.60721 35.8305H14.7564C15.2382 35.8305 15.6277 36.2201 15.6277 36.6979V37.9735C15.6277 38.4518 15.238 38.8393 14.7564 38.8393H2.60721C2.12794 38.8393 1.73842 38.4516 1.73842 37.9735V36.6979Z" fill="url(#paint7_linear_2_2062)" stroke="black" stroke-width="0.1"/>
<g opacity="0.600006">
<g opacity="0.600006">
<g opacity="0.600006">
<g opacity="0.600006">
<g opacity="0.600006">
<g opacity="0.600006">
<mask id="path-11-outside-3_2_2062" maskUnits="userSpaceOnUse" x="0.471751" y="35.3317" width="10.6667" height="4" fill="black">
<rect fill="white" x="0.471751" y="35.3317" width="10.6667" height="4"/>
<path d="M1.80508 37.9984V36.6979C1.80508 36.2571 2.16452 35.8974 2.60721 35.8974H10.9442C10.9442 35.8974 6.04414 36.0677 4.16124 36.7088C2.27806 37.3499 1.80508 37.9984 1.80508 37.9984Z"/>
</mask>
<path d="M1.80508 37.9984V36.6979C1.80508 36.2571 2.16452 35.8974 2.60721 35.8974H10.9442C10.9442 35.8974 6.04414 36.0677 4.16124 36.7088C2.27806 37.3499 1.80508 37.9984 1.80508 37.9984Z" fill="url(#paint8_linear_2_2062)"/>
<path d="M10.9442 35.8974V35.7641L10.9488 36.0306L10.9442 35.8974ZM4.16124 36.7088L4.20421 36.835L4.2042 36.835L4.16124 36.7088ZM1.67175 37.9984V36.6979H1.93842V37.9984H1.67175ZM1.67175 36.6979C1.67175 36.1833 2.09103 35.7641 2.60721 35.7641V36.0307C2.23801 36.0307 1.93842 36.3309 1.93842 36.6979H1.67175ZM2.60721 35.7641H10.9442V36.0307H2.60721V35.7641ZM10.9442 35.8974C10.9488 36.0306 10.9488 36.0306 10.9488 36.0306C10.9488 36.0306 10.9487 36.0306 10.9487 36.0306C10.9485 36.0306 10.9483 36.0307 10.948 36.0307C10.9474 36.0307 10.9466 36.0307 10.9454 36.0308C10.9431 36.0308 10.9396 36.031 10.935 36.0311C10.9257 36.0315 10.912 36.032 10.8939 36.0327C10.8577 36.0341 10.8043 36.0362 10.7357 36.0392C10.5984 36.0451 10.4001 36.0542 10.1562 36.0672C9.66837 36.0931 8.99844 36.1343 8.26998 36.1955C6.80698 36.3185 5.12764 36.5206 4.20421 36.835L4.11826 36.5826C5.07773 36.2559 6.78988 36.0523 8.24765 35.9298C8.97956 35.8683 9.65233 35.8269 10.1421 35.8009C10.387 35.7878 10.5862 35.7787 10.7243 35.7727C10.7933 35.7698 10.847 35.7676 10.8836 35.7662C10.9018 35.7655 10.9158 35.765 10.9252 35.7646C10.9299 35.7645 10.9335 35.7643 10.9359 35.7643C10.9371 35.7642 10.938 35.7642 10.9386 35.7642C10.9389 35.7642 10.9392 35.7641 10.9393 35.7641C10.9394 35.7641 10.9395 35.7641 10.9395 35.7641C10.9396 35.7641 10.9396 35.7641 10.9442 35.8974ZM4.2042 36.835C3.27231 37.1523 2.69451 37.4696 2.35232 37.704C2.18124 37.8212 2.06899 37.9177 2.00075 37.9832C1.96661 38.016 1.94346 38.041 1.92943 38.057C1.92241 38.0651 1.91767 38.0708 1.91498 38.0742C1.91363 38.0759 1.9128 38.077 1.91245 38.0774C1.91227 38.0777 1.91222 38.0777 1.91228 38.0776C1.91231 38.0776 1.91237 38.0775 1.91246 38.0774C1.9125 38.0773 1.91255 38.0773 1.91261 38.0772C1.91264 38.0772 1.91269 38.0771 1.9127 38.0771C1.91275 38.077 1.91281 38.0769 1.80508 37.9984C1.69736 37.9198 1.69742 37.9197 1.69748 37.9196C1.6975 37.9196 1.69756 37.9195 1.6976 37.9195C1.69769 37.9193 1.69778 37.9192 1.69789 37.9191C1.69809 37.9188 1.69833 37.9185 1.69859 37.9181C1.69912 37.9174 1.69977 37.9165 1.70055 37.9155C1.7021 37.9135 1.70415 37.9109 1.70673 37.9076C1.71189 37.9012 1.71915 37.8924 1.72874 37.8814C1.74793 37.8595 1.77644 37.8289 1.81608 37.7908C1.89536 37.7147 2.01905 37.609 2.20162 37.484C2.56671 37.2339 3.16699 36.9064 4.11827 36.5826L4.2042 36.835Z" fill="black" mask="url(#path-11-outside-3_2_2062)"/>
</g>
</g>
</g>
</g>
</g>
</g>
<path d="M0.558303 38.937C0.558303 38.3829 1.00821 37.9317 1.56574 37.9317H15.8001C16.3556 37.9317 16.8075 38.3829 16.8075 38.937V43.295C16.8075 43.8496 16.3555 44.2989 15.8001 44.2989H1.56574C1.00835 44.2989 0.558303 43.8495 0.558303 43.295V38.937Z" fill="url(#paint9_linear_2_2062)" stroke="black" stroke-width="0.1"/>
<g opacity="0.600006">
<g opacity="0.600006">
<g opacity="0.600006">
<g opacity="0.600006">
<g opacity="0.600006">
<path opacity="0.600006" d="M0.678707 40.5001L0.558303 40.6651V40.4607V38.9369C0.558303 38.3832 1.0082 37.9317 1.56574 37.9317H10.9442L10.9467 38.065L10.9442 37.9984L10.9467 38.065L10.9465 38.065L10.9458 38.065L10.9429 38.0651L10.9314 38.0656L10.8863 38.0674C10.8467 38.069 10.7882 38.0715 10.7129 38.075C10.5625 38.0819 10.345 38.0927 10.077 38.1079C9.54116 38.1384 8.80377 38.1868 7.99762 38.2587C6.38259 38.4027 4.50059 38.6402 3.40655 39.0129L3.40653 39.0129C2.30864 39.3866 1.62423 39.7618 1.21563 40.0418C1.01133 40.1817 0.875947 40.2979 0.792251 40.3783C0.7504 40.4184 0.721458 40.4497 0.703275 40.4704C0.694183 40.4808 0.687779 40.4886 0.683794 40.4936L0.679596 40.4989L0.678795 40.5C0.678768 40.5 0.678747 40.5001 0.678733 40.5001C0.678713 40.5001 0.678704 40.5001 0.678707 40.5001Z" fill="url(#paint10_linear_2_2062)" stroke="black" stroke-width="0.1"/>
</g>
</g>
</g>
</g>
</g>
<defs>
<linearGradient id="paint0_linear_2_2062" x1="2.28901" y1="9.47608" x2="15.0769" y2="9.47608" gradientUnits="userSpaceOnUse">
<stop stop-color="white"/>
<stop offset="0.0498493" stop-color="white"/>
<stop offset="0.921951" stop-color="#B9B9B9"/>
<stop offset="0.92209" stop-color="#B9B9B9"/>
<stop offset="1" stop-color="#999999"/>
</linearGradient>
<linearGradient id="paint1_linear_2_2062" x1="3.8097" y1="25.7518" x2="11.7177" y2="25.7518" gradientUnits="userSpaceOnUse">
<stop stop-color="white"/>
<stop offset="0.160976" stop-color="white"/>
<stop offset="0.200539" stop-color="white"/>
<stop offset="0.892683" stop-color="#B9B9B9"/>
<stop offset="0.892875" stop-color="#B9B9B9"/>
<stop offset="1" stop-color="#A3A3A3"/>
</linearGradient>
<linearGradient id="paint2_linear_2_2062" x1="3.03526" y1="32.8848" x2="13.8764" y2="32.8848" gradientUnits="userSpaceOnUse">
<stop stop-color="white"/>
<stop offset="0.0498493" stop-color="white"/>
<stop offset="0.921951" stop-color="#B9B9B9"/>
<stop offset="0.92209" stop-color="#B9B9B9"/>
<stop offset="1" stop-color="#999999"/>
</linearGradient>
<linearGradient id="paint3_linear_2_2062" x1="2.88284" y1="32.5917" x2="7.8989" y2="32.5917" gradientUnits="userSpaceOnUse">
<stop stop-color="white"/>
<stop offset="0.0540694" stop-color="white"/>
<stop offset="1" stop-color="white"/>
</linearGradient>
<linearGradient id="paint4_linear_2_2062" x1="3.40629" y1="17.5541" x2="11.9707" y2="17.5541" gradientUnits="userSpaceOnUse">
<stop stop-color="white"/>
<stop offset="0.160976" stop-color="white"/>
<stop offset="0.200539" stop-color="white"/>
<stop offset="0.892683" stop-color="#B9B9B9"/>
<stop offset="0.892875" stop-color="#B9B9B9"/>
<stop offset="1" stop-color="#A3A3A3"/>
</linearGradient>
<linearGradient id="paint5_linear_2_2062" x1="2.16893" y1="34.8972" x2="14.6728" y2="34.8972" gradientUnits="userSpaceOnUse">
<stop stop-color="white"/>
<stop offset="0.0498493" stop-color="white"/>
<stop offset="0.921951" stop-color="#B9B9B9"/>
<stop offset="0.92209" stop-color="#B9B9B9"/>
<stop offset="1" stop-color="#999999"/>
</linearGradient>
<linearGradient id="paint6_linear_2_2062" x1="2.04876" y1="34.5599" x2="7.28283" y2="34.5599" gradientUnits="userSpaceOnUse">
<stop stop-color="white"/>
<stop offset="0.0540694" stop-color="white"/>
<stop offset="1" stop-color="white"/>
</linearGradient>
<linearGradient id="paint7_linear_2_2062" x1="1.22599" y1="37.3349" x2="15.5402" y2="37.3349" gradientUnits="userSpaceOnUse">
<stop stop-color="white"/>
<stop offset="0.0498493" stop-color="white"/>
<stop offset="0.921951" stop-color="#B9B9B9"/>
<stop offset="0.92209" stop-color="#B9B9B9"/>
<stop offset="1" stop-color="#999999"/>
</linearGradient>
<linearGradient id="paint8_linear_2_2062" x1="1.0137" y1="36.9478" x2="7.93328" y2="36.9478" gradientUnits="userSpaceOnUse">
<stop stop-color="white"/>
<stop offset="0.0540694" stop-color="white"/>
<stop offset="1" stop-color="white"/>
</linearGradient>
<linearGradient id="paint9_linear_2_2062" x1="-0.0534677" y1="41.1152" x2="16.7165" y2="41.1152" gradientUnits="userSpaceOnUse">
<stop stop-color="white"/>
<stop offset="0.0498493" stop-color="white"/>
<stop offset="0.921951" stop-color="#B9B9B9"/>
<stop offset="0.92209" stop-color="#B9B9B9"/>
<stop offset="1" stop-color="#999999"/>
</linearGradient>
<linearGradient id="paint10_linear_2_2062" x1="-0.223379" y1="39.2295" x2="7.60696" y2="39.2295" gradientUnits="userSpaceOnUse">
<stop stop-color="white"/>
<stop offset="0.0540694" stop-color="white"/>
<stop offset="1" stop-color="white"/>
</linearGradient>
</defs>
</svg>
