<svg viewBox="0 0 15 29" fill="none" xmlns="http://www.w3.org/2000/svg">
<path d="M7.59787 7.8897C5.67705 7.8897 4.11992 6.33229 4.11992 4.41148C4.11992 2.4904 5.67705 0.933264 7.59787 0.933264C9.5206 0.933264 11.0763 2.49041 11.0763 4.41148C11.0763 6.33228 9.52061 7.8897 7.59787 7.8897Z" fill="url(#paint0_linear_2_2067)" stroke="black" stroke-width="0.1"/>
<path d="M5.56602 7.34362L5.57301 7.28482H5.63222H9.56233H9.62155L9.62853 7.34363L11.1132 19.8466L11.1221 19.9211H11.047H4.1467H4.07164L4.0805 19.8466L5.56602 7.34362Z" fill="url(#paint1_linear_2_2067)" stroke="black" stroke-width="0.1"/>
<path d="M3.26514 19.048C3.26514 18.7384 3.51841 18.4854 3.82963 18.4854H11.3637C11.675 18.4854 11.9293 18.7382 11.9293 19.048V19.8381C11.9293 20.1496 11.675 20.4012 11.3637 20.4012H3.82963C3.51846 20.4012 3.26514 20.1494 3.26514 19.8381V19.048Z" fill="url(#paint2_linear_2_2067)" stroke="black" stroke-width="0.1"/>
<g opacity="0.600006">
<g opacity="0.600006">
<g opacity="0.600006">
<g opacity="0.600006">
<g opacity="0.600006">
<path opacity="0.600006" d="M3.38549 19.8939L3.26514 20.0589V19.8544V19.0479C3.26514 18.7383 3.51866 18.4851 3.82963 18.4851H8.75235L8.75484 18.6184L8.75235 18.5517L8.75482 18.6184L8.75473 18.6184L8.75437 18.6184L8.75288 18.6184L8.74694 18.6187L8.72348 18.6196L8.63318 18.6236C8.55478 18.6272 8.4414 18.6329 8.30169 18.6409C8.02223 18.6569 7.63754 18.6823 7.21658 18.7203C6.37198 18.7963 5.39025 18.9217 4.81598 19.1181L4.81586 19.1181C4.2361 19.3152 3.87606 19.5125 3.6623 19.6588C3.55542 19.7319 3.48507 19.7923 3.44206 19.8335C3.42055 19.8541 3.40586 19.87 3.39685 19.8803L3.38743 19.8915L3.38564 19.8937C3.38557 19.8938 3.38552 19.8939 3.38549 19.8939Z" fill="url(#paint3_linear_2_2067)" stroke="black" stroke-width="0.1"/>
</g>
</g>
</g>
</g>
</g>
<path d="M3.79517 6.89161C3.79517 6.59958 4.03083 6.36398 4.32307 6.36398H10.8732C11.1652 6.36398 11.4012 6.59955 11.4012 6.89161C11.4012 7.18238 11.1651 7.41815 10.8732 7.41815H4.32307C4.0309 7.41815 3.79517 7.18235 3.79517 6.89161Z" fill="url(#paint4_linear_2_2067)" stroke="black" stroke-width="0.1"/>
<path d="M2.61151 20.6344C2.61151 20.2827 2.89786 19.9965 3.25268 19.9965H11.9407C12.2965 19.9965 12.5832 20.2826 12.5832 20.6344V21.5471C12.5832 21.9007 12.2964 22.1853 11.9407 22.1853H3.25268C2.89794 22.1853 2.61151 21.9005 2.61151 21.5471V20.6344Z" fill="url(#paint5_linear_2_2067)" stroke="black" stroke-width="0.1"/>
<g opacity="0.600006">
<g opacity="0.600006">
<g opacity="0.600006">
<g opacity="0.600006">
<g opacity="0.600006">
<path opacity="0.600006" d="M2.73223 21.6052L2.6118 21.7708V21.5658V20.6345C2.6118 20.2828 2.89787 19.9969 3.25243 19.9969H8.75239L8.75502 20.1302L8.75239 20.0636L8.75499 20.1302L8.7549 20.1302L8.7545 20.1302L8.75288 20.1303L8.74639 20.1306L8.72081 20.1316L8.62226 20.1362C8.53665 20.1404 8.41279 20.1469 8.25992 20.1561C7.95416 20.1745 7.53252 20.2038 7.06897 20.2475C6.13945 20.335 5.04966 20.4796 4.38506 20.7066L4.38496 20.7067C3.7161 20.934 3.30048 21.162 3.05339 21.3314C2.92986 21.4161 2.84842 21.4861 2.79848 21.5341C2.77351 21.5581 2.7564 21.5766 2.74583 21.5888C2.74054 21.5948 2.73689 21.5993 2.7347 21.602L2.7325 21.6048L2.73223 21.6052Z" fill="url(#paint6_linear_2_2067)" stroke="black" stroke-width="0.1"/>
</g>
</g>
</g>
</g>
</g>
<path d="M1.89943 22.5655C1.89943 22.1669 2.22358 21.843 2.6233 21.843H12.57C12.971 21.843 13.295 22.1669 13.295 22.5655V23.6097C13.295 24.0076 12.9709 24.3305 12.57 24.3305H2.6233C2.22375 24.3305 1.89943 24.0075 1.89943 23.6097V22.5655Z" fill="url(#paint7_linear_2_2067)" stroke="black" stroke-width="0.1"/>
<g opacity="0.600006">
<g opacity="0.600006">
<g opacity="0.600006">
<g opacity="0.600006">
<g opacity="0.600006">
<path opacity="0.600006" d="M2.01979 23.6692L1.89943 23.8341V23.6297V22.5653C1.89943 22.1668 2.22358 21.8428 2.6233 21.8428H9.44885L9.45116 21.9761L9.44885 21.9095L9.45112 21.9761L9.45099 21.9761L9.45046 21.9761L9.44831 21.9762L9.43973 21.9765L9.40598 21.9778L9.27629 21.9831C9.16377 21.9879 9.00125 21.9954 8.80138 22.006C8.40161 22.0272 7.85261 22.061 7.25559 22.1111C6.0585 22.2117 4.67822 22.3774 3.91636 22.6369C3.15046 22.8979 2.67388 23.1594 2.3901 23.3538C2.24821 23.451 2.15449 23.5314 2.09685 23.5867C2.06803 23.6144 2.04822 23.6358 2.03591 23.6498C2.02975 23.6569 2.02547 23.6621 2.02287 23.6653L2.02021 23.6687L2.01981 23.6692L2.01979 23.6692C2.01977 23.6693 2.01977 23.6693 2.01979 23.6692Z" fill="url(#paint8_linear_2_2067)" stroke="black" stroke-width="0.1"/>
</g>
</g>
</g>
</g>
</g>
<path d="M0.933501 24.3987C0.933501 23.9386 1.30665 23.5632 1.77036 23.5632H13.4242C13.8859 23.5632 14.2611 23.9385 14.2611 24.3987V27.9666C14.2611 28.4272 13.8857 28.8007 13.4242 28.8007H1.77036C1.30682 28.8007 0.933501 28.4271 0.933501 27.9666V24.3987Z" fill="url(#paint9_linear_2_2067)" stroke="black" stroke-width="0.1"/>
<g opacity="0.600006">
<g opacity="0.600006">
<g opacity="0.600006">
<g opacity="0.600006">
<g opacity="0.600006">
<g opacity="0.600006">
<mask id="path-11-outside-1_2_2067" maskUnits="userSpaceOnUse" x="-0.333349" y="22.9791" width="10.6667" height="4" fill="black">
<rect fill="white" x="-0.333349" y="22.9791" width="10.6667" height="4"/>
<path d="M0.999985 25.6458V24.3985C0.999985 23.9752 1.3436 23.6297 1.77045 23.6297H9.44888C9.44888 23.6297 5.06546 23.7937 3.25952 24.4083C1.45413 25.0235 0.999985 25.6458 0.999985 25.6458Z"/>
</mask>
<path d="M0.999985 25.6458V24.3985C0.999985 23.9752 1.3436 23.6297 1.77045 23.6297H9.44888C9.44888 23.6297 5.06546 23.7937 3.25952 24.4083C1.45413 25.0235 0.999985 25.6458 0.999985 25.6458Z" fill="url(#paint10_linear_2_2067)"/>
<path d="M9.44888 23.6297V23.4964L9.45387 23.7629L9.44888 23.6297ZM3.25952 24.4083L3.21652 24.2821L3.21656 24.2821L3.25952 24.4083ZM0.866651 25.6458V24.3985H1.13332V25.6458H0.866651ZM0.866651 24.3985C0.866651 23.9016 1.26993 23.4964 1.77045 23.4964V23.763C1.41726 23.763 1.13332 24.0488 1.13332 24.3985H0.866651ZM1.77045 23.4964H9.44888V23.763H1.77045V23.4964ZM9.44888 23.6297C9.45387 23.7629 9.45386 23.7629 9.45383 23.7629C9.4538 23.7629 9.45376 23.7629 9.4537 23.763C9.45358 23.763 9.45339 23.763 9.45313 23.763C9.45262 23.763 9.45185 23.763 9.45082 23.7631C9.44875 23.7631 9.44563 23.7633 9.4415 23.7634C9.43325 23.7637 9.42092 23.7642 9.40474 23.7649C9.37239 23.7663 9.32462 23.7683 9.26314 23.7711C9.14018 23.7768 8.96238 23.7856 8.74333 23.7981C8.30516 23.823 7.70228 23.8626 7.04327 23.9213C5.71982 24.0393 4.18805 24.2332 3.30248 24.5346L3.21656 24.2821C4.13693 23.9689 5.69984 23.7734 7.01959 23.6557C7.68218 23.5967 8.28802 23.5569 8.72818 23.5318C8.9483 23.5193 9.12706 23.5105 9.25087 23.5048C9.31277 23.5019 9.36094 23.4998 9.39368 23.4985C9.41005 23.4978 9.42256 23.4973 9.431 23.497C9.43522 23.4968 9.43842 23.4967 9.44058 23.4966C9.44166 23.4965 9.44248 23.4965 9.44303 23.4965C9.44331 23.4965 9.44352 23.4965 9.44366 23.4965C9.44374 23.4965 9.44379 23.4965 9.44383 23.4965C9.44387 23.4965 9.4439 23.4965 9.44888 23.6297ZM3.30252 24.5346C2.40952 24.8388 1.85587 25.1431 1.5281 25.3677C1.36424 25.48 1.25676 25.5725 1.19149 25.6351C1.15884 25.6665 1.13672 25.6904 1.12336 25.7057C1.11667 25.7133 1.11217 25.7188 1.10963 25.7219C1.10836 25.7235 1.10759 25.7245 1.10727 25.725C1.10711 25.7252 1.10707 25.7252 1.10714 25.7251C1.10718 25.7251 1.10724 25.725 1.10733 25.7249C1.10738 25.7248 1.10743 25.7247 1.10749 25.7247C1.10752 25.7246 1.10757 25.7245 1.10758 25.7245C1.10763 25.7245 1.10769 25.7244 0.999985 25.6458C0.892284 25.5672 0.89234 25.5671 0.892399 25.567C0.89242 25.567 0.89248 25.5669 0.892524 25.5669C0.892611 25.5667 0.892705 25.5666 0.892806 25.5665C0.893008 25.5662 0.89324 25.5659 0.8935 25.5655C0.89402 25.5648 0.894657 25.564 0.895414 25.563C0.896928 25.561 0.89892 25.5585 0.901418 25.5553C0.906415 25.5491 0.913435 25.5406 0.922694 25.53C0.941215 25.5089 0.968678 25.4794 1.00682 25.4428C1.08311 25.3695 1.20202 25.2679 1.37736 25.1478C1.72801 24.9075 2.30413 24.593 3.21652 24.2821L3.30252 24.5346Z" fill="black" mask="url(#path-11-outside-1_2_2067)"/>
</g>
</g>
</g>
</g>
</g>
</g>
<defs>
<linearGradient id="paint0_linear_2_2067" x1="5.40121" y1="1.03335" x2="9.11489" y2="6.74314" gradientUnits="userSpaceOnUse">
<stop stop-color="white"/>
<stop offset="0.160976" stop-color="white"/>
<stop offset="0.200539" stop-color="white"/>
<stop offset="0.892683" stop-color="#B9B9B9"/>
<stop offset="0.892875" stop-color="#B9B9B9"/>
<stop offset="1" stop-color="#A3A3A3"/>
</linearGradient>
<linearGradient id="paint1_linear_2_2067" x1="3.60691" y1="13.6029" x2="10.0819" y2="13.6029" gradientUnits="userSpaceOnUse">
<stop stop-color="white"/>
<stop offset="0.160976" stop-color="white"/>
<stop offset="0.200539" stop-color="white"/>
<stop offset="0.892683" stop-color="#B9B9B9"/>
<stop offset="0.892875" stop-color="#B9B9B9"/>
<stop offset="1" stop-color="#A3A3A3"/>
</linearGradient>
<linearGradient id="paint2_linear_2_2067" x1="2.97263" y1="19.4432" x2="11.8496" y2="19.4432" gradientUnits="userSpaceOnUse">
<stop stop-color="white"/>
<stop offset="0.0498493" stop-color="white"/>
<stop offset="0.921951" stop-color="#B9B9B9"/>
<stop offset="0.92209" stop-color="#B9B9B9"/>
<stop offset="1" stop-color="#999999"/>
</linearGradient>
<linearGradient id="paint3_linear_2_2067" x1="2.8479" y1="19.2031" x2="6.95506" y2="19.2031" gradientUnits="userSpaceOnUse">
<stop stop-color="white"/>
<stop offset="0.0540694" stop-color="white"/>
<stop offset="1" stop-color="white"/>
</linearGradient>
<linearGradient id="paint4_linear_2_2067" x1="3.27702" y1="6.89089" x2="10.2894" y2="6.89089" gradientUnits="userSpaceOnUse">
<stop stop-color="white"/>
<stop offset="0.160976" stop-color="white"/>
<stop offset="0.200539" stop-color="white"/>
<stop offset="0.892683" stop-color="#B9B9B9"/>
<stop offset="0.892875" stop-color="#B9B9B9"/>
<stop offset="1" stop-color="#A3A3A3"/>
</linearGradient>
<linearGradient id="paint5_linear_2_2067" x1="2.26423" y1="21.0909" x2="12.5016" y2="21.0909" gradientUnits="userSpaceOnUse">
<stop stop-color="white"/>
<stop offset="0.0498493" stop-color="white"/>
<stop offset="0.921951" stop-color="#B9B9B9"/>
<stop offset="0.92209" stop-color="#B9B9B9"/>
<stop offset="1" stop-color="#999999"/>
</linearGradient>
<linearGradient id="paint6_linear_2_2067" x1="2.1659" y1="20.8147" x2="6.45105" y2="20.8147" gradientUnits="userSpaceOnUse">
<stop stop-color="white"/>
<stop offset="0.0540694" stop-color="white"/>
<stop offset="1" stop-color="white"/>
</linearGradient>
<linearGradient id="paint7_linear_2_2067" x1="1.49208" y1="23.0868" x2="13.2113" y2="23.0868" gradientUnits="userSpaceOnUse">
<stop stop-color="white"/>
<stop offset="0.0498493" stop-color="white"/>
<stop offset="0.921951" stop-color="#B9B9B9"/>
<stop offset="0.92209" stop-color="#B9B9B9"/>
<stop offset="1" stop-color="#999999"/>
</linearGradient>
<linearGradient id="paint8_linear_2_2067" x1="1.3183" y1="22.7696" x2="6.98368" y2="22.7696" gradientUnits="userSpaceOnUse">
<stop stop-color="white"/>
<stop offset="0.0540694" stop-color="white"/>
<stop offset="1" stop-color="white"/>
</linearGradient>
<linearGradient id="paint9_linear_2_2067" x1="0.444577" y1="26.182" x2="14.1746" y2="26.182" gradientUnits="userSpaceOnUse">
<stop stop-color="white"/>
<stop offset="0.0498493" stop-color="white"/>
<stop offset="0.921951" stop-color="#B9B9B9"/>
<stop offset="0.92209" stop-color="#B9B9B9"/>
<stop offset="1" stop-color="#999999"/>
</linearGradient>
<linearGradient id="paint10_linear_2_2067" x1="0.305539" y1="24.6377" x2="6.71651" y2="24.6377" gradientUnits="userSpaceOnUse">
<stop stop-color="white"/>
<stop offset="0.0540694" stop-color="white"/>
<stop offset="1" stop-color="white"/>
</linearGradient>
</defs>
</svg>
