<svg viewBox="0 0 16 37" fill="none" xmlns="http://www.w3.org/2000/svg">
<path d="M5.87326 3.0748L5.8672 3.04585L5.88459 3.02192C6.32256 2.41966 6.77512 1.90053 7.18618 1.53117C7.39166 1.34653 7.58813 1.19809 7.76841 1.09545C7.9476 0.993423 8.11654 0.933344 8.26545 0.933344C8.43468 0.933344 8.63037 1.01088 8.83875 1.14082C9.04868 1.27173 9.27876 1.46045 9.5185 1.69342C9.99813 2.15952 10.5219 2.80814 11.007 3.5418C11.9753 5.00611 12.8002 6.8257 12.8002 8.2235C12.8002 11.0092 10.7771 13.2798 8.26545 13.2798C5.75385 13.2798 3.73076 11.0092 3.73076 8.2235C3.73076 6.85835 4.51805 5.09207 5.45628 3.6463L5.54429 3.51067L5.57745 3.66892L6.51958 8.16507L6.51961 8.16518C6.54262 8.27593 6.65199 8.34726 6.76303 8.32417C6.87444 8.3009 6.94543 8.19174 6.92211 8.08051L6.92211 8.0805L5.87326 3.0748Z" fill="url(#paint0_linear_3_354)" stroke="black" stroke-width="0.1"/>
<path d="M6.0355 12.7931L6.04248 12.7342H6.1017H10.4292H10.4884L10.4954 12.7931L12.1313 26.5621L12.1401 26.6366H12.0651H4.46606H4.39101L4.39986 26.5621L6.0355 12.7931Z" fill="url(#paint1_linear_3_354)" stroke="black" stroke-width="0.1"/>
<path d="M3.50185 25.6821C3.50185 25.3446 3.77809 25.0688 4.11791 25.0688H12.4148C12.7535 25.0688 13.0287 25.3448 13.0287 25.6821V26.5525C13.0287 26.8913 12.7533 27.1653 12.4148 27.1653H4.11791C3.77828 27.1653 3.50185 26.8915 3.50185 26.5525V25.6821Z" fill="url(#paint2_linear_3_354)" stroke="black" stroke-width="0.1"/>
<g opacity="0.600006">
<g opacity="0.600006">
<g opacity="0.600006">
<g opacity="0.600006">
<g opacity="0.600006">
<path opacity="0.600006" d="M13.0289 26.5703V26.7751L12.9086 26.6098L12.9085 26.6098L12.9085 26.6097L12.9084 26.6096L12.9084 26.6095L12.9083 26.6095L12.9062 26.6068C12.9042 26.6043 12.9007 26.6 12.8957 26.5943C12.8857 26.5828 12.8694 26.5652 12.8456 26.5424C12.798 26.4967 12.7204 26.43 12.6025 26.3493C12.3667 26.1879 11.9698 25.9703 11.3308 25.7532L11.3307 25.7532C10.6972 25.5366 9.6151 25.3985 8.68494 25.3147C8.2212 25.2729 7.79743 25.2449 7.48959 25.2272C7.33568 25.2184 7.21079 25.2122 7.12442 25.2082L7.02493 25.2038L6.99909 25.2028L6.99253 25.2025L6.99089 25.2025L6.99049 25.2024L6.99039 25.2024L6.99286 25.1358L6.99036 25.2024L6.99286 25.0691H12.415C12.7531 25.0691 13.0289 25.3448 13.0289 25.6822V26.5703Z" fill="url(#paint3_linear_3_354)" stroke="black" stroke-width="0.1"/>
</g>
</g>
</g>
</g>
</g>
<path d="M4.08314 12.2947C4.08314 11.9767 4.34011 11.7204 4.65745 11.7204H11.8714C12.1898 11.7204 12.4462 11.9767 12.4462 12.2947C12.4462 12.6111 12.1897 12.8676 11.8714 12.8676H4.65745C4.34021 12.8676 4.08314 12.6111 4.08314 12.2947Z" fill="url(#paint4_linear_3_354)" stroke="black" stroke-width="0.1"/>
<path d="M2.78157 27.4293C2.78157 27.0458 3.0945 26.7335 3.48224 26.7335H13.0507C13.4369 26.7335 13.7494 27.0459 13.7494 27.4293V28.4339C13.7494 28.8196 13.4368 29.1299 13.0507 29.1299H3.48224C3.09462 29.1299 2.78157 28.8197 2.78157 28.4339V27.4293Z" fill="url(#paint5_linear_3_354)" stroke="black" stroke-width="0.1"/>
<g opacity="0.600006">
<g opacity="0.600006">
<g opacity="0.600006">
<g opacity="0.600006">
<g opacity="0.600006">
<path opacity="0.600006" d="M13.7494 28.4553V28.66L13.629 28.4948L13.629 28.4948L13.629 28.4947L13.6289 28.4946L13.6289 28.4946L13.6287 28.4943L13.6261 28.491C13.6237 28.488 13.6196 28.483 13.6137 28.4762C13.6019 28.4627 13.5829 28.4422 13.5552 28.4156C13.4998 28.3624 13.4098 28.285 13.2734 28.1915C13.0005 28.0045 12.5421 27.753 11.8051 27.502L11.8051 27.502C11.0722 27.2519 9.87121 27.0926 8.84753 26.9961C8.33691 26.9479 7.87245 26.9156 7.53564 26.8952C7.36725 26.8851 7.2308 26.8779 7.1365 26.8733L7.02792 26.8682L6.99973 26.867L6.99258 26.8667L6.99079 26.8667L6.99035 26.8666L6.99025 26.8666L6.99286 26.8L6.99022 26.8666L6.99286 26.7334H13.0507C13.4369 26.7334 13.7494 27.0458 13.7494 27.4294V28.4553ZM8.1037 26.8667C9.21584 26.9493 10.8923 27.12 11.8266 27.4389L8.1037 26.8667Z" fill="url(#paint6_linear_3_354)" stroke="black" stroke-width="0.1"/>
</g>
</g>
</g>
</g>
</g>
<path d="M1.99715 29.5554C1.99715 29.1207 2.35145 28.7672 2.78897 28.7672H13.7436C14.1799 28.7672 14.5338 29.1208 14.5338 29.5554V30.7055C14.5338 31.1403 14.1797 31.4924 13.7436 31.4924H2.78897C2.35162 31.4924 1.99715 31.1404 1.99715 30.7055V29.5554Z" fill="url(#paint7_linear_3_354)" stroke="black" stroke-width="0.1"/>
<g opacity="0.600006">
<g opacity="0.600006">
<g opacity="0.600006">
<g opacity="0.600006">
<g opacity="0.600006">
<g opacity="0.600006">
<mask id="path-9-outside-1_3_354" maskUnits="userSpaceOnUse" x="4.89314" y="28.0612" width="10.6667" height="4" fill="black">
<rect fill="white" x="4.89314" y="28.0612" width="10.6667" height="4"/>
<path d="M14.4671 30.7279V29.5554C14.4671 29.1578 14.1432 28.8335 13.7436 28.8335H6.22647C6.22647 28.8335 10.6446 28.9869 12.3427 29.565C14.0406 30.143 14.4671 30.7279 14.4671 30.7279Z"/>
</mask>
<path d="M14.4671 30.7279V29.5554C14.4671 29.1578 14.1432 28.8335 13.7436 28.8335H6.22647C6.22647 28.8335 10.6446 28.9869 12.3427 29.565C14.0406 30.143 14.4671 30.7279 14.4671 30.7279Z" fill="url(#paint8_linear_3_354)"/>
<path d="M6.22647 28.8335L6.22184 28.9668L6.22647 28.7002V28.8335ZM12.3427 29.565L12.3857 29.4388L12.3857 29.4388L12.3427 29.565ZM14.3338 30.7279V29.5554H14.6005V30.7279H14.3338ZM14.3338 29.5554C14.3338 29.2316 14.0697 28.9669 13.7436 28.9669V28.7002C14.2166 28.7002 14.6005 29.084 14.6005 29.5554H14.3338ZM13.7436 28.9669H6.22647V28.7002H13.7436V28.9669ZM6.22647 28.8335C6.2311 28.7003 6.23112 28.7003 6.23116 28.7003C6.2312 28.7003 6.23126 28.7003 6.23133 28.7003C6.23147 28.7003 6.23169 28.7003 6.23196 28.7003C6.23252 28.7003 6.23334 28.7004 6.23443 28.7004C6.2366 28.7005 6.23983 28.7006 6.24407 28.7008C6.25257 28.7011 6.26517 28.7015 6.28164 28.7022C6.3146 28.7034 6.36308 28.7054 6.42534 28.7081C6.54986 28.7134 6.72953 28.7217 6.9504 28.7334C7.39208 28.7569 7.99882 28.7942 8.65894 28.8496C9.97312 28.96 11.5186 29.1436 12.3857 29.4388L12.2997 29.6912C11.4687 29.4083 9.95603 29.2262 8.63662 29.1154C7.97995 29.0602 7.37604 29.0231 6.93626 28.9997C6.7164 28.988 6.53764 28.9798 6.41391 28.9745C6.35205 28.9718 6.30396 28.9699 6.27136 28.9686C6.25507 28.968 6.24265 28.9676 6.23432 28.9672C6.23016 28.9671 6.22702 28.967 6.22493 28.9669C6.22389 28.9669 6.2231 28.9668 6.22259 28.9668C6.22233 28.9668 6.22214 28.9668 6.22202 28.9668C6.22195 28.9668 6.22191 28.9668 6.22188 28.9668C6.22185 28.9668 6.22184 28.9668 6.22647 28.8335ZM12.3857 29.4388C13.2443 29.7311 13.7866 30.0269 14.117 30.2532C14.2822 30.3664 14.3943 30.4621 14.4663 30.5313C14.5023 30.5659 14.5283 30.5938 14.5458 30.6138C14.5546 30.6239 14.5613 30.632 14.5661 30.6379C14.5684 30.6409 14.5704 30.6434 14.5718 30.6453C14.5725 30.6462 14.5732 30.647 14.5737 30.6477C14.5739 30.6481 14.5741 30.6484 14.5743 30.6486C14.5744 30.6488 14.5745 30.6489 14.5746 30.649C14.5747 30.6491 14.5747 30.6491 14.5747 30.6492C14.5748 30.6493 14.5749 30.6493 14.4671 30.7279C14.3594 30.8065 14.3595 30.8065 14.3595 30.8066C14.3595 30.8066 14.3596 30.8067 14.3596 30.8067C14.3597 30.8068 14.3597 30.8069 14.3598 30.807C14.3599 30.8071 14.3599 30.8072 14.36 30.8072C14.3601 30.8074 14.36 30.8073 14.3599 30.8072C14.3596 30.8068 14.359 30.8059 14.3578 30.8045C14.3555 30.8016 14.3513 30.7965 14.3451 30.7894C14.3327 30.7753 14.3121 30.753 14.2816 30.7237C14.2206 30.6651 14.1199 30.5785 13.9663 30.4732C13.6588 30.2626 13.139 29.9769 12.2997 29.6912L12.3857 29.4388Z" fill="black" mask="url(#path-9-outside-1_3_354)"/>
</g>
</g>
</g>
</g>
</g>
</g>
<path d="M0.933333 31.5748C0.933333 31.0715 1.34367 30.6612 1.8477 30.6612H14.6825C15.189 30.6612 15.5977 31.0715 15.5977 31.5748V35.5038C15.5977 36.0075 15.1888 36.4154 14.6825 36.4154H1.8477C1.34389 36.4154 0.933333 36.0075 0.933333 35.5038V31.5748Z" fill="url(#paint9_linear_3_354)" stroke="black" stroke-width="0.1"/>
<g opacity="0.600006">
<g opacity="0.600006">
<g opacity="0.600006">
<g opacity="0.600006">
<g opacity="0.600006">
<g opacity="0.600006">
<mask id="path-12-outside-2_3_354" maskUnits="userSpaceOnUse" x="4.89314" y="30.2819" width="12" height="4" fill="black">
<rect fill="white" x="4.89314" y="30.2819" width="12" height="4"/>
<path d="M15.531 32.9485V31.5746C15.531 31.1082 15.1522 30.728 14.6825 30.728H6.22647C6.22647 30.728 11.0534 30.9084 13.0422 31.5858C15.031 32.2629 15.531 32.9485 15.531 32.9485Z"/>
</mask>
<path d="M15.531 32.9485V31.5746C15.531 31.1082 15.1522 30.728 14.6825 30.728H6.22647C6.22647 30.728 11.0534 30.9084 13.0422 31.5858C15.031 32.2629 15.531 32.9485 15.531 32.9485Z" fill="url(#paint10_linear_3_354)"/>
<path d="M6.22647 30.728L6.22149 30.8613L6.22647 30.5947V30.728ZM13.0422 31.5858L12.9992 31.712L12.9992 31.712L13.0422 31.5858ZM15.3977 32.9485V31.5746H15.6643V32.9485H15.3977ZM15.3977 31.5746C15.3977 31.1819 15.0786 30.8613 14.6825 30.8613V30.5947C15.2258 30.5947 15.6643 31.0345 15.6643 31.5746H15.3977ZM14.6825 30.8613H6.22647V30.5947H14.6825V30.8613ZM6.22647 30.728C6.23145 30.5948 6.23148 30.5948 6.23152 30.5948C6.23156 30.5948 6.23162 30.5948 6.2317 30.5948C6.23186 30.5948 6.23209 30.5948 6.2324 30.5948C6.233 30.5948 6.2339 30.5949 6.23509 30.5949C6.23746 30.595 6.24098 30.5951 6.24562 30.5953C6.25491 30.5957 6.26868 30.5962 6.28669 30.597C6.32272 30.5985 6.37575 30.6008 6.4439 30.6039C6.58019 30.6102 6.77699 30.6199 7.01932 30.6337C7.50392 30.6612 8.17092 30.705 8.90038 30.7701C10.3539 30.8997 12.0734 31.115 13.0852 31.4596L12.9992 31.712C12.0222 31.3793 10.3339 31.1656 8.87669 31.0357C8.15082 30.971 7.48679 30.9273 7.00418 30.8999C6.76292 30.8862 6.56708 30.8765 6.43163 30.8703C6.36391 30.8672 6.31129 30.8649 6.27564 30.8634C6.25782 30.8627 6.24424 30.8621 6.23513 30.8618C6.23058 30.8616 6.22715 30.8615 6.22487 30.8614C6.22372 30.8613 6.22287 30.8613 6.22231 30.8613C6.22202 30.8613 6.22182 30.8613 6.22168 30.8613C6.22161 30.8613 6.22156 30.8613 6.22153 30.8613C6.2215 30.8613 6.22149 30.8613 6.22647 30.728ZM13.0852 31.4596C14.0893 31.8015 14.7227 32.1472 15.1078 32.4111C15.3003 32.5431 15.4307 32.6545 15.5141 32.7346C15.5559 32.7747 15.5858 32.8069 15.606 32.8299C15.616 32.8415 15.6236 32.8507 15.629 32.8574C15.6317 32.8607 15.6338 32.8635 15.6355 32.8656C15.6363 32.8666 15.6369 32.8675 15.6375 32.8683C15.6377 32.8686 15.638 32.8689 15.6382 32.8692C15.6383 32.8694 15.6384 32.8695 15.6385 32.8696C15.6385 32.8697 15.6386 32.8698 15.6386 32.8698C15.6387 32.8699 15.6387 32.87 15.531 32.9485C15.4233 33.0271 15.4233 33.0272 15.4234 33.0272C15.4234 33.0272 15.4234 33.0273 15.4235 33.0274C15.4235 33.0274 15.4236 33.0275 15.4236 33.0276C15.4237 33.0277 15.4238 33.0277 15.4238 33.0278C15.4238 33.0278 15.4238 33.0277 15.4235 33.0275C15.4231 33.0269 15.4222 33.0257 15.4208 33.0239C15.4178 33.0203 15.4128 33.0141 15.4053 33.0055C15.3903 32.9884 15.3657 32.9618 15.3294 32.927C15.257 32.8574 15.1381 32.7552 14.957 32.6311C14.5949 32.3829 13.9839 32.0473 12.9992 31.712L13.0852 31.4596Z" fill="black" mask="url(#path-12-outside-2_3_354)"/>
</g>
</g>
</g>
</g>
</g>
</g>
<defs>
<linearGradient id="paint0_linear_3_354" x1="12.7337" y1="7.10657" x2="3.79756" y2="7.10657" gradientUnits="userSpaceOnUse">
<stop stop-color="white"/>
<stop offset="0.0498493" stop-color="white"/>
<stop offset="0.921951" stop-color="#B9B9B9"/>
<stop offset="0.92209" stop-color="#B9B9B9"/>
<stop offset="1" stop-color="#999999"/>
</linearGradient>
<linearGradient id="paint1_linear_3_354" x1="12.6598" y1="19.6855" x2="5.52937" y2="19.6855" gradientUnits="userSpaceOnUse">
<stop stop-color="white"/>
<stop offset="0.160976" stop-color="white"/>
<stop offset="0.200539" stop-color="white"/>
<stop offset="0.892683" stop-color="#B9B9B9"/>
<stop offset="0.892875" stop-color="#B9B9B9"/>
<stop offset="1" stop-color="#A3A3A3"/>
</linearGradient>
<linearGradient id="paint2_linear_3_354" x1="13.3577" y1="26.1171" x2="3.58265" y2="26.1171" gradientUnits="userSpaceOnUse">
<stop stop-color="white"/>
<stop offset="0.0498493" stop-color="white"/>
<stop offset="0.921951" stop-color="#B9B9B9"/>
<stop offset="0.92209" stop-color="#B9B9B9"/>
<stop offset="1" stop-color="#999999"/>
</linearGradient>
<linearGradient id="paint3_linear_3_354" x1="13.4952" y1="25.8529" x2="8.97221" y2="25.8529" gradientUnits="userSpaceOnUse">
<stop stop-color="white"/>
<stop offset="0.0540694" stop-color="white"/>
<stop offset="1" stop-color="white"/>
</linearGradient>
<linearGradient id="paint4_linear_3_354" x1="13.0234" y1="12.294" x2="5.30098" y2="12.294" gradientUnits="userSpaceOnUse">
<stop stop-color="white"/>
<stop offset="0.160976" stop-color="white"/>
<stop offset="0.200539" stop-color="white"/>
<stop offset="0.892683" stop-color="#B9B9B9"/>
<stop offset="0.892875" stop-color="#B9B9B9"/>
<stop offset="1" stop-color="#A3A3A3"/>
</linearGradient>
<linearGradient id="paint5_linear_3_354" x1="14.1391" y1="27.9317" x2="2.86475" y2="27.9317" gradientUnits="userSpaceOnUse">
<stop stop-color="white"/>
<stop offset="0.0498493" stop-color="white"/>
<stop offset="0.921951" stop-color="#B9B9B9"/>
<stop offset="0.92209" stop-color="#B9B9B9"/>
<stop offset="1" stop-color="#999999"/>
</linearGradient>
<linearGradient id="paint6_linear_3_354" x1="14.2473" y1="27.6277" x2="9.52763" y2="27.6277" gradientUnits="userSpaceOnUse">
<stop stop-color="white"/>
<stop offset="0.0540694" stop-color="white"/>
<stop offset="1" stop-color="white"/>
</linearGradient>
<linearGradient id="paint7_linear_3_354" x1="14.9893" y1="30.1298" x2="2.08247" y2="30.1298" gradientUnits="userSpaceOnUse">
<stop stop-color="white"/>
<stop offset="0.0498493" stop-color="white"/>
<stop offset="0.921951" stop-color="#B9B9B9"/>
<stop offset="0.92209" stop-color="#B9B9B9"/>
<stop offset="1" stop-color="#999999"/>
</linearGradient>
<linearGradient id="paint8_linear_3_354" x1="15.181" y1="29.7808" x2="8.94146" y2="29.7808" gradientUnits="userSpaceOnUse">
<stop stop-color="white"/>
<stop offset="0.0540694" stop-color="white"/>
<stop offset="1" stop-color="white"/>
</linearGradient>
<linearGradient id="paint9_linear_3_354" x1="16.1429" y1="33.5384" x2="1.02228" y2="33.5384" gradientUnits="userSpaceOnUse">
<stop stop-color="white"/>
<stop offset="0.0498493" stop-color="white"/>
<stop offset="0.921951" stop-color="#B9B9B9"/>
<stop offset="0.92209" stop-color="#B9B9B9"/>
<stop offset="1" stop-color="#999999"/>
</linearGradient>
<linearGradient id="paint10_linear_3_354" x1="16.2958" y1="31.8382" x2="9.23546" y2="31.8382" gradientUnits="userSpaceOnUse">
<stop stop-color="white"/>
<stop offset="0.0540694" stop-color="white"/>
<stop offset="1" stop-color="white"/>
</linearGradient>
</defs>
</svg>
