<svg viewBox="0 0 18 33" fill="none" xmlns="http://www.w3.org/2000/svg">
<mask id="path-1-outside-1_3_277" maskUnits="userSpaceOnUse" x="-0.458303" y="0.831605" width="17.3333" height="21.3333" fill="black">
<rect fill="white" x="-0.458303" y="0.831605" width="17.3333" height="21.3333"/>
<path d="M2.95143 2.11044C3.03467 2.17266 2.76721 2.4696 2.4588 2.99744C2.38266 2.97069 2.30079 2.95596 2.21618 2.95596C1.80898 2.95596 1.47928 3.28592 1.47928 3.69312C1.47928 3.84132 1.52294 3.97916 1.59827 4.09488C1.33299 4.20623 1.14714 4.4685 1.14714 4.77417C1.14714 4.96522 1.21973 5.13963 1.33872 5.27008C1.14331 5.40272 1.01422 5.62707 1.01422 5.88171C1.01422 6.13389 1.14085 6.35632 1.33436 6.48896C1.06498 6.59868 0.875031 6.86314 0.875031 7.17182C0.875031 7.43055 1.00822 7.65763 1.20964 7.78945C1.08846 7.92045 1.01422 8.0962 1.01422 8.28889C1.01422 8.49904 1.10211 8.68845 1.24294 8.82246C1.1818 8.92972 1.14714 9.05362 1.14714 9.18572C1.14714 9.48239 1.32263 9.73812 1.57563 9.8552C1.51422 9.96246 1.47928 10.0866 1.47928 10.219C1.47928 10.4966 1.63267 10.7381 1.85947 10.8642C1.79096 10.9758 1.75112 11.1074 1.75112 11.2485C1.75112 11.5602 1.94462 11.8265 2.21809 11.9341C2.217 11.9513 2.21618 11.9682 2.21618 11.9857C2.21618 12.3336 2.45717 12.6248 2.7814 12.7026C2.7814 12.7092 2.78113 12.7157 2.78113 12.7225C2.78113 13.1036 3.0696 13.4171 3.44051 13.4559C3.58679 13.6622 3.74427 13.8658 3.91457 14.0661C5.9293 16.4351 4.41731 19.7607 4.53903 20.2809C4.66048 20.8014 5.54203 20.7413 7.93284 20.8079C10.3242 20.8742 13.9445 20.8409 14.8408 20.1766C15.7377 19.5126 16.1358 18.5164 15.9699 17.6529C15.804 16.7894 15.1399 16.1587 15.0731 15.7263C15.007 15.2949 15.4721 13.4349 14.0439 12.6382C12.6162 11.841 9.42737 9.81154 9.36133 9.24877C9.295 8.68627 10.5903 8.0681 11.5865 8.17781C12.5826 8.28725 13.6454 9.31291 14.1768 9.24877C14.7079 9.18436 14.7412 8.62513 15.1069 8.57245C15.4721 8.52005 15.6713 8.01105 15.4391 7.73431C15.206 7.45702 13.0474 6.36151 13.3793 6.1953C13.5365 6.11697 13.9997 6.37323 14.4677 6.63005C14.9882 6.91526 15.5155 7.20047 15.638 7.02553C15.8703 6.69338 16.4423 6.32821 16.0067 5.531C15.5717 4.73406 15.605 3.7709 14.7412 3.45513C13.8779 3.13991 10.3542 2.5422 9.72458 2.24335C9.35177 2.06622 8.70931 2.07579 8.09632 2.08507C7.67493 2.09161 7.26717 2.09816 6.96996 2.04412C6.23934 1.91121 4.21344 1.29113 3.1414 1.14702C3.0295 1.13201 2.93096 1.12492 2.84553 1.12492C2.11355 1.12465 2.32862 1.64428 2.95143 2.11044Z"/>
</mask>
<path d="M2.95143 2.11044C3.03467 2.17266 2.76721 2.4696 2.4588 2.99744C2.38266 2.97069 2.30079 2.95596 2.21618 2.95596C1.80898 2.95596 1.47928 3.28592 1.47928 3.69312C1.47928 3.84132 1.52294 3.97916 1.59827 4.09488C1.33299 4.20623 1.14714 4.4685 1.14714 4.77417C1.14714 4.96522 1.21973 5.13963 1.33872 5.27008C1.14331 5.40272 1.01422 5.62707 1.01422 5.88171C1.01422 6.13389 1.14085 6.35632 1.33436 6.48896C1.06498 6.59868 0.875031 6.86314 0.875031 7.17182C0.875031 7.43055 1.00822 7.65763 1.20964 7.78945C1.08846 7.92045 1.01422 8.0962 1.01422 8.28889C1.01422 8.49904 1.10211 8.68845 1.24294 8.82246C1.1818 8.92972 1.14714 9.05362 1.14714 9.18572C1.14714 9.48239 1.32263 9.73812 1.57563 9.8552C1.51422 9.96246 1.47928 10.0866 1.47928 10.219C1.47928 10.4966 1.63267 10.7381 1.85947 10.8642C1.79096 10.9758 1.75112 11.1074 1.75112 11.2485C1.75112 11.5602 1.94462 11.8265 2.21809 11.9341C2.217 11.9513 2.21618 11.9682 2.21618 11.9857C2.21618 12.3336 2.45717 12.6248 2.7814 12.7026C2.7814 12.7092 2.78113 12.7157 2.78113 12.7225C2.78113 13.1036 3.0696 13.4171 3.44051 13.4559C3.58679 13.6622 3.74427 13.8658 3.91457 14.0661C5.9293 16.4351 4.41731 19.7607 4.53903 20.2809C4.66048 20.8014 5.54203 20.7413 7.93284 20.8079C10.3242 20.8742 13.9445 20.8409 14.8408 20.1766C15.7377 19.5126 16.1358 18.5164 15.9699 17.6529C15.804 16.7894 15.1399 16.1587 15.0731 15.7263C15.007 15.2949 15.4721 13.4349 14.0439 12.6382C12.6162 11.841 9.42737 9.81154 9.36133 9.24877C9.295 8.68627 10.5903 8.0681 11.5865 8.17781C12.5826 8.28725 13.6454 9.31291 14.1768 9.24877C14.7079 9.18436 14.7412 8.62513 15.1069 8.57245C15.4721 8.52005 15.6713 8.01105 15.4391 7.73431C15.206 7.45702 13.0474 6.36151 13.3793 6.1953C13.5365 6.11697 13.9997 6.37323 14.4677 6.63005C14.9882 6.91526 15.5155 7.20047 15.638 7.02553C15.8703 6.69338 16.4423 6.32821 16.0067 5.531C15.5717 4.73406 15.605 3.7709 14.7412 3.45513C13.8779 3.13991 10.3542 2.5422 9.72458 2.24335C9.35177 2.06622 8.70931 2.07579 8.09632 2.08507C7.67493 2.09161 7.26717 2.09816 6.96996 2.04412C6.23934 1.91121 4.21344 1.29113 3.1414 1.14702C3.0295 1.13201 2.93096 1.12492 2.84553 1.12492C2.11355 1.12465 2.32862 1.64428 2.95143 2.11044Z" fill="url(#paint0_linear_3_277)"/>
<path d="M2.4588 2.99744L2.57393 3.0647L2.51842 3.1597L2.41461 3.12324L2.4588 2.99744ZM1.59827 4.09488L1.71001 4.02214L1.79715 4.156L1.64987 4.21782L1.59827 4.09488ZM1.33872 5.27008L1.43723 5.18023L1.54096 5.29395L1.4136 5.3804L1.33872 5.27008ZM1.33436 6.48896L1.40974 6.37898L1.61403 6.51902L1.38465 6.61245L1.33436 6.48896ZM1.20964 7.78945L1.28265 7.67788L1.41459 7.76423L1.30752 7.87999L1.20964 7.78945ZM1.24294 8.82246L1.33485 8.72587L1.41046 8.79781L1.35878 8.88848L1.24294 8.82246ZM1.57563 9.8552L1.63163 9.7342L1.76358 9.79526L1.69134 9.92145L1.57563 9.8552ZM1.85947 10.8642L1.92425 10.7477L2.04591 10.8153L1.97311 10.9339L1.85947 10.8642ZM2.21809 11.9341L2.26689 11.81L2.35732 11.8455L2.35116 11.9425L2.21809 11.9341ZM2.7814 12.7026L2.8125 12.573L2.91473 12.5975V12.7026H2.7814ZM3.44051 13.4559L3.45436 13.3233L3.51438 13.3295L3.54927 13.3788L3.44051 13.4559ZM3.91457 14.0661L3.81301 14.1525L3.81299 14.1525L3.91457 14.0661ZM4.53903 20.2809L4.66886 20.2505L4.66888 20.2506L4.53903 20.2809ZM7.93284 20.8079L7.92914 20.9412L7.92913 20.9412L7.93284 20.8079ZM14.8408 20.1766L14.7614 20.0695L14.7615 20.0695L14.8408 20.1766ZM15.0731 15.7263L14.9413 15.7467L14.9413 15.7465L15.0731 15.7263ZM14.0439 12.6382L13.9789 12.7547L13.9789 12.7546L14.0439 12.6382ZM9.36133 9.24877L9.49374 9.23315L9.49375 9.23323L9.36133 9.24877ZM11.5865 8.17781L11.5719 8.31035L11.5719 8.31034L11.5865 8.17781ZM14.1768 9.24877L14.1928 9.38113L14.1928 9.38114L14.1768 9.24877ZM15.1069 8.57245L15.0879 8.44048L15.088 8.44047L15.1069 8.57245ZM15.4391 7.73431L15.5411 7.64852L15.5412 7.6486L15.4391 7.73431ZM13.3793 6.1953L13.3196 6.07608L13.3198 6.07596L13.3793 6.1953ZM14.4677 6.63005L14.4037 6.74698L14.4036 6.74695L14.4677 6.63005ZM15.638 7.02553L15.7473 7.10194L15.7472 7.10203L15.638 7.02553ZM16.0067 5.531L15.8897 5.59493L15.8897 5.59488L16.0067 5.531ZM14.7412 3.45513L14.7869 3.32989L14.787 3.3299L14.7412 3.45513ZM9.72458 2.24335L9.66741 2.3638L9.66737 2.36378L9.72458 2.24335ZM8.09632 2.08507L8.09425 1.95175L8.0943 1.95175L8.09632 2.08507ZM6.96996 2.04412L6.94611 2.1753L6.94609 2.1753L6.96996 2.04412ZM3.1414 1.14702L3.15912 1.01487L3.15916 1.01488L3.1414 1.14702ZM2.84553 1.12492V1.25825H2.84548L2.84553 1.12492ZM3.03126 2.00364C3.08256 2.04199 3.09998 2.09745 3.10014 2.14432C3.10028 2.18507 3.08801 2.2228 3.0765 2.25117C3.05302 2.30906 3.01113 2.37823 2.96418 2.45137C2.86575 2.6047 2.72634 2.80384 2.57393 3.0647L2.34368 2.93017C2.49966 2.66321 2.6482 2.44996 2.73978 2.3073C2.78784 2.23244 2.81649 2.18273 2.82939 2.15093C2.83607 2.13447 2.83344 2.13467 2.83348 2.14521C2.83353 2.16187 2.8411 2.19443 2.8716 2.21723L3.03126 2.00364ZM2.41461 3.12324C2.35222 3.10132 2.28527 3.08929 2.21618 3.08929V2.82263C2.3163 2.82263 2.4131 2.84006 2.50299 2.87164L2.41461 3.12324ZM2.21618 3.08929C1.88268 3.08929 1.61261 3.3595 1.61261 3.69312H1.34595C1.34595 3.21235 1.73528 2.82263 2.21618 2.82263V3.08929ZM1.61261 3.69312C1.61261 3.81471 1.64834 3.9274 1.71001 4.02214L1.48652 4.16762C1.39754 4.03092 1.34595 3.86793 1.34595 3.69312H1.61261ZM1.64987 4.21782C1.4325 4.30907 1.28047 4.52392 1.28047 4.77417H1.0138C1.0138 4.41308 1.23347 4.1034 1.54666 3.97194L1.64987 4.21782ZM1.28047 4.77417C1.28047 4.9309 1.33991 5.07353 1.43723 5.18023L1.24021 5.35994C1.09955 5.20572 1.0138 4.99954 1.0138 4.77417H1.28047ZM1.4136 5.3804C1.25309 5.48936 1.14756 5.67323 1.14756 5.88171H0.880891C0.880891 5.58092 1.03353 5.31609 1.26384 5.15976L1.4136 5.3804ZM1.14756 5.88171C1.14756 6.08813 1.251 6.27017 1.40974 6.37898L1.25897 6.59894C1.03071 6.44247 0.880891 6.17966 0.880891 5.88171H1.14756ZM1.38465 6.61245C1.16372 6.70243 1.00836 6.91924 1.00836 7.17182H0.741697C0.741697 6.80705 0.966241 6.49492 1.28406 6.36548L1.38465 6.61245ZM1.00836 7.17182C1.00836 7.38355 1.11715 7.56956 1.28265 7.67788L1.13662 7.90101C0.899295 7.74569 0.741697 7.47756 0.741697 7.17182H1.00836ZM1.30752 7.87999C1.20825 7.9873 1.14756 8.13104 1.14756 8.28889H0.880891C0.880891 8.06136 0.968668 7.8536 1.11176 7.69891L1.30752 7.87999ZM1.14756 8.28889C1.14756 8.46106 1.21939 8.616 1.33485 8.72587L1.15103 8.91905C0.984828 8.7609 0.880891 8.53701 0.880891 8.28889H1.14756ZM1.35878 8.88848C1.30887 8.97605 1.28047 9.07726 1.28047 9.18572H1.0138C1.0138 9.02999 1.05474 8.88338 1.1271 8.75643L1.35878 8.88848ZM1.28047 9.18572C1.28047 9.42841 1.42392 9.63807 1.63163 9.7342L1.51963 9.9762C1.22134 9.83816 1.0138 9.53637 1.0138 9.18572H1.28047ZM1.69134 9.92145C1.64122 10.009 1.61261 10.1104 1.61261 10.219H1.34595C1.34595 10.0629 1.38722 9.91593 1.45992 9.78895L1.69134 9.92145ZM1.61261 10.219C1.61261 10.4461 1.73795 10.6441 1.92425 10.7477L1.79468 10.9807C1.52738 10.8321 1.34595 10.547 1.34595 10.219H1.61261ZM1.97311 10.9339C1.91704 11.0253 1.88446 11.1328 1.88446 11.2485H1.61779C1.61779 11.0819 1.66488 10.9264 1.74583 10.7945L1.97311 10.9339ZM1.88446 11.2485C1.88446 11.5035 2.04271 11.7218 2.26689 11.81L2.1693 12.0581C1.84654 11.9312 1.61779 11.6168 1.61779 11.2485H1.88446ZM2.35116 11.9425C2.35014 11.9586 2.34951 11.9723 2.34951 11.9857H2.08285C2.08285 11.9641 2.08386 11.944 2.08503 11.9256L2.35116 11.9425ZM2.34951 11.9857C2.34951 12.2704 2.54671 12.5092 2.8125 12.573L2.7503 12.8323C2.36763 12.7405 2.08285 12.3968 2.08285 11.9857H2.34951ZM2.91473 12.7026C2.91473 12.7075 2.91463 12.7121 2.91457 12.7152C2.9145 12.7186 2.91447 12.7207 2.91447 12.7225H2.6478C2.6478 12.7176 2.6479 12.7129 2.64796 12.7098C2.64803 12.7062 2.64807 12.7043 2.64807 12.7026H2.91473ZM2.91447 12.7225C2.91447 13.0347 3.15078 13.2916 3.45436 13.3233L3.42665 13.5885C2.98842 13.5427 2.6478 13.1724 2.6478 12.7225H2.91447ZM3.54927 13.3788C3.69338 13.582 3.84847 13.7825 4.01616 13.9798L3.81299 14.1525C3.64007 13.9491 3.48021 13.7424 3.33174 13.533L3.54927 13.3788ZM4.01614 13.9798C5.05678 15.2034 5.18193 16.6699 5.06944 17.8792C5.01314 18.4843 4.8969 19.0298 4.80363 19.4523C4.75665 19.6651 4.71631 19.8431 4.69117 19.9849C4.67865 20.0556 4.6705 20.1141 4.66707 20.1611C4.66352 20.2099 4.66583 20.2376 4.66886 20.2505L4.4092 20.3113C4.39702 20.2592 4.39688 20.1999 4.40111 20.1417C4.40548 20.0817 4.41536 20.0131 4.4286 19.9384C4.45498 19.7895 4.49706 19.6039 4.54323 19.3948C4.63626 18.9734 4.74927 18.4419 4.80392 17.8545C4.9133 16.6786 4.78709 15.2979 3.81301 14.1525L4.01614 13.9798ZM4.66888 20.2506C4.689 20.3368 4.73722 20.4008 4.84401 20.4542C4.959 20.5118 5.13564 20.5533 5.3994 20.5821C5.92666 20.6397 6.73407 20.6411 7.93655 20.6746L7.92913 20.9412C6.74079 20.9081 5.91202 20.9063 5.37045 20.8472C5.09979 20.8176 4.88385 20.7723 4.72467 20.6927C4.5573 20.6089 4.44979 20.4852 4.40919 20.3112L4.66888 20.2506ZM7.93654 20.6746C9.13051 20.7078 10.6289 20.7159 11.9391 20.6332C12.5944 20.5918 13.1996 20.5279 13.6947 20.4339C14.1959 20.3387 14.5637 20.2161 14.7614 20.0695L14.9202 20.2838C14.6699 20.4693 14.2489 20.6 13.7445 20.6958C13.234 20.7928 12.6166 20.8576 11.9559 20.8993C10.634 20.9828 9.12653 20.9744 7.92914 20.9412L7.93654 20.6746ZM14.7615 20.0695C15.6236 19.4311 15.9938 18.4837 15.839 17.6781L16.1008 17.6277C16.2779 18.5491 15.8517 19.5941 14.9202 20.2838L14.7615 20.0695ZM15.839 17.6781C15.7608 17.2713 15.5644 16.9151 15.3705 16.5974C15.2756 16.4418 15.1775 16.2896 15.1016 16.1532C15.0259 16.0171 14.9618 15.8794 14.9413 15.7467L15.2048 15.706C15.2177 15.7895 15.2618 15.8927 15.3346 16.0235C15.4071 16.1538 15.498 16.2944 15.5981 16.4585C15.7944 16.7801 16.0131 17.1709 16.1008 17.6277L15.839 17.6781ZM14.9413 15.7465C14.9309 15.6785 14.9316 15.5905 14.9352 15.4973C14.9388 15.4034 14.9462 15.2875 14.9521 15.1674C14.964 14.9219 14.9708 14.6327 14.9368 14.3343C14.8689 13.7385 14.6408 13.1239 13.9789 12.7547L14.1088 12.5218C14.8751 12.9492 15.1287 13.6629 15.2018 14.3041C15.2383 14.6243 15.2305 14.9307 15.2184 15.1803C15.2122 15.3077 15.2053 15.4141 15.2017 15.5076C15.1981 15.6018 15.1988 15.6663 15.2049 15.7062L14.9413 15.7465ZM13.9789 12.7546C13.2614 12.354 12.1038 11.6451 11.1164 10.9654C10.623 10.6257 10.1692 10.2914 9.83356 10.0051C9.66601 9.86226 9.52481 9.7288 9.42226 9.6107C9.37098 9.55165 9.32725 9.49403 9.2945 9.43895C9.26259 9.38528 9.23612 9.32579 9.2289 9.26431L9.49375 9.23323C9.49479 9.24209 9.50097 9.2644 9.52372 9.30268C9.54564 9.33955 9.57859 9.38401 9.62361 9.43587C9.71367 9.53959 9.84359 9.66324 10.0066 9.80222C10.332 10.0797 10.7771 10.4081 11.2676 10.7457C12.2481 11.4207 13.3987 12.1252 14.1089 12.5218L13.9789 12.7546ZM9.22891 9.26438C9.20575 9.06798 9.30326 8.88635 9.44395 8.7372C9.58632 8.58629 9.78837 8.45107 10.0178 8.341C10.4758 8.12122 11.0737 7.9872 11.6011 8.04528L11.5719 8.31034C11.1031 8.25871 10.5552 8.37891 10.1331 8.58142C9.92251 8.68249 9.75091 8.80043 9.63793 8.92019C9.52327 9.04173 9.48374 9.1483 9.49374 9.23315L9.22891 9.26438ZM11.601 8.04527C12.1314 8.10355 12.6702 8.40326 13.1223 8.66274C13.3534 8.79538 13.5609 8.91726 13.7445 9.00311C13.9326 9.09112 14.0685 9.12754 14.1608 9.11639L14.1928 9.38114C14.0194 9.40206 13.8232 9.33433 13.6315 9.24465C13.4351 9.15281 13.2151 9.02346 12.9896 8.89402C12.5284 8.62935 12.0377 8.36152 11.5719 8.31035L11.601 8.04527ZM14.1607 9.1164C14.3707 9.09095 14.4829 8.97273 14.5987 8.82422C14.6538 8.75359 14.7176 8.66484 14.7892 8.59549C14.8651 8.52207 14.9602 8.45887 15.0879 8.44048L15.1259 8.70443C15.0707 8.71238 15.0246 8.73883 14.9747 8.78709C14.9207 8.83943 14.8744 8.90439 14.809 8.9882C14.684 9.14858 14.514 9.34218 14.1928 9.38113L14.1607 9.1164ZM15.088 8.44047C15.2114 8.42276 15.3193 8.32472 15.373 8.18859C15.4268 8.05211 15.4132 7.91093 15.3369 7.82002L15.5412 7.6486C15.6972 7.83443 15.7001 8.08613 15.6211 8.28643C15.5419 8.48709 15.3676 8.66974 15.1259 8.70444L15.088 8.44047ZM15.337 7.8201C15.3204 7.80041 15.2749 7.76191 15.1933 7.7044C15.1155 7.64965 15.0158 7.58495 14.9014 7.51317C14.6646 7.36461 14.4004 7.20721 14.1267 7.03624C13.8635 6.87186 13.6107 6.70657 13.4439 6.57008C13.3633 6.50414 13.2891 6.43415 13.2485 6.36615C13.2285 6.33272 13.2047 6.28021 13.2131 6.2188C13.223 6.14674 13.2709 6.10046 13.3196 6.07608L13.439 6.31452C13.4462 6.31091 13.4721 6.29267 13.4773 6.25506C13.481 6.22809 13.4697 6.21642 13.4774 6.2294C13.4923 6.25421 13.534 6.29924 13.6128 6.36371C13.7647 6.48804 14.0039 6.64513 14.268 6.81006C14.5215 6.9684 14.8199 7.14726 15.0431 7.28729C15.1587 7.3598 15.2632 7.42748 15.3468 7.48637C15.4265 7.54249 15.4994 7.59888 15.5411 7.64852L15.337 7.8201ZM13.3198 6.07596C13.4035 6.0343 13.502 6.04597 13.5802 6.06423C13.6651 6.08407 13.7613 6.12069 13.8612 6.1652C14.0613 6.25433 14.2997 6.38576 14.5319 6.51316L14.4036 6.74695C14.1677 6.61753 13.9405 6.49241 13.7527 6.4088C13.6587 6.36692 13.5803 6.33811 13.5195 6.3239C13.452 6.30813 13.4338 6.31713 13.4388 6.31464L13.3198 6.07596ZM14.5318 6.51313C14.7942 6.65691 15.0485 6.79511 15.2517 6.87659C15.3542 6.91768 15.4333 6.93998 15.4884 6.94483C15.5468 6.94998 15.5397 6.93357 15.5288 6.94904L15.7472 7.10203C15.6751 7.20496 15.5561 7.2185 15.465 7.21047C15.3704 7.20213 15.2622 7.1681 15.1525 7.1241C14.9313 7.03541 14.6617 6.8884 14.4037 6.74698L14.5318 6.51313ZM15.5288 6.94912C15.5917 6.85918 15.6798 6.76402 15.7533 6.67758C15.8311 6.58625 15.9024 6.49424 15.9539 6.39247C16.0045 6.29238 16.0356 6.18339 16.0323 6.05765C16.0289 5.93128 15.9906 5.77955 15.8897 5.59493L16.1238 5.46706C16.2407 5.68105 16.2942 5.87392 16.2988 6.05062C16.3035 6.22794 16.2588 6.38048 16.1918 6.51285C16.1257 6.64355 16.0377 6.75494 15.9564 6.8504C15.871 6.95076 15.8005 7.02581 15.7473 7.10194L15.5288 6.94912ZM15.8897 5.59488C15.7755 5.38566 15.6931 5.16757 15.6209 4.95834C15.5475 4.74552 15.4865 4.54834 15.4112 4.36273C15.2634 3.99817 15.076 3.7195 14.6954 3.58036L14.787 3.3299C15.2701 3.50653 15.4981 3.86733 15.6583 4.26252C15.7371 4.45679 15.8033 4.66956 15.873 4.87134C15.9439 5.0767 16.0205 5.27786 16.1238 5.46711L15.8897 5.59488ZM14.6955 3.58038C14.2754 3.42698 13.1926 3.20129 12.1176 2.97354C11.5841 2.8605 11.056 2.74758 10.6218 2.64414C10.1933 2.54208 9.84003 2.44573 9.66741 2.3638L9.78176 2.1229C9.92396 2.19039 10.2473 2.28083 10.6836 2.38473C11.114 2.48727 11.6389 2.59952 12.1729 2.71266C13.2331 2.93728 14.3437 3.16805 14.7869 3.32989L14.6955 3.58038ZM9.66737 2.36378C9.50463 2.28646 9.27174 2.24569 8.9918 2.22735C8.71433 2.20918 8.40607 2.21372 8.09834 2.21838L8.0943 1.95175C8.39955 1.94713 8.71903 1.94225 9.00923 1.96126C9.29697 1.9801 9.57172 2.02311 9.7818 2.12292L9.66737 2.36378ZM8.09839 2.21838C7.68222 2.22485 7.25917 2.23222 6.94611 2.1753L6.99381 1.91294C7.27518 1.9641 7.66763 1.95838 8.09425 1.95175L8.09839 2.21838ZM6.94609 2.1753C6.57437 2.10768 5.87687 1.91714 5.15026 1.72884C4.41687 1.53878 3.6503 1.34996 3.12363 1.27917L3.15916 1.01488C3.70453 1.08819 4.48694 1.28146 5.21716 1.4707C5.95417 1.66169 6.63493 1.84765 6.99382 1.91294L6.94609 2.1753ZM3.12367 1.27917C3.0163 1.26477 2.92381 1.25825 2.84553 1.25825V0.991585C2.9381 0.991585 3.04269 0.999255 3.15912 1.01487L3.12367 1.27917ZM2.84548 1.25825C2.67238 1.25819 2.58477 1.28997 2.54678 1.31908C2.53035 1.33166 2.52365 1.34323 2.5203 1.35384C2.51656 1.3657 2.51445 1.385 2.52083 1.41496C2.5343 1.47812 2.58098 1.56684 2.67115 1.67382C2.75944 1.77857 2.88166 1.89168 3.03132 2.00369L2.87153 2.21718C2.70979 2.09612 2.57157 1.96946 2.46725 1.84568C2.3648 1.72413 2.28668 1.59556 2.26003 1.47057C2.24636 1.40646 2.24536 1.33897 2.266 1.27358C2.28703 1.20693 2.32799 1.15077 2.3846 1.1074C2.4927 1.02458 2.6527 0.991512 2.84558 0.991585L2.84548 1.25825Z" fill="black" mask="url(#path-1-outside-1_3_277)"/>
<path d="M4.47237 20.6421C4.47237 20.2722 4.77498 19.9695 5.14683 19.9695H14.3479C14.7213 19.9695 15.0243 20.272 15.0243 20.6421V21.6074C15.0243 21.9798 14.7211 22.2803 14.3479 22.2803H5.14683C4.77509 22.2803 4.47237 21.9796 4.47237 21.6074V20.6421Z" fill="url(#paint1_linear_3_277)" stroke="black" stroke-width="0.1"/>
<g opacity="0.600006">
<g opacity="0.600006">
<g opacity="0.600006">
<g opacity="0.600006">
<g opacity="0.600006">
<g opacity="0.600006">
<mask id="path-4-outside-2_3_277" maskUnits="userSpaceOnUse" x="3.2057" y="18.9604" width="8" height="4" fill="black">
<rect fill="white" x="3.2057" y="18.9604" width="8" height="4"/>
<path d="M4.53903 21.6271V20.6421C4.53903 20.3091 4.81169 20.0362 5.14656 20.0362H11.1591C11.1591 20.0362 7.74917 20.1639 6.32478 20.6508C4.89657 21.1361 4.53903 21.6271 4.53903 21.6271Z"/>
</mask>
<path d="M4.53903 21.6271V20.6421C4.53903 20.3091 4.81169 20.0362 5.14656 20.0362H11.1591C11.1591 20.0362 7.74917 20.1639 6.32478 20.6508C4.89657 21.1361 4.53903 21.6271 4.53903 21.6271Z" fill="url(#paint2_linear_3_277)"/>
<path d="M11.1591 20.0362V19.9029L11.1641 20.1695L11.1591 20.0362ZM6.32478 20.6508L6.36791 20.777L6.36768 20.7771L6.32478 20.6508ZM4.4057 21.6271V20.6421H4.67237V21.6271H4.4057ZM4.4057 20.6421C4.4057 20.2353 4.73825 19.9029 5.14656 19.9029V20.1696C4.88513 20.1696 4.67237 20.383 4.67237 20.6421H4.4057ZM5.14656 19.9029H11.1591V20.1696H5.14656V19.9029ZM11.1591 20.0362C11.1641 20.1695 11.1641 20.1695 11.164 20.1695C11.164 20.1695 11.164 20.1695 11.1639 20.1695C11.1638 20.1695 11.1637 20.1695 11.1635 20.1695C11.1631 20.1695 11.1625 20.1695 11.1617 20.1696C11.1601 20.1696 11.1577 20.1697 11.1545 20.1698C11.1481 20.1701 11.1385 20.1705 11.126 20.171C11.1008 20.172 11.0637 20.1736 11.0159 20.1759C10.9203 20.1803 10.7821 20.1871 10.6116 20.1969C10.2707 20.2164 9.80147 20.2475 9.28803 20.2937C8.25579 20.3867 7.06273 20.5395 6.36791 20.777L6.28165 20.5247C7.01122 20.2753 8.2353 20.1208 9.26411 20.0281C9.78119 19.9816 10.2534 19.9503 10.5964 19.9307C10.7679 19.9208 10.9072 19.9139 11.0036 19.9095C11.0518 19.9072 11.0894 19.9056 11.1149 19.9046C11.1276 19.904 11.1374 19.9036 11.144 19.9034C11.1473 19.9032 11.1498 19.9031 11.1515 19.9031C11.1523 19.903 11.153 19.903 11.1534 19.903C11.1536 19.903 11.1538 19.903 11.1539 19.903C11.1539 19.903 11.154 19.903 11.154 19.903C11.1541 19.903 11.1541 19.903 11.1591 20.0362ZM6.36768 20.7771C5.66326 21.0164 5.22808 21.2554 4.97165 21.431C4.84345 21.5187 4.75986 21.5907 4.70956 21.639C4.6844 21.6631 4.66754 21.6814 4.65757 21.6928C4.65258 21.6985 4.6493 21.7025 4.64757 21.7047C4.64671 21.7058 4.64622 21.7064 4.64611 21.7065C4.64605 21.7066 4.64608 21.7066 4.6462 21.7064C4.64626 21.7063 4.64634 21.7062 4.64644 21.7061C4.64649 21.706 4.64655 21.7059 4.64661 21.7059C4.64664 21.7058 4.6467 21.7057 4.64671 21.7057C4.64676 21.7057 4.64682 21.7056 4.53903 21.6271C4.43125 21.5486 4.4313 21.5485 4.43136 21.5484C4.43138 21.5484 4.43144 21.5483 4.43148 21.5483C4.43157 21.5482 4.43166 21.548 4.43175 21.5479C4.43194 21.5477 4.43216 21.5474 4.4324 21.547C4.43287 21.5464 4.43344 21.5457 4.4341 21.5448C4.43542 21.5431 4.43712 21.5409 4.43922 21.5382C4.44342 21.533 4.44923 21.526 4.4568 21.5173C4.47196 21.5 4.49419 21.4761 4.52487 21.4466C4.58624 21.3877 4.6813 21.3066 4.82101 21.2109C5.1004 21.0196 5.55809 20.7705 6.28189 20.5246L6.36768 20.7771Z" fill="black" mask="url(#path-4-outside-2_3_277)"/>
</g>
</g>
</g>
</g>
</g>
</g>
<path d="M3.67326 22.5801C3.67326 22.1591 4.01689 21.8153 4.44188 21.8153H15.0529C15.4792 21.8153 15.8229 22.159 15.8229 22.5801V23.6947C15.8229 24.1176 15.479 24.459 15.0529 24.459H4.44188C4.01706 24.459 3.67326 24.1175 3.67326 23.6947V22.5801Z" fill="url(#paint3_linear_3_277)" stroke="black" stroke-width="0.1"/>
<g opacity="0.600006">
<g opacity="0.600006">
<g opacity="0.600006">
<g opacity="0.600006">
<g opacity="0.600006">
<path opacity="0.600006" d="M3.79366 23.7568L3.67326 23.9219V23.7173V22.58C3.67326 22.1587 4.01693 21.8155 4.44161 21.8155H11.1591L11.1617 21.9488L11.1591 21.8822L11.1617 21.9488L11.1616 21.9488L11.1611 21.9488L11.1591 21.9489L11.1511 21.9492L11.1199 21.9506L10.9994 21.9562C10.8948 21.9613 10.7435 21.9692 10.5567 21.9805C10.1831 22.003 9.6679 22.0389 9.10149 22.0923C7.96626 22.1993 6.63349 22.3759 5.81986 22.6538L5.81979 22.6538C5.00205 22.932 4.49308 23.2111 4.18986 23.4189C4.03826 23.5228 3.93806 23.6088 3.87638 23.6681C3.84553 23.6977 3.8243 23.7206 3.81108 23.7357C3.80447 23.7433 3.79986 23.7489 3.79705 23.7524L3.79415 23.7561L3.79368 23.7567L3.79367 23.7568C3.79364 23.7568 3.79364 23.7568 3.79366 23.7568Z" fill="url(#paint4_linear_3_277)" stroke="black" stroke-width="0.1"/>
</g>
</g>
</g>
</g>
</g>
<path d="M2.80348 24.9378C2.80348 24.4601 3.19284 24.0704 3.67281 24.0704H15.8218C16.3033 24.0704 16.6927 24.46 16.6927 24.9378V26.2134C16.6927 26.6916 16.3031 27.0792 15.8218 27.0792H3.67281C3.19303 27.0792 2.80348 26.6916 2.80348 26.2134V24.9378Z" fill="url(#paint5_linear_3_277)" stroke="black" stroke-width="0.1"/>
<g opacity="0.600006">
<g opacity="0.600006">
<g opacity="0.600006">
<g opacity="0.600006">
<g opacity="0.600006">
<path opacity="0.600006" d="M2.92387 26.2777C2.92387 26.2777 2.92387 26.2777 2.92387 26.2777C2.92386 26.2777 2.92386 26.2777 2.92387 26.2777L2.80348 26.4427V26.2383V24.9378C2.80348 24.4601 3.19287 24.0706 3.67281 24.0706H12.0093L12.0116 24.2039L12.0093 24.1373L12.0116 24.2039L12.0114 24.2039L12.0107 24.2039L12.0081 24.204L11.9976 24.2044L11.9564 24.206C11.9201 24.2074 11.8667 24.2095 11.7979 24.2125C11.6605 24.2184 11.4619 24.2275 11.2178 24.2405C10.7295 24.2664 10.0589 24.3077 9.32956 24.369C7.86791 24.4918 6.18036 24.6943 5.24778 25.0118C4.31118 25.3307 3.72776 25.6506 3.37981 25.8889C3.20584 26.008 3.0907 26.1068 3.01967 26.175C2.98416 26.2091 2.95965 26.2355 2.94432 26.253C2.93666 26.2618 2.93128 26.2683 2.92797 26.2725L2.92453 26.2769L2.92391 26.2777C2.92389 26.2777 2.92388 26.2777 2.92387 26.2777Z" fill="url(#paint6_linear_3_277)" stroke="black" stroke-width="0.1"/>
</g>
</g>
</g>
</g>
</g>
<path d="M1.62352 27.1769C1.62352 26.6229 2.07316 26.1716 2.63123 26.1716H16.8653C17.4208 26.1716 17.8727 26.6228 17.8727 27.1769V31.5349C17.8727 32.0895 17.4207 32.5388 16.8653 32.5388H2.63123C2.0733 32.5388 1.62352 32.0894 1.62352 31.5349V27.1769Z" fill="url(#paint7_linear_3_277)" stroke="black" stroke-width="0.1"/>
<g opacity="0.600006">
<g opacity="0.600006">
<g opacity="0.600006">
<g opacity="0.600006">
<g opacity="0.600006">
<g opacity="0.600006">
<mask id="path-11-outside-3_3_277" maskUnits="userSpaceOnUse" x="0.356852" y="26.0339" width="12" height="4" fill="black">
<rect fill="white" x="0.356852" y="26.0339" width="12" height="4"/>
<path d="M1.69019 28.7006V27.1768C1.69019 26.6599 2.10994 26.2382 2.63123 26.2382H12.0092C12.0092 26.2382 6.65577 26.4383 4.45054 27.1897C2.24477 27.9405 1.69019 28.7006 1.69019 28.7006Z"/>
</mask>
<path d="M1.69019 28.7006V27.1768C1.69019 26.6599 2.10994 26.2382 2.63123 26.2382H12.0092C12.0092 26.2382 6.65577 26.4383 4.45054 27.1897C2.24477 27.9405 1.69019 28.7006 1.69019 28.7006Z" fill="url(#paint8_linear_3_277)"/>
<path d="M12.0092 26.2382V26.1049L12.0142 26.3715L12.0092 26.2382ZM4.45054 27.1897L4.49354 27.3159L4.49351 27.3159L4.45054 27.1897ZM1.55685 28.7006V27.1768H1.82352V28.7006H1.55685ZM1.55685 27.1768C1.55685 26.5862 2.03635 26.1049 2.63123 26.1049V26.3716C2.18353 26.3716 1.82352 26.7336 1.82352 27.1768H1.55685ZM2.63123 26.1049H12.0092V26.3716H2.63123V26.1049ZM12.0092 26.2382C12.0142 26.3715 12.0141 26.3715 12.0141 26.3715C12.0141 26.3715 12.014 26.3715 12.0139 26.3715C12.0138 26.3715 12.0136 26.3715 12.0132 26.3715C12.0126 26.3715 12.0117 26.3716 12.0104 26.3716C12.0079 26.3717 12.004 26.3719 11.999 26.3721C11.9889 26.3725 11.9738 26.3731 11.954 26.3739C11.9145 26.3755 11.8561 26.378 11.781 26.3815C11.6307 26.3884 11.4135 26.3991 11.1458 26.4144C10.6105 26.4448 9.87387 26.4932 9.06866 26.565C7.4528 26.7091 5.57874 26.9461 4.49354 27.3159L4.40754 27.0635C5.52757 26.6818 7.43282 26.4432 9.04497 26.2994C9.85377 26.2273 10.5933 26.1787 11.1307 26.1481C11.3994 26.1329 11.6176 26.1221 11.7687 26.1151C11.8443 26.1116 11.903 26.1091 11.943 26.1075C11.963 26.1066 11.9782 26.106 11.9885 26.1056C11.9936 26.1054 11.9975 26.1053 12.0002 26.1052C12.0015 26.1051 12.0025 26.1051 12.0031 26.105C12.0035 26.105 12.0037 26.105 12.0039 26.105C12.004 26.105 12.0041 26.105 12.0041 26.105C12.0042 26.105 12.0042 26.105 12.0092 26.2382ZM4.49351 27.3159C3.40032 27.688 2.72147 28.0606 2.31856 28.3367C2.11711 28.4747 1.98458 28.5886 1.90364 28.6663C1.86316 28.7051 1.83555 28.7349 1.81866 28.7542C1.81021 28.7639 1.80444 28.7709 1.80107 28.7751C1.79938 28.7772 1.7983 28.7786 1.79778 28.7793C1.79752 28.7797 1.7974 28.7798 1.79743 28.7798C1.79744 28.7798 1.79748 28.7797 1.79756 28.7796C1.7976 28.7796 1.79765 28.7795 1.7977 28.7794C1.79773 28.7794 1.79778 28.7793 1.79779 28.7793C1.79784 28.7792 1.7979 28.7792 1.69019 28.7006C1.58248 28.622 1.58253 28.6219 1.58259 28.6218C1.58261 28.6218 1.58267 28.6217 1.58272 28.6216C1.58281 28.6215 1.58291 28.6214 1.58302 28.6212C1.58323 28.6209 1.58348 28.6206 1.58377 28.6202C1.58434 28.6195 1.58505 28.6185 1.58591 28.6174C1.58762 28.6151 1.58992 28.6122 1.59284 28.6085C1.59867 28.6013 1.60696 28.5912 1.61799 28.5786C1.64004 28.5534 1.67299 28.518 1.71897 28.4739C1.81095 28.3856 1.95492 28.2625 2.16784 28.1167C2.59367 27.825 3.29499 27.4422 4.40758 27.0634L4.49351 27.3159Z" fill="black" mask="url(#path-11-outside-3_3_277)"/>
</g>
</g>
</g>
</g>
</g>
</g>
<defs>
<linearGradient id="paint0_linear_3_277" x1="0.875033" y1="10.9782" x2="16.166" y2="10.9782" gradientUnits="userSpaceOnUse">
<stop stop-color="white"/>
<stop offset="0.0498493" stop-color="white"/>
<stop offset="0.921951" stop-color="#B9B9B9"/>
<stop offset="0.92209" stop-color="#B9B9B9"/>
<stop offset="1" stop-color="#999999"/>
</linearGradient>
<linearGradient id="paint1_linear_3_277" x1="4.10028" y1="21.1249" x2="14.9417" y2="21.1249" gradientUnits="userSpaceOnUse">
<stop stop-color="white"/>
<stop offset="0.0498493" stop-color="white"/>
<stop offset="0.921951" stop-color="#B9B9B9"/>
<stop offset="0.92209" stop-color="#B9B9B9"/>
<stop offset="1" stop-color="#999999"/>
</linearGradient>
<linearGradient id="paint2_linear_3_277" x1="3.94782" y1="20.8317" x2="8.96398" y2="20.8317" gradientUnits="userSpaceOnUse">
<stop stop-color="white"/>
<stop offset="0.0540694" stop-color="white"/>
<stop offset="1" stop-color="white"/>
</linearGradient>
<linearGradient id="paint3_linear_3_277" x1="3.23408" y1="23.1372" x2="15.7382" y2="23.1372" gradientUnits="userSpaceOnUse">
<stop stop-color="white"/>
<stop offset="0.0498493" stop-color="white"/>
<stop offset="0.921951" stop-color="#B9B9B9"/>
<stop offset="0.92209" stop-color="#B9B9B9"/>
<stop offset="1" stop-color="#999999"/>
</linearGradient>
<linearGradient id="paint4_linear_3_277" x1="3.11388" y1="22.7998" x2="8.34803" y2="22.7998" gradientUnits="userSpaceOnUse">
<stop stop-color="white"/>
<stop offset="0.0540694" stop-color="white"/>
<stop offset="1" stop-color="white"/>
</linearGradient>
<linearGradient id="paint5_linear_3_277" x1="2.29087" y1="25.5748" x2="16.6052" y2="25.5748" gradientUnits="userSpaceOnUse">
<stop stop-color="white"/>
<stop offset="0.0498493" stop-color="white"/>
<stop offset="0.921951" stop-color="#B9B9B9"/>
<stop offset="0.92209" stop-color="#B9B9B9"/>
<stop offset="1" stop-color="#999999"/>
</linearGradient>
<linearGradient id="paint6_linear_3_277" x1="2.07845" y1="25.1877" x2="8.99823" y2="25.1877" gradientUnits="userSpaceOnUse">
<stop stop-color="white"/>
<stop offset="0.0540694" stop-color="white"/>
<stop offset="1" stop-color="white"/>
</linearGradient>
<linearGradient id="paint7_linear_3_277" x1="1.01169" y1="29.3551" x2="17.7817" y2="29.3551" gradientUnits="userSpaceOnUse">
<stop stop-color="white"/>
<stop offset="0.0498493" stop-color="white"/>
<stop offset="0.921951" stop-color="#B9B9B9"/>
<stop offset="0.92209" stop-color="#B9B9B9"/>
<stop offset="1" stop-color="#999999"/>
</linearGradient>
<linearGradient id="paint8_linear_3_277" x1="0.841913" y1="27.4694" x2="8.67205" y2="27.4694" gradientUnits="userSpaceOnUse">
<stop stop-color="white"/>
<stop offset="0.0540694" stop-color="white"/>
<stop offset="1" stop-color="white"/>
</linearGradient>
</defs>
</svg>
